<svg width="426" height="124" viewBox="0 0 426 124" fill="none" xmlns="http://www.w3.org/2000/svg">
<path d="M390.963 113.061C390.181 113.061 389.506 112.898 388.937 112.573C388.371 112.244 387.936 111.781 387.631 111.181C387.326 110.578 387.174 109.869 387.174 109.053C387.174 108.25 387.326 107.546 387.631 106.939C387.939 106.33 388.369 105.856 388.921 105.517C389.473 105.175 390.122 105.004 390.867 105.004C391.348 105.004 391.802 105.082 392.228 105.238C392.658 105.39 393.038 105.627 393.366 105.949C393.698 106.27 393.959 106.68 394.149 107.178C394.338 107.673 394.433 108.262 394.433 108.946V109.51H388.037V108.27H392.67C392.667 107.918 392.591 107.605 392.442 107.331C392.293 107.053 392.084 106.834 391.817 106.675C391.553 106.516 391.245 106.436 390.892 106.436C390.516 106.436 390.186 106.528 389.902 106.711C389.617 106.89 389.395 107.127 389.236 107.422C389.08 107.713 389.001 108.033 388.998 108.382V109.464C388.998 109.918 389.08 110.307 389.246 110.632C389.412 110.954 389.644 111.201 389.942 111.374C390.24 111.543 390.589 111.628 390.989 111.628C391.256 111.628 391.499 111.591 391.715 111.516C391.932 111.438 392.12 111.325 392.279 111.176C392.438 111.027 392.559 110.842 392.64 110.622L394.357 110.815C394.248 111.269 394.042 111.665 393.737 112.004C393.436 112.339 393.05 112.6 392.579 112.786C392.108 112.969 391.57 113.061 390.963 113.061Z" fill="#0F0F0F"/>
<path d="M382.158 112.907V105.104H383.941V106.404H384.023C384.165 105.954 384.409 105.607 384.754 105.363C385.103 105.116 385.501 104.992 385.948 104.992C386.049 104.992 386.163 104.997 386.288 105.007C386.417 105.014 386.524 105.026 386.608 105.043V106.735C386.53 106.708 386.407 106.684 386.237 106.663C386.071 106.64 385.911 106.628 385.755 106.628C385.42 106.628 385.118 106.701 384.851 106.846C384.586 106.989 384.378 107.187 384.226 107.441C384.073 107.695 383.997 107.988 383.997 108.32V112.907H382.158Z" fill="#0F0F0F"/>
<path d="M377.133 113.061C376.351 113.061 375.675 112.898 375.106 112.573C374.541 112.244 374.106 111.781 373.801 111.181C373.496 110.578 373.344 109.869 373.344 109.053C373.344 108.25 373.496 107.546 373.801 106.939C374.109 106.33 374.539 105.856 375.091 105.517C375.643 105.175 376.292 105.004 377.037 105.004C377.518 105.004 377.972 105.082 378.398 105.238C378.828 105.39 379.208 105.627 379.536 105.949C379.868 106.27 380.129 106.68 380.318 107.178C380.508 107.673 380.603 108.262 380.603 108.946V109.51H374.207V108.27H378.84C378.837 107.918 378.761 107.605 378.612 107.331C378.463 107.053 378.254 106.834 377.987 106.675C377.723 106.516 377.414 106.436 377.062 106.436C376.686 106.436 376.356 106.528 376.072 106.711C375.787 106.89 375.565 107.127 375.406 107.422C375.25 107.713 375.171 108.033 375.167 108.382V109.464C375.167 109.918 375.25 110.307 375.416 110.632C375.582 110.954 375.814 111.201 376.112 111.374C376.41 111.543 376.759 111.628 377.159 111.628C377.426 111.628 377.668 111.591 377.885 111.516C378.102 111.438 378.29 111.325 378.449 111.176C378.608 111.027 378.728 110.842 378.81 110.622L380.527 110.815C380.418 111.269 380.212 111.665 379.907 112.004C379.606 112.339 379.22 112.6 378.749 112.786C378.278 112.969 377.74 113.061 377.133 113.061Z" fill="#0F0F0F"/>
<path d="M366.745 108.336V112.908H364.906V102.504H366.705V106.431H366.796C366.979 105.99 367.262 105.643 367.644 105.389C368.03 105.132 368.521 105.003 369.117 105.003C369.659 105.003 370.132 105.117 370.535 105.344C370.938 105.57 371.249 105.902 371.469 106.339C371.693 106.776 371.805 107.31 371.805 107.939V112.908H369.966V108.224C369.966 107.699 369.83 107.291 369.559 107C369.292 106.705 368.916 106.558 368.432 106.558C368.107 106.558 367.815 106.629 367.558 106.771C367.304 106.91 367.104 107.111 366.959 107.376C366.816 107.64 366.745 107.96 366.745 108.336Z" fill="#0F0F0F"/>
<path d="M354.545 112.908L352.34 105.105H354.214L355.586 110.592H355.657L357.059 105.105H358.913L360.315 110.561H360.392L361.743 105.105H363.622L361.413 112.908H359.497L358.034 107.635H357.928L356.465 112.908H354.545Z" fill="#0F0F0F"/>
<path d="M345.835 115.834C345.584 115.834 345.352 115.814 345.139 115.773C344.929 115.736 344.761 115.692 344.636 115.641L345.063 114.209C345.33 114.287 345.569 114.324 345.779 114.32C345.989 114.317 346.174 114.251 346.333 114.122C346.495 113.997 346.633 113.787 346.744 113.492L346.902 113.071L344.072 105.105H346.023L347.821 110.998H347.903L349.706 105.105H351.662L348.538 113.853C348.392 114.266 348.199 114.62 347.958 114.915C347.718 115.213 347.423 115.44 347.074 115.595C346.729 115.755 346.316 115.834 345.835 115.834Z" fill="#0F0F0F"/>
<path d="M338.093 108.336V112.908H336.254V105.106H338.012V106.431H338.103C338.282 105.994 338.569 105.647 338.962 105.39C339.358 105.133 339.847 105.004 340.43 105.004C340.968 105.004 341.437 105.119 341.837 105.349C342.24 105.58 342.551 105.913 342.771 106.35C342.995 106.787 343.105 107.317 343.102 107.94V112.908H341.263V108.225C341.263 107.703 341.127 107.295 340.856 107C340.589 106.706 340.218 106.558 339.744 106.558C339.422 106.558 339.136 106.629 338.885 106.772C338.638 106.911 338.443 107.112 338.301 107.376C338.162 107.64 338.093 107.96 338.093 108.336Z" fill="#0F0F0F"/>
<path d="M327.32 112.908H325.309L328.971 102.504H331.298L334.966 112.908H332.954L330.175 104.637H330.094L327.32 112.908ZM327.386 108.828H332.873V110.342H327.386V108.828Z" fill="#0F0F0F"/>
<path d="M315.255 115.834C315.004 115.834 314.772 115.814 314.559 115.773C314.349 115.736 314.181 115.692 314.056 115.641L314.483 114.209C314.75 114.287 314.989 114.324 315.199 114.32C315.409 114.317 315.594 114.251 315.753 114.122C315.915 113.997 316.052 113.787 316.164 113.492L316.322 113.071L313.492 105.105H315.443L317.241 110.998H317.322L319.126 105.105H321.082L317.957 113.853C317.812 114.266 317.619 114.62 317.378 114.915C317.138 115.213 316.843 115.44 316.494 115.595C316.149 115.755 315.736 115.834 315.255 115.834Z" fill="#0F0F0F"/>
<path d="M309.079 113.061C308.317 113.061 307.656 112.893 307.097 112.558C306.539 112.222 306.105 111.753 305.797 111.151C305.492 110.548 305.34 109.843 305.34 109.037C305.34 108.231 305.492 107.525 305.797 106.919C306.105 106.313 306.539 105.842 307.097 105.507C307.656 105.172 308.317 105.004 309.079 105.004C309.841 105.004 310.501 105.172 311.06 105.507C311.619 105.842 312.05 106.313 312.355 106.919C312.663 107.525 312.817 108.231 312.817 109.037C312.817 109.843 312.663 110.548 312.355 111.151C312.05 111.753 311.619 112.222 311.06 112.558C310.501 112.893 309.841 113.061 309.079 113.061ZM309.089 111.587C309.502 111.587 309.847 111.474 310.125 111.247C310.403 111.017 310.609 110.709 310.745 110.323C310.884 109.937 310.953 109.506 310.953 109.032C310.953 108.555 310.884 108.123 310.745 107.737C310.609 107.347 310.403 107.038 310.125 106.807C309.847 106.577 309.502 106.462 309.089 106.462C308.665 106.462 308.313 106.577 308.032 106.807C307.754 107.038 307.546 107.347 307.407 107.737C307.272 108.123 307.204 108.555 307.204 109.032C307.204 109.506 307.272 109.937 307.407 110.323C307.546 110.709 307.754 111.017 308.032 111.247C308.313 111.474 308.665 111.587 309.089 111.587Z" fill="#0F0F0F"/>
<path d="M303.784 102.504V112.908H301.945V102.504H303.784Z" fill="#0F0F0F"/>
<path d="M293.004 115.834V105.106H294.812V106.396H294.919C295.014 106.206 295.148 106.005 295.32 105.791C295.493 105.575 295.727 105.39 296.021 105.238C296.316 105.082 296.692 105.004 297.149 105.004C297.752 105.004 298.295 105.158 298.78 105.466C299.267 105.771 299.654 106.223 299.938 106.823C300.226 107.419 300.37 108.15 300.37 109.017C300.37 109.874 300.229 110.602 299.948 111.201C299.667 111.801 299.284 112.258 298.8 112.573C298.316 112.888 297.767 113.045 297.154 113.045C296.707 113.045 296.336 112.971 296.042 112.822C295.747 112.673 295.51 112.493 295.331 112.283C295.154 112.07 295.017 111.869 294.919 111.679H294.843V115.834H293.004ZM294.807 109.007C294.807 109.511 294.878 109.953 295.021 110.333C295.166 110.712 295.375 111.008 295.645 111.222C295.92 111.432 296.252 111.537 296.641 111.537C297.048 111.537 297.388 111.428 297.662 111.212C297.937 110.991 298.143 110.692 298.282 110.312C298.424 109.93 298.495 109.495 298.495 109.007C298.495 108.523 298.426 108.092 298.287 107.717C298.148 107.341 297.942 107.046 297.667 106.833C297.393 106.619 297.051 106.513 296.641 106.513C296.248 106.513 295.915 106.616 295.64 106.823C295.366 107.029 295.158 107.319 295.016 107.691C294.877 108.064 294.807 108.502 294.807 109.007Z" fill="#0F0F0F"/>
<path d="M287.979 113.061C287.197 113.061 286.521 112.898 285.952 112.573C285.387 112.244 284.951 111.781 284.647 111.181C284.342 110.578 284.189 109.869 284.189 109.053C284.189 108.25 284.342 107.546 284.647 106.939C284.955 106.33 285.385 105.856 285.937 105.517C286.489 105.175 287.137 105.004 287.883 105.004C288.363 105.004 288.817 105.082 289.244 105.238C289.674 105.39 290.053 105.627 290.382 105.949C290.714 106.27 290.975 106.68 291.164 107.178C291.354 107.673 291.449 108.262 291.449 108.946V109.51H285.053V108.27H289.686C289.683 107.918 289.606 107.605 289.457 107.331C289.308 107.053 289.1 106.834 288.833 106.675C288.568 106.516 288.26 106.436 287.908 106.436C287.532 106.436 287.202 106.528 286.917 106.711C286.633 106.89 286.411 107.127 286.252 107.422C286.096 107.713 286.017 108.033 286.013 108.382V109.464C286.013 109.918 286.096 110.307 286.262 110.632C286.428 110.954 286.66 111.201 286.958 111.374C287.256 111.543 287.605 111.628 288.004 111.628C288.272 111.628 288.514 111.591 288.731 111.516C288.948 111.438 289.136 111.325 289.295 111.176C289.454 111.027 289.574 110.842 289.655 110.622L291.372 110.815C291.264 111.269 291.057 111.665 290.753 112.004C290.451 112.339 290.065 112.6 289.594 112.786C289.124 112.969 288.585 113.061 287.979 113.061Z" fill="#0F0F0F"/>
<path d="M277.766 112.908H274.24V102.504H277.837C278.87 102.504 279.757 102.712 280.499 103.129C281.244 103.542 281.816 104.136 282.216 104.912C282.615 105.687 282.815 106.615 282.815 107.696C282.815 108.779 282.614 109.711 282.211 110.49C281.811 111.268 281.234 111.866 280.478 112.283C279.727 112.699 278.822 112.908 277.766 112.908ZM276.125 111.277H277.674C278.399 111.277 279.004 111.145 279.488 110.881C279.972 110.613 280.336 110.215 280.58 109.687C280.824 109.155 280.946 108.491 280.946 107.696C280.946 106.9 280.824 106.239 280.58 105.714C280.336 105.186 279.975 104.792 279.498 104.531C279.024 104.267 278.435 104.135 277.73 104.135H276.125V111.277Z" fill="#0F0F0F"/>
<path d="M268.873 111.484L268.807 112.043C268.759 112.47 268.675 112.903 268.553 113.344C268.434 113.787 268.309 114.195 268.177 114.568C268.045 114.94 267.938 115.233 267.857 115.447H266.617C266.665 115.24 266.729 114.959 266.81 114.603C266.895 114.248 266.976 113.848 267.054 113.405C267.132 112.961 267.184 112.511 267.212 112.053L267.247 111.484H268.873Z" fill="#0F0F0F"/>
<path d="M261.167 115.997C260.506 115.997 259.939 115.907 259.465 115.728C258.991 115.552 258.61 115.314 258.322 115.016C258.034 114.718 257.834 114.388 257.722 114.026L259.378 113.625C259.453 113.777 259.561 113.928 259.704 114.077C259.846 114.229 260.037 114.354 260.278 114.453C260.521 114.554 260.828 114.605 261.197 114.605C261.719 114.605 262.15 114.478 262.492 114.224C262.834 113.973 263.005 113.56 263.005 112.984V111.506H262.914C262.819 111.696 262.68 111.891 262.497 112.09C262.318 112.29 262.079 112.458 261.781 112.593C261.487 112.729 261.116 112.796 260.669 112.796C260.069 112.796 259.526 112.656 259.038 112.375C258.554 112.09 258.168 111.667 257.88 111.105C257.595 110.539 257.453 109.832 257.453 108.981C257.453 108.125 257.595 107.402 257.88 106.812C258.168 106.22 258.555 105.771 259.043 105.466C259.531 105.158 260.074 105.004 260.674 105.004C261.131 105.004 261.507 105.082 261.802 105.238C262.1 105.39 262.337 105.575 262.513 105.791C262.689 106.005 262.823 106.206 262.914 106.396H263.016V105.106H264.829V113.035C264.829 113.702 264.67 114.254 264.352 114.691C264.033 115.128 263.598 115.455 263.046 115.672C262.494 115.888 261.868 115.997 261.167 115.997ZM261.182 111.354C261.571 111.354 261.903 111.259 262.177 111.069C262.452 110.88 262.66 110.607 262.802 110.251C262.945 109.896 263.016 109.469 263.016 108.971C263.016 108.48 262.945 108.05 262.802 107.681C262.663 107.312 262.457 107.026 262.183 106.823C261.912 106.616 261.578 106.513 261.182 106.513C260.772 106.513 260.43 106.619 260.156 106.833C259.881 107.046 259.675 107.339 259.536 107.712C259.397 108.081 259.328 108.501 259.328 108.971C259.328 109.449 259.397 109.867 259.536 110.226C259.678 110.582 259.886 110.859 260.161 111.059C260.438 111.256 260.779 111.354 261.182 111.354Z" fill="#0F0F0F"/>
<path d="M250.894 108.336V112.908H249.055V105.106H250.812V106.431H250.904C251.083 105.994 251.369 105.647 251.762 105.39C252.159 105.133 252.648 105.004 253.23 105.004C253.769 105.004 254.238 105.119 254.638 105.349C255.041 105.58 255.352 105.913 255.572 106.35C255.796 106.787 255.906 107.317 255.902 107.94V112.908H254.063V108.225C254.063 107.703 253.928 107.295 253.657 107C253.39 106.706 253.019 106.558 252.545 106.558C252.223 106.558 251.937 106.629 251.686 106.772C251.439 106.911 251.244 107.112 251.102 107.376C250.963 107.64 250.894 107.96 250.894 108.336Z" fill="#0F0F0F"/>
<path d="M245.326 112.907V105.104H247.165V112.907H245.326ZM246.25 103.996C245.959 103.996 245.709 103.9 245.499 103.707C245.289 103.51 245.184 103.275 245.184 103.001C245.184 102.723 245.289 102.488 245.499 102.295C245.709 102.098 245.959 102 246.25 102C246.545 102 246.796 102.098 247.002 102.295C247.212 102.488 247.317 102.723 247.317 103.001C247.317 103.275 247.212 103.51 247.002 103.707C246.796 103.9 246.545 103.996 246.25 103.996Z" fill="#0F0F0F"/>
<path d="M238.392 108.336V112.908H236.553V102.504H238.351V106.431H238.442C238.625 105.99 238.908 105.643 239.291 105.389C239.677 105.132 240.168 105.003 240.764 105.003C241.306 105.003 241.778 105.117 242.181 105.344C242.584 105.57 242.896 105.902 243.116 106.339C243.34 106.776 243.451 107.31 243.451 107.939V112.908H241.612V108.224C241.612 107.699 241.477 107.291 241.206 107C240.938 106.705 240.562 106.558 240.078 106.558C239.753 106.558 239.462 106.629 239.204 106.771C238.95 106.91 238.751 107.111 238.605 107.376C238.463 107.64 238.392 107.96 238.392 108.336Z" fill="#0F0F0F"/>
<path d="M234.847 105.104V106.526H230.361V105.104H234.847ZM231.469 103.234H233.307V110.56C233.307 110.807 233.345 110.997 233.419 111.129C233.497 111.257 233.599 111.345 233.724 111.393C233.849 111.44 233.988 111.464 234.141 111.464C234.256 111.464 234.361 111.455 234.455 111.438C234.554 111.422 234.628 111.406 234.679 111.393L234.989 112.83C234.891 112.864 234.75 112.902 234.567 112.942C234.388 112.983 234.168 113.007 233.907 113.013C233.446 113.027 233.031 112.957 232.662 112.805C232.293 112.649 232 112.409 231.783 112.084C231.57 111.759 231.465 111.352 231.469 110.864V103.234Z" fill="#0F0F0F"/>
<path d="M223.851 115.834C223.6 115.834 223.368 115.814 223.155 115.773C222.945 115.736 222.777 115.692 222.652 115.641L223.078 114.209C223.346 114.287 223.585 114.324 223.795 114.32C224.005 114.317 224.189 114.251 224.348 114.122C224.511 113.997 224.648 113.787 224.76 113.492L224.917 113.071L222.088 105.105H224.039L225.837 110.998H225.918L227.722 105.105H229.677L226.553 113.853C226.408 114.266 226.214 114.62 225.974 114.915C225.734 115.213 225.439 115.44 225.09 115.595C224.745 115.755 224.332 115.834 223.851 115.834Z" fill="#0F0F0F"/>
<path d="M216.108 108.336V112.908H214.27V105.106H216.027V106.431H216.119C216.298 105.994 216.584 105.647 216.977 105.39C217.373 105.133 217.863 105.004 218.445 105.004C218.984 105.004 219.453 105.119 219.852 105.349C220.255 105.58 220.567 105.913 220.787 106.35C221.011 106.787 221.121 107.317 221.117 107.94V112.908H219.278V108.225C219.278 107.703 219.143 107.295 218.872 107C218.604 106.706 218.234 106.558 217.759 106.558C217.438 106.558 217.152 106.629 216.901 106.772C216.654 106.911 216.459 107.112 216.317 107.376C216.178 107.64 216.108 107.96 216.108 108.336Z" fill="#0F0F0F"/>
<path d="M205.336 112.908H203.324L206.987 102.504H209.313L212.981 112.908H210.969L208.191 104.637H208.11L205.336 112.908ZM205.402 108.828H210.888V110.342H205.402V108.828Z" fill="#0F0F0F"/>
<path d="M191.43 115.834V105.106H193.238V106.396H193.345C193.44 106.206 193.573 106.005 193.746 105.791C193.919 105.575 194.153 105.39 194.447 105.238C194.742 105.082 195.118 105.004 195.575 105.004C196.178 105.004 196.721 105.158 197.206 105.466C197.693 105.771 198.079 106.223 198.364 106.823C198.652 107.419 198.796 108.15 198.796 109.017C198.796 109.874 198.655 110.602 198.374 111.201C198.093 111.801 197.71 112.258 197.226 112.573C196.742 112.888 196.193 113.045 195.58 113.045C195.133 113.045 194.762 112.971 194.467 112.822C194.173 112.673 193.936 112.493 193.756 112.283C193.58 112.07 193.443 111.869 193.345 111.679H193.269V115.834H191.43ZM193.233 109.007C193.233 109.511 193.304 109.953 193.446 110.333C193.592 110.712 193.8 111.008 194.071 111.222C194.346 111.432 194.677 111.537 195.067 111.537C195.473 111.537 195.814 111.428 196.088 111.212C196.362 110.991 196.569 110.692 196.708 110.312C196.85 109.93 196.921 109.495 196.921 109.007C196.921 108.523 196.852 108.092 196.713 107.717C196.574 107.341 196.367 107.046 196.093 106.833C195.819 106.619 195.477 106.513 195.067 106.513C194.674 106.513 194.34 106.616 194.066 106.823C193.792 107.029 193.584 107.319 193.441 107.691C193.302 108.064 193.233 108.502 193.233 109.007Z" fill="#0F0F0F"/>
<path d="M186.129 113.061C185.367 113.061 184.707 112.893 184.148 112.558C183.589 112.222 183.156 111.753 182.848 111.151C182.543 110.548 182.391 109.843 182.391 109.037C182.391 108.231 182.543 107.525 182.848 106.919C183.156 106.313 183.589 105.842 184.148 105.507C184.707 105.172 185.367 105.004 186.129 105.004C186.891 105.004 187.552 105.172 188.111 105.507C188.669 105.842 189.101 106.313 189.406 106.919C189.714 107.525 189.868 108.231 189.868 109.037C189.868 109.843 189.714 110.548 189.406 111.151C189.101 111.753 188.669 112.222 188.111 112.558C187.552 112.893 186.891 113.061 186.129 113.061ZM186.14 111.587C186.553 111.587 186.898 111.474 187.176 111.247C187.454 111.017 187.66 110.709 187.796 110.323C187.935 109.937 188.004 109.506 188.004 109.032C188.004 108.555 187.935 108.123 187.796 107.737C187.66 107.347 187.454 107.038 187.176 106.807C186.898 106.577 186.553 106.462 186.14 106.462C185.716 106.462 185.364 106.577 185.083 106.807C184.805 107.038 184.597 107.347 184.458 107.737C184.323 108.123 184.255 108.555 184.255 109.032C184.255 109.506 184.323 109.937 184.458 110.323C184.597 110.709 184.805 111.017 185.083 111.247C185.364 111.474 185.716 111.587 186.14 111.587Z" fill="#0F0F0F"/>
<path d="M180.835 102.504V112.908H178.996V102.504H180.835Z" fill="#0F0F0F"/>
<path d="M173.971 113.061C173.189 113.061 172.513 112.898 171.944 112.573C171.379 112.244 170.944 111.781 170.639 111.181C170.334 110.578 170.182 109.869 170.182 109.053C170.182 108.25 170.334 107.546 170.639 106.939C170.947 106.33 171.377 105.856 171.929 105.517C172.481 105.175 173.13 105.004 173.875 105.004C174.356 105.004 174.809 105.082 175.236 105.238C175.666 105.39 176.046 105.627 176.374 105.949C176.706 106.27 176.967 106.68 177.156 107.178C177.346 107.673 177.441 108.262 177.441 108.946V109.51H171.045V108.27H175.678C175.675 107.918 175.599 107.605 175.45 107.331C175.301 107.053 175.092 106.834 174.825 106.675C174.561 106.516 174.252 106.436 173.9 106.436C173.524 106.436 173.194 106.528 172.91 106.711C172.625 106.89 172.403 107.127 172.244 107.422C172.088 107.713 172.009 108.033 172.005 108.382V109.464C172.005 109.918 172.088 110.307 172.254 110.632C172.42 110.954 172.652 111.201 172.95 111.374C173.248 111.543 173.597 111.628 173.997 111.628C174.264 111.628 174.506 111.591 174.723 111.516C174.94 111.438 175.128 111.325 175.287 111.176C175.446 111.027 175.566 110.842 175.648 110.622L177.365 110.815C177.256 111.269 177.05 111.665 176.745 112.004C176.443 112.339 176.057 112.6 175.587 112.786C175.116 112.969 174.577 113.061 173.971 113.061Z" fill="#0F0F0F"/>
<path d="M169.509 105.105L166.731 112.908H164.699L161.92 105.105H163.881L165.674 110.902H165.755L167.554 105.105H169.509Z" fill="#0F0F0F"/>
<path d="M157.739 113.061C156.957 113.061 156.281 112.898 155.712 112.573C155.146 112.244 154.711 111.781 154.406 111.181C154.102 110.578 153.949 109.869 153.949 109.053C153.949 108.25 154.102 107.546 154.406 106.939C154.715 106.33 155.145 105.856 155.697 105.517C156.249 105.175 156.897 105.004 157.642 105.004C158.123 105.004 158.577 105.082 159.004 105.238C159.434 105.39 159.813 105.627 160.142 105.949C160.474 106.27 160.734 106.68 160.924 107.178C161.114 107.673 161.208 108.262 161.208 108.946V109.51H154.813V108.27H159.446C159.442 107.918 159.366 107.605 159.217 107.331C159.068 107.053 158.86 106.834 158.592 106.675C158.328 106.516 158.02 106.436 157.668 106.436C157.292 106.436 156.962 106.528 156.677 106.711C156.393 106.89 156.171 107.127 156.012 107.422C155.856 107.713 155.776 108.033 155.773 108.382V109.464C155.773 109.918 155.856 110.307 156.022 110.632C156.188 110.954 156.42 111.201 156.718 111.374C157.016 111.543 157.365 111.628 157.764 111.628C158.032 111.628 158.274 111.591 158.491 111.516C158.707 111.438 158.895 111.325 159.055 111.176C159.214 111.027 159.334 110.842 159.415 110.622L161.132 110.815C161.024 111.269 160.817 111.665 160.512 112.004C160.211 112.339 159.825 112.6 159.354 112.786C158.884 112.969 158.345 113.061 157.739 113.061Z" fill="#0F0F0F"/>
<path d="M147.525 112.908H144V102.504H147.597C148.629 102.504 149.517 102.712 150.258 103.129C151.004 103.542 151.576 104.136 151.975 104.912C152.375 105.687 152.575 106.615 152.575 107.696C152.575 108.779 152.373 109.711 151.97 110.49C151.571 111.268 150.993 111.866 150.238 112.283C149.486 112.699 148.582 112.908 147.525 112.908ZM145.885 111.277H147.434C148.159 111.277 148.763 111.145 149.248 110.881C149.732 110.613 150.096 110.215 150.34 109.687C150.584 109.155 150.705 108.491 150.705 107.696C150.705 106.9 150.584 106.239 150.34 105.714C150.096 105.186 149.735 104.792 149.258 104.531C148.784 104.267 148.194 104.135 147.49 104.135H145.885V111.277Z" fill="#0F0F0F"/>
<path d="M381.793 70.6306V69.2757C381.793 64.872 382.668 61.1175 384.418 58.0124C386.168 54.8507 388.483 52.4513 391.363 50.814C394.298 49.1203 397.488 48.2734 400.932 48.2734C404.771 48.2734 407.679 48.9509 409.655 50.3059C411.631 51.6609 413.07 53.0723 413.974 54.5402H415.498V49.459H425.999V103.916C425.999 106.795 425.152 109.082 423.459 110.775C421.765 112.526 419.507 113.401 416.684 113.401H402.5V104.085H412.958C414.538 104.085 415.329 103.238 415.329 101.545V85.6201H413.804C413.24 86.5234 412.449 87.455 411.433 88.4148C410.417 89.3181 409.062 90.0803 407.368 90.7013C405.674 91.3223 403.529 91.6328 400.932 91.6328C397.488 91.6328 394.298 90.8142 391.363 89.1769C388.483 87.4832 386.168 85.0838 384.418 81.9786C382.668 78.817 381.793 75.0343 381.793 70.6306ZM403.981 82.3174C407.255 82.3174 409.994 81.2729 412.195 79.184C414.397 77.095 415.498 74.1592 415.498 70.3766V69.5297C415.498 65.6906 414.397 62.7548 412.195 60.7223C410.05 58.6334 407.312 57.5889 403.981 57.5889C400.706 57.5889 397.968 58.6334 395.766 60.7223C393.564 62.7548 392.463 65.6906 392.463 69.5297V70.3766C392.463 74.1592 393.564 77.095 395.766 79.184C397.968 81.2729 400.706 82.3174 403.981 82.3174Z" fill="#0F0F0F"/>
<path d="M331.643 91.4632V49.4587H342.144V54.9634H343.668C344.346 53.4955 345.616 52.1122 347.479 50.8137C349.342 49.4587 352.165 48.7812 355.948 48.7812C359.222 48.7812 362.073 49.5434 364.501 51.0678C366.985 52.5357 368.905 54.5964 370.26 57.2499C371.615 59.8469 372.292 62.8956 372.292 66.396V91.4632H361.622V67.2429C361.622 64.0813 360.831 61.71 359.25 60.1292C357.726 58.5484 355.524 57.758 352.645 57.758C349.37 57.758 346.83 58.8589 345.023 61.0608C343.216 63.2062 342.313 66.2266 342.313 70.1222V91.4632H331.643Z" fill="#0F0F0F"/>
<path d="M295.726 92.6491C292.734 92.6491 290.052 92.141 287.681 91.1247C285.31 90.052 283.419 88.5277 282.007 86.5517C280.652 84.5192 279.975 82.0633 279.975 79.184C279.975 76.3046 280.652 73.9052 282.007 71.9856C283.419 70.0096 285.338 68.5417 287.766 67.5819C290.25 66.5657 293.073 66.0576 296.234 66.0576H307.752V63.6864C307.752 61.7103 307.131 60.1013 305.889 58.8592C304.647 57.5607 302.671 56.9114 299.961 56.9114C297.307 56.9114 295.331 57.5325 294.033 58.7745C292.734 59.9602 291.887 61.5127 291.492 63.4323L281.668 60.1295C282.346 57.9841 283.419 56.0364 284.886 54.2862C286.411 52.4795 288.415 51.0399 290.899 49.9672C293.44 48.838 296.517 48.2734 300.13 48.2734C305.663 48.2734 310.038 49.6566 313.256 52.4231C316.474 55.1895 318.083 59.198 318.083 64.4485V80.1155C318.083 81.8092 318.874 82.6561 320.455 82.6561H323.842V91.4635H316.728C314.64 91.4635 312.918 90.9554 311.563 89.9391C310.208 88.9229 309.53 87.5679 309.53 85.8742V85.7895H307.921C307.695 86.467 307.187 87.3703 306.397 88.4995C305.606 89.5721 304.364 90.5319 302.671 91.3788C300.977 92.2257 298.662 92.6491 295.726 92.6491ZM297.589 84.0111C300.582 84.0111 303.009 83.1924 304.872 81.5552C306.792 79.8614 307.752 77.6314 307.752 74.865V74.0181H296.997C295.021 74.0181 293.468 74.4415 292.339 75.2884C291.21 76.1352 290.645 77.3209 290.645 78.8452C290.645 80.3696 291.238 81.6116 292.424 82.5714C293.609 83.5312 295.331 84.0111 297.589 84.0111Z" fill="#0F0F0F"/>
<path d="M255.352 91.462V57.0149H244.279V47.8758H255.352V39.7913C255.352 36.8035 256.23 34.4309 257.988 32.6734C259.804 30.8573 262.147 29.9492 265.018 29.9492H276.442V39.0883H268.884C267.244 39.0883 266.424 39.967 266.424 41.7245V47.8758H277.848V57.0149H266.424V91.462H255.352Z" fill="#0F0F0F"/>
<path d="M221.574 92.6491C217.396 92.6491 213.698 91.774 210.48 90.0238C207.318 88.2172 204.834 85.7048 203.028 82.4867C201.277 79.2122 200.402 75.3731 200.402 70.9694V69.9531C200.402 65.5495 201.277 61.7386 203.028 58.5205C204.778 55.2459 207.234 52.7336 210.395 50.9834C213.557 49.1768 217.227 48.2734 221.405 48.2734C225.526 48.2734 229.111 49.205 232.16 51.0681C235.208 52.8747 237.58 55.4153 239.273 58.6899C240.967 61.9079 241.814 65.6624 241.814 69.9531V73.5947H211.242C211.355 76.474 212.428 78.817 214.46 80.6236C216.493 82.4303 218.977 83.3336 221.913 83.3336C224.905 83.3336 227.107 82.6843 228.518 81.3858C229.93 80.0873 231.002 78.6476 231.736 77.0668L240.459 81.6399C239.669 83.1078 238.511 84.7168 236.987 86.467C235.519 88.1607 233.543 89.6286 231.059 90.8707C228.575 92.0563 225.413 92.6491 221.574 92.6491ZM211.327 65.6341H230.974C230.748 63.2065 229.76 61.2587 228.01 59.7908C226.316 58.3229 224.086 57.5889 221.32 57.5889C218.441 57.5889 216.154 58.3229 214.46 59.7908C212.767 61.2587 211.722 63.2065 211.327 65.6341Z" fill="#0F0F0F"/>
<path d="M144 91.4601V81.6365H151.791V42.0033H144V32.1797H168.39C176.35 32.1797 182.391 34.2122 186.513 38.2771C190.69 42.2856 192.779 48.2701 192.779 56.2306V67.4092C192.779 75.3697 190.69 81.3825 186.513 85.4474C182.391 89.4559 176.35 91.4601 168.39 91.4601H144ZM162.97 81.2978H168.559C173.076 81.2978 176.378 80.1122 178.467 77.7409C180.556 75.3697 181.601 72.0387 181.601 67.748V55.8919C181.601 51.5446 180.556 48.2136 178.467 45.8989C176.378 43.5277 173.076 42.342 168.559 42.342H162.97V81.2978Z" fill="#0F0F0F"/>
<g clip-path="url(#clip0_762_11910)">
<path d="M42.0057 18.0534L14.6743 33.6477C11.1542 35.6592 8.98755 39.4093 9.00895 43.4644L9.16944 74.9311C9.18014 76.5681 11.3468 77.1459 12.1653 75.7229L44.1937 20.2521C45.0122 18.8345 43.4287 17.2456 42.0111 18.0534H42.0057Z" fill="#AA6EFF"/>
<path d="M95.3317 33.6543L68.0002 18.06C66.5772 17.2469 64.9937 18.8357 65.8176 20.2588L97.846 75.7295C98.6645 77.1472 100.831 76.5748 100.842 74.9378L101.002 43.471C101.024 39.4159 98.8571 35.6658 95.3371 33.6543H95.3317Z" fill="#AA6EFF"/>
<path d="M57.3164 26.0307C56.621 24.8217 55.4654 24.6933 55 24.6933C54.5346 24.6933 53.3791 24.8217 52.6836 26.0307L25.2879 73.4824C24.4266 74.9749 25.2612 76.1839 25.5394 76.521C25.8175 76.858 26.8447 77.9119 28.471 77.3502L50.8273 69.6734C53.5128 68.7532 56.4765 68.7479 59.1674 69.6734L81.5237 77.3502C83.15 77.9119 84.1825 76.858 84.4553 76.521C84.7335 76.1839 85.568 74.9749 84.7067 73.4824L57.3111 26.0307H57.3164Z" fill="#4C8BFF"/>
<path d="M103.58 26.0635L61.4196 1.72249C57.4448 -0.572517 52.5552 -0.572517 48.5804 1.72249L6.41961 26.0635C2.4448 28.3532 0 32.5955 0 37.1801V85.8622C0 90.4468 2.4448 94.6891 6.41961 96.9788L48.5804 121.32C52.5552 123.615 57.4448 123.615 61.4196 121.32L103.58 96.9788C107.555 94.6838 110 90.4468 110 85.8622V37.1801C110 32.5955 107.555 28.3532 103.58 26.0635ZM57.3164 26.0314L84.7121 73.483C85.5734 74.9756 84.7388 76.1846 84.4606 76.5216C84.1825 76.8587 83.1553 77.9125 81.529 77.3508L59.1727 69.674C56.4819 68.7486 53.5235 68.7486 50.8326 69.674L28.4763 77.3508C26.85 77.9125 25.8175 76.8587 25.5447 76.5216C25.2665 76.1846 24.432 74.9756 25.2933 73.483L52.6889 26.0314C53.3844 24.8224 54.5399 24.694 55.0053 24.694C55.4708 24.694 56.6263 24.8224 57.3218 26.0314H57.3164ZM9.16399 74.9328L9.0035 43.466C8.9821 39.4109 11.1487 35.6608 14.6688 33.6493L42.0003 18.055C43.4233 17.2419 45.0068 18.8308 44.183 20.2538L12.1545 75.7245C11.336 77.1422 9.16934 76.5698 9.15864 74.9328H9.16399ZM87.7721 93.9723L61.1735 108.545C57.3325 110.653 52.6782 110.653 48.8318 108.545L22.2332 93.9723C20.623 93.0896 20.7995 90.725 22.5168 90.0884L50.5437 79.7154C53.4218 78.6508 56.5835 78.6508 59.4563 79.7154L87.4832 90.0884C89.2058 90.725 89.377 93.0896 87.7667 93.9723H87.7721ZM100.836 74.9381C100.825 76.5751 98.6587 77.1475 97.8402 75.7299L65.8117 20.2591C64.9932 18.8414 66.5767 17.2526 67.9944 18.0604L95.3258 33.6547C98.8459 35.6662 101.013 39.4163 100.991 43.4713L100.831 74.9381H100.836Z" fill="#0F0F0F"/>
<path d="M87.4835 90.0866L59.4565 79.7136C56.5784 78.649 53.4167 78.649 50.544 79.7136L22.517 90.0866C20.7944 90.7233 20.6232 93.0878 22.2335 93.9705L48.8321 108.543C52.6731 110.651 57.3273 110.651 61.1738 108.543L87.7723 93.9705C89.3826 93.0878 89.206 90.7233 87.4888 90.0866H87.4835Z" fill="#9CC4FF"/>
</g>
<defs>
<clipPath id="clip0_762_11910">
<rect width="110" height="123.048" fill="white"/>
</clipPath>
</defs>
</svg>
