<svg width="426" height="125" viewBox="0 0 426 125" fill="none" xmlns="http://www.w3.org/2000/svg">
<g clip-path="url(#clip0_762_12090)">
<path d="M103.58 27.0427L61.4196 2.70173C57.4448 0.406716 52.5552 0.406716 48.5804 2.70173L6.41961 27.0427C2.4448 29.3324 0 33.5747 0 38.1594V86.8414C0 91.4314 2.4448 95.6684 6.41961 97.958L48.5804 122.299C52.5552 124.594 57.4448 124.594 61.4196 122.299L103.58 97.958C107.555 95.663 110 91.4261 110 86.8414V38.1594C110 33.5747 107.555 29.3324 103.58 27.0427ZM51.298 26.2082C52.0737 24.8708 53.4593 24.0683 55.0053 24.0683C56.5514 24.0683 57.937 24.8708 58.7127 26.2082L86.1084 73.6598C87.0124 75.2219 86.852 77.1264 85.7071 78.5173C84.8726 79.5284 83.6689 80.0794 82.4224 80.0794C81.9517 80.0794 81.4809 80.0045 81.0155 79.844L58.6592 72.1672C56.3053 71.3594 53.7161 71.3594 51.3622 72.1672L29.0059 79.844C27.2994 80.4271 25.4591 79.9082 24.3143 78.5173C23.1694 77.1264 23.0089 75.2166 23.913 73.6598L51.3087 26.2082H51.298ZM10.801 78.0465C10.6084 78.0465 10.4158 78.0198 10.2232 77.9716C9.26029 77.7148 8.63437 76.9071 8.62902 75.912L8.46853 44.4452C8.44713 40.2029 10.7207 36.2656 14.4067 34.1632L41.7382 18.5689C42.5994 18.0767 43.6159 18.2104 44.3167 18.9166C45.0175 19.6227 45.1512 20.6338 44.6537 21.4951L12.6252 76.9659C12.2294 77.6506 11.5499 78.0412 10.801 78.0412V78.0465ZM88.0289 95.4223L61.4303 109.995C59.4188 111.097 57.2094 111.648 55.0053 111.648C52.8013 111.648 50.5919 111.097 48.5804 109.995L21.9818 95.4223C21.051 94.914 20.5213 93.9404 20.6016 92.8812C20.6818 91.8219 21.3452 90.9392 22.3402 90.5701L50.3672 80.1971C53.363 79.0897 56.6584 79.0897 59.6542 80.1971L87.6811 90.5701C88.6762 90.9392 89.3395 91.8219 89.4198 92.8812C89.5 93.9404 88.9704 94.914 88.0396 95.4223H88.0289ZM101.371 75.9174C101.371 76.9124 100.74 77.7202 99.7821 77.977C99.5895 78.0305 99.3916 78.0519 99.2043 78.0519C98.4554 78.0519 97.776 77.6614 97.3801 76.9766L65.3516 21.5058C64.8541 20.6445 64.9878 19.6334 65.6886 18.9273C66.3895 18.2211 67.4005 18.0874 68.2672 18.5796L95.5987 34.1739C99.2846 36.2763 101.558 40.2136 101.537 44.4559L101.376 75.9227L101.371 75.9174Z" fill="white"/>
</g>
<path d="M390.963 114.061C390.181 114.061 389.506 113.898 388.937 113.573C388.371 113.244 387.936 112.781 387.631 112.181C387.326 111.578 387.174 110.869 387.174 110.053C387.174 109.25 387.326 108.546 387.631 107.939C387.939 107.33 388.369 106.856 388.921 106.517C389.473 106.175 390.122 106.004 390.867 106.004C391.348 106.004 391.802 106.082 392.228 106.238C392.658 106.39 393.038 106.627 393.366 106.949C393.698 107.27 393.959 107.68 394.149 108.178C394.338 108.673 394.433 109.262 394.433 109.946V110.51H388.037V109.27H392.67C392.667 108.918 392.591 108.605 392.442 108.331C392.293 108.053 392.084 107.834 391.817 107.675C391.553 107.516 391.245 107.436 390.892 107.436C390.516 107.436 390.186 107.528 389.902 107.711C389.617 107.89 389.395 108.127 389.236 108.422C389.08 108.713 389.001 109.033 388.998 109.382V110.464C388.998 110.918 389.08 111.307 389.246 111.632C389.412 111.954 389.644 112.201 389.942 112.374C390.24 112.543 390.589 112.628 390.989 112.628C391.256 112.628 391.499 112.591 391.715 112.516C391.932 112.438 392.12 112.325 392.279 112.176C392.438 112.027 392.559 111.842 392.64 111.622L394.357 111.815C394.248 112.269 394.042 112.665 393.737 113.004C393.436 113.339 393.05 113.6 392.579 113.786C392.108 113.969 391.57 114.061 390.963 114.061Z" fill="white"/>
<path d="M382.158 113.907V106.104H383.941V107.404H384.023C384.165 106.954 384.409 106.607 384.754 106.363C385.103 106.116 385.501 105.992 385.948 105.992C386.049 105.992 386.163 105.997 386.288 106.007C386.417 106.014 386.524 106.026 386.608 106.043V107.735C386.53 107.708 386.407 107.684 386.237 107.663C386.071 107.64 385.911 107.628 385.755 107.628C385.42 107.628 385.118 107.701 384.851 107.846C384.586 107.989 384.378 108.187 384.226 108.441C384.073 108.695 383.997 108.988 383.997 109.32V113.907H382.158Z" fill="white"/>
<path d="M377.133 114.061C376.351 114.061 375.675 113.898 375.106 113.573C374.541 113.244 374.106 112.781 373.801 112.181C373.496 111.578 373.344 110.869 373.344 110.053C373.344 109.25 373.496 108.546 373.801 107.939C374.109 107.33 374.539 106.856 375.091 106.517C375.643 106.175 376.292 106.004 377.037 106.004C377.518 106.004 377.972 106.082 378.398 106.238C378.828 106.39 379.208 106.627 379.536 106.949C379.868 107.27 380.129 107.68 380.318 108.178C380.508 108.673 380.603 109.262 380.603 109.946V110.51H374.207V109.27H378.84C378.837 108.918 378.761 108.605 378.612 108.331C378.463 108.053 378.254 107.834 377.987 107.675C377.723 107.516 377.414 107.436 377.062 107.436C376.686 107.436 376.356 107.528 376.072 107.711C375.787 107.89 375.565 108.127 375.406 108.422C375.25 108.713 375.171 109.033 375.167 109.382V110.464C375.167 110.918 375.25 111.307 375.416 111.632C375.582 111.954 375.814 112.201 376.112 112.374C376.41 112.543 376.759 112.628 377.159 112.628C377.426 112.628 377.668 112.591 377.885 112.516C378.102 112.438 378.29 112.325 378.449 112.176C378.608 112.027 378.728 111.842 378.81 111.622L380.527 111.815C380.418 112.269 380.212 112.665 379.907 113.004C379.606 113.339 379.22 113.6 378.749 113.786C378.278 113.969 377.74 114.061 377.133 114.061Z" fill="white"/>
<path d="M366.745 109.336V113.908H364.906V103.504H366.705V107.431H366.796C366.979 106.99 367.262 106.643 367.644 106.389C368.03 106.132 368.521 106.003 369.117 106.003C369.659 106.003 370.132 106.117 370.535 106.344C370.938 106.57 371.249 106.902 371.469 107.339C371.693 107.776 371.805 108.31 371.805 108.939V113.908H369.966V109.224C369.966 108.699 369.83 108.291 369.559 108C369.292 107.705 368.916 107.558 368.432 107.558C368.107 107.558 367.815 107.629 367.558 107.771C367.304 107.91 367.104 108.111 366.959 108.376C366.816 108.64 366.745 108.96 366.745 109.336Z" fill="white"/>
<path d="M354.545 113.908L352.34 106.105H354.214L355.586 111.592H355.657L357.059 106.105H358.913L360.315 111.561H360.392L361.743 106.105H363.622L361.413 113.908H359.497L358.034 108.635H357.928L356.465 113.908H354.545Z" fill="white"/>
<path d="M345.835 116.834C345.584 116.834 345.352 116.814 345.139 116.773C344.929 116.736 344.761 116.692 344.636 116.641L345.063 115.209C345.33 115.287 345.569 115.324 345.779 115.32C345.989 115.317 346.174 115.251 346.333 115.122C346.495 114.997 346.633 114.787 346.744 114.492L346.902 114.071L344.072 106.105H346.023L347.821 111.998H347.903L349.706 106.105H351.662L348.538 114.853C348.392 115.266 348.199 115.62 347.958 115.915C347.718 116.213 347.423 116.44 347.074 116.595C346.729 116.755 346.316 116.834 345.835 116.834Z" fill="white"/>
<path d="M338.093 109.336V113.908H336.254V106.106H338.012V107.431H338.103C338.282 106.994 338.569 106.647 338.962 106.39C339.358 106.133 339.847 106.004 340.43 106.004C340.968 106.004 341.437 106.119 341.837 106.349C342.24 106.58 342.551 106.913 342.771 107.35C342.995 107.787 343.105 108.317 343.102 108.94V113.908H341.263V109.225C341.263 108.703 341.127 108.295 340.856 108C340.589 107.706 340.218 107.558 339.744 107.558C339.422 107.558 339.136 107.629 338.885 107.772C338.638 107.911 338.443 108.112 338.301 108.376C338.162 108.64 338.093 108.96 338.093 109.336Z" fill="white"/>
<path d="M327.32 113.908H325.309L328.971 103.504H331.298L334.966 113.908H332.954L330.175 105.637H330.094L327.32 113.908ZM327.386 109.828H332.873V111.342H327.386V109.828Z" fill="white"/>
<path d="M315.255 116.834C315.004 116.834 314.772 116.814 314.559 116.773C314.349 116.736 314.181 116.692 314.056 116.641L314.483 115.209C314.75 115.287 314.989 115.324 315.199 115.32C315.409 115.317 315.594 115.251 315.753 115.122C315.915 114.997 316.052 114.787 316.164 114.492L316.322 114.071L313.492 106.105H315.443L317.241 111.998H317.322L319.126 106.105H321.082L317.957 114.853C317.812 115.266 317.619 115.62 317.378 115.915C317.138 116.213 316.843 116.44 316.494 116.595C316.149 116.755 315.736 116.834 315.255 116.834Z" fill="white"/>
<path d="M309.079 114.061C308.317 114.061 307.656 113.893 307.097 113.558C306.539 113.222 306.105 112.753 305.797 112.151C305.492 111.548 305.34 110.843 305.34 110.037C305.34 109.231 305.492 108.525 305.797 107.919C306.105 107.313 306.539 106.842 307.097 106.507C307.656 106.172 308.317 106.004 309.079 106.004C309.841 106.004 310.501 106.172 311.06 106.507C311.619 106.842 312.05 107.313 312.355 107.919C312.663 108.525 312.817 109.231 312.817 110.037C312.817 110.843 312.663 111.548 312.355 112.151C312.05 112.753 311.619 113.222 311.06 113.558C310.501 113.893 309.841 114.061 309.079 114.061ZM309.089 112.587C309.502 112.587 309.847 112.474 310.125 112.247C310.403 112.017 310.609 111.709 310.745 111.323C310.884 110.937 310.953 110.506 310.953 110.032C310.953 109.555 310.884 109.123 310.745 108.737C310.609 108.347 310.403 108.038 310.125 107.807C309.847 107.577 309.502 107.462 309.089 107.462C308.665 107.462 308.313 107.577 308.032 107.807C307.754 108.038 307.546 108.347 307.407 108.737C307.272 109.123 307.204 109.555 307.204 110.032C307.204 110.506 307.272 110.937 307.407 111.323C307.546 111.709 307.754 112.017 308.032 112.247C308.313 112.474 308.665 112.587 309.089 112.587Z" fill="white"/>
<path d="M303.784 103.504V113.908H301.945V103.504H303.784Z" fill="white"/>
<path d="M293.004 116.834V106.106H294.812V107.396H294.919C295.014 107.206 295.148 107.005 295.32 106.791C295.493 106.575 295.727 106.39 296.021 106.238C296.316 106.082 296.692 106.004 297.149 106.004C297.752 106.004 298.295 106.158 298.78 106.466C299.267 106.771 299.654 107.223 299.938 107.823C300.226 108.419 300.37 109.15 300.37 110.017C300.37 110.874 300.229 111.602 299.948 112.201C299.667 112.801 299.284 113.258 298.8 113.573C298.316 113.888 297.767 114.045 297.154 114.045C296.707 114.045 296.336 113.971 296.042 113.822C295.747 113.673 295.51 113.493 295.331 113.283C295.154 113.07 295.017 112.869 294.919 112.679H294.843V116.834H293.004ZM294.807 110.007C294.807 110.511 294.878 110.953 295.021 111.333C295.166 111.712 295.375 112.008 295.645 112.222C295.92 112.432 296.252 112.537 296.641 112.537C297.048 112.537 297.388 112.428 297.662 112.212C297.937 111.991 298.143 111.692 298.282 111.312C298.424 110.93 298.495 110.495 298.495 110.007C298.495 109.523 298.426 109.092 298.287 108.717C298.148 108.341 297.942 108.046 297.667 107.833C297.393 107.619 297.051 107.513 296.641 107.513C296.248 107.513 295.915 107.616 295.64 107.823C295.366 108.029 295.158 108.319 295.016 108.691C294.877 109.064 294.807 109.502 294.807 110.007Z" fill="white"/>
<path d="M287.979 114.061C287.197 114.061 286.521 113.898 285.952 113.573C285.387 113.244 284.951 112.781 284.647 112.181C284.342 111.578 284.189 110.869 284.189 110.053C284.189 109.25 284.342 108.546 284.647 107.939C284.955 107.33 285.385 106.856 285.937 106.517C286.489 106.175 287.137 106.004 287.883 106.004C288.363 106.004 288.817 106.082 289.244 106.238C289.674 106.39 290.053 106.627 290.382 106.949C290.714 107.27 290.975 107.68 291.164 108.178C291.354 108.673 291.449 109.262 291.449 109.946V110.51H285.053V109.27H289.686C289.683 108.918 289.606 108.605 289.457 108.331C289.308 108.053 289.1 107.834 288.833 107.675C288.568 107.516 288.26 107.436 287.908 107.436C287.532 107.436 287.202 107.528 286.917 107.711C286.633 107.89 286.411 108.127 286.252 108.422C286.096 108.713 286.017 109.033 286.013 109.382V110.464C286.013 110.918 286.096 111.307 286.262 111.632C286.428 111.954 286.66 112.201 286.958 112.374C287.256 112.543 287.605 112.628 288.004 112.628C288.272 112.628 288.514 112.591 288.731 112.516C288.948 112.438 289.136 112.325 289.295 112.176C289.454 112.027 289.574 111.842 289.655 111.622L291.372 111.815C291.264 112.269 291.057 112.665 290.753 113.004C290.451 113.339 290.065 113.6 289.594 113.786C289.124 113.969 288.585 114.061 287.979 114.061Z" fill="white"/>
<path d="M277.766 113.908H274.24V103.504H277.837C278.87 103.504 279.757 103.712 280.499 104.129C281.244 104.542 281.816 105.136 282.216 105.912C282.615 106.687 282.815 107.615 282.815 108.696C282.815 109.779 282.614 110.711 282.211 111.49C281.811 112.268 281.234 112.866 280.478 113.283C279.727 113.699 278.822 113.908 277.766 113.908ZM276.125 112.277H277.674C278.399 112.277 279.004 112.145 279.488 111.881C279.972 111.613 280.336 111.215 280.58 110.687C280.824 110.155 280.946 109.491 280.946 108.696C280.946 107.9 280.824 107.239 280.58 106.714C280.336 106.186 279.975 105.792 279.498 105.531C279.024 105.267 278.435 105.135 277.73 105.135H276.125V112.277Z" fill="white"/>
<path d="M268.873 112.484L268.807 113.043C268.759 113.47 268.675 113.903 268.553 114.344C268.434 114.787 268.309 115.195 268.177 115.568C268.045 115.94 267.938 116.233 267.857 116.447H266.617C266.665 116.24 266.729 115.959 266.81 115.603C266.895 115.248 266.976 114.848 267.054 114.405C267.132 113.961 267.184 113.511 267.212 113.053L267.247 112.484H268.873Z" fill="white"/>
<path d="M261.167 116.997C260.506 116.997 259.939 116.907 259.465 116.728C258.991 116.552 258.61 116.314 258.322 116.016C258.034 115.718 257.834 115.388 257.722 115.026L259.378 114.625C259.453 114.777 259.561 114.928 259.704 115.077C259.846 115.229 260.037 115.354 260.278 115.453C260.521 115.554 260.828 115.605 261.197 115.605C261.719 115.605 262.15 115.478 262.492 115.224C262.834 114.973 263.005 114.56 263.005 113.984V112.506H262.914C262.819 112.696 262.68 112.891 262.497 113.09C262.318 113.29 262.079 113.458 261.781 113.593C261.487 113.729 261.116 113.796 260.669 113.796C260.069 113.796 259.526 113.656 259.038 113.375C258.554 113.09 258.168 112.667 257.88 112.105C257.595 111.539 257.453 110.832 257.453 109.981C257.453 109.125 257.595 108.402 257.88 107.812C258.168 107.22 258.555 106.771 259.043 106.466C259.531 106.158 260.074 106.004 260.674 106.004C261.131 106.004 261.507 106.082 261.802 106.238C262.1 106.39 262.337 106.575 262.513 106.791C262.689 107.005 262.823 107.206 262.914 107.396H263.016V106.106H264.829V114.035C264.829 114.702 264.67 115.254 264.352 115.691C264.033 116.128 263.598 116.455 263.046 116.672C262.494 116.888 261.868 116.997 261.167 116.997ZM261.182 112.354C261.571 112.354 261.903 112.259 262.177 112.069C262.452 111.88 262.66 111.607 262.802 111.251C262.945 110.896 263.016 110.469 263.016 109.971C263.016 109.48 262.945 109.05 262.802 108.681C262.663 108.312 262.457 108.026 262.183 107.823C261.912 107.616 261.578 107.513 261.182 107.513C260.772 107.513 260.43 107.619 260.156 107.833C259.881 108.046 259.675 108.339 259.536 108.712C259.397 109.081 259.328 109.501 259.328 109.971C259.328 110.449 259.397 110.867 259.536 111.226C259.678 111.582 259.886 111.859 260.161 112.059C260.438 112.256 260.779 112.354 261.182 112.354Z" fill="white"/>
<path d="M250.894 109.336V113.908H249.055V106.106H250.812V107.431H250.904C251.083 106.994 251.369 106.647 251.762 106.39C252.159 106.133 252.648 106.004 253.23 106.004C253.769 106.004 254.238 106.119 254.638 106.349C255.041 106.58 255.352 106.913 255.572 107.35C255.796 107.787 255.906 108.317 255.902 108.94V113.908H254.063V109.225C254.063 108.703 253.928 108.295 253.657 108C253.39 107.706 253.019 107.558 252.545 107.558C252.223 107.558 251.937 107.629 251.686 107.772C251.439 107.911 251.244 108.112 251.102 108.376C250.963 108.64 250.894 108.96 250.894 109.336Z" fill="white"/>
<path d="M245.326 113.907V106.104H247.165V113.907H245.326ZM246.25 104.996C245.959 104.996 245.709 104.9 245.499 104.707C245.289 104.51 245.184 104.275 245.184 104.001C245.184 103.723 245.289 103.488 245.499 103.295C245.709 103.098 245.959 103 246.25 103C246.545 103 246.796 103.098 247.002 103.295C247.212 103.488 247.317 103.723 247.317 104.001C247.317 104.275 247.212 104.51 247.002 104.707C246.796 104.9 246.545 104.996 246.25 104.996Z" fill="white"/>
<path d="M238.392 109.336V113.908H236.553V103.504H238.351V107.431H238.442C238.625 106.99 238.908 106.643 239.291 106.389C239.677 106.132 240.168 106.003 240.764 106.003C241.306 106.003 241.778 106.117 242.181 106.344C242.584 106.57 242.896 106.902 243.116 107.339C243.34 107.776 243.451 108.31 243.451 108.939V113.908H241.612V109.224C241.612 108.699 241.477 108.291 241.206 108C240.938 107.705 240.562 107.558 240.078 107.558C239.753 107.558 239.462 107.629 239.204 107.771C238.95 107.91 238.751 108.111 238.605 108.376C238.463 108.64 238.392 108.96 238.392 109.336Z" fill="white"/>
<path d="M234.847 106.104V107.526H230.361V106.104H234.847ZM231.469 104.234H233.308V111.56C233.308 111.807 233.345 111.996 233.419 112.129C233.497 112.257 233.599 112.345 233.724 112.393C233.85 112.44 233.988 112.464 234.141 112.464C234.256 112.464 234.361 112.455 234.456 112.438C234.554 112.422 234.628 112.406 234.679 112.393L234.989 113.83C234.891 113.864 234.75 113.901 234.568 113.942C234.388 113.983 234.168 114.006 233.907 114.013C233.447 114.027 233.032 113.957 232.663 113.805C232.293 113.649 232 113.409 231.784 113.084C231.57 112.758 231.465 112.352 231.469 111.864V104.234Z" fill="white"/>
<path d="M223.851 116.834C223.6 116.834 223.368 116.814 223.155 116.773C222.945 116.736 222.777 116.692 222.652 116.641L223.078 115.209C223.346 115.287 223.585 115.324 223.795 115.32C224.005 115.317 224.189 115.251 224.348 115.122C224.511 114.997 224.648 114.787 224.76 114.492L224.917 114.071L222.088 106.105H224.039L225.837 111.998H225.918L227.722 106.105H229.677L226.553 114.853C226.408 115.266 226.214 115.62 225.974 115.915C225.734 116.213 225.439 116.44 225.09 116.595C224.745 116.755 224.332 116.834 223.851 116.834Z" fill="white"/>
<path d="M216.108 109.336V113.908H214.27V106.106H216.027V107.431H216.119C216.298 106.994 216.584 106.647 216.977 106.39C217.373 106.133 217.863 106.004 218.445 106.004C218.984 106.004 219.453 106.119 219.852 106.349C220.255 106.58 220.567 106.913 220.787 107.35C221.011 107.787 221.121 108.317 221.117 108.94V113.908H219.278V109.225C219.278 108.703 219.143 108.295 218.872 108C218.604 107.706 218.234 107.558 217.759 107.558C217.438 107.558 217.152 107.629 216.901 107.772C216.654 107.911 216.459 108.112 216.317 108.376C216.178 108.64 216.108 108.96 216.108 109.336Z" fill="white"/>
<path d="M205.336 113.908H203.324L206.987 103.504H209.313L212.981 113.908H210.969L208.191 105.637H208.11L205.336 113.908ZM205.402 109.828H210.888V111.342H205.402V109.828Z" fill="white"/>
<path d="M191.43 116.834V106.106H193.238V107.396H193.345C193.44 107.206 193.573 107.005 193.746 106.791C193.919 106.575 194.153 106.39 194.447 106.238C194.742 106.082 195.118 106.004 195.575 106.004C196.178 106.004 196.721 106.158 197.206 106.466C197.693 106.771 198.079 107.223 198.364 107.823C198.652 108.419 198.796 109.15 198.796 110.017C198.796 110.874 198.655 111.602 198.374 112.201C198.093 112.801 197.71 113.258 197.226 113.573C196.742 113.888 196.193 114.045 195.58 114.045C195.133 114.045 194.762 113.971 194.467 113.822C194.173 113.673 193.936 113.493 193.756 113.283C193.58 113.07 193.443 112.869 193.345 112.679H193.269V116.834H191.43ZM193.233 110.007C193.233 110.511 193.304 110.953 193.446 111.333C193.592 111.712 193.8 112.008 194.071 112.222C194.346 112.432 194.677 112.537 195.067 112.537C195.473 112.537 195.814 112.428 196.088 112.212C196.362 111.991 196.569 111.692 196.708 111.312C196.85 110.93 196.921 110.495 196.921 110.007C196.921 109.523 196.852 109.092 196.713 108.717C196.574 108.341 196.367 108.046 196.093 107.833C195.819 107.619 195.477 107.513 195.067 107.513C194.674 107.513 194.34 107.616 194.066 107.823C193.792 108.029 193.584 108.319 193.441 108.691C193.302 109.064 193.233 109.502 193.233 110.007Z" fill="white"/>
<path d="M186.129 114.061C185.367 114.061 184.707 113.893 184.148 113.558C183.589 113.222 183.156 112.753 182.848 112.151C182.543 111.548 182.391 110.843 182.391 110.037C182.391 109.231 182.543 108.525 182.848 107.919C183.156 107.313 183.589 106.842 184.148 106.507C184.707 106.172 185.367 106.004 186.129 106.004C186.891 106.004 187.552 106.172 188.111 106.507C188.669 106.842 189.101 107.313 189.406 107.919C189.714 108.525 189.868 109.231 189.868 110.037C189.868 110.843 189.714 111.548 189.406 112.151C189.101 112.753 188.669 113.222 188.111 113.558C187.552 113.893 186.891 114.061 186.129 114.061ZM186.14 112.587C186.553 112.587 186.898 112.474 187.176 112.247C187.454 112.017 187.66 111.709 187.796 111.323C187.935 110.937 188.004 110.506 188.004 110.032C188.004 109.555 187.935 109.123 187.796 108.737C187.66 108.347 187.454 108.038 187.176 107.807C186.898 107.577 186.553 107.462 186.14 107.462C185.716 107.462 185.364 107.577 185.083 107.807C184.805 108.038 184.597 108.347 184.458 108.737C184.323 109.123 184.255 109.555 184.255 110.032C184.255 110.506 184.323 110.937 184.458 111.323C184.597 111.709 184.805 112.017 185.083 112.247C185.364 112.474 185.716 112.587 186.14 112.587Z" fill="white"/>
<path d="M180.835 103.504V113.908H178.996V103.504H180.835Z" fill="white"/>
<path d="M173.971 114.061C173.189 114.061 172.513 113.898 171.944 113.573C171.379 113.244 170.944 112.781 170.639 112.181C170.334 111.578 170.182 110.869 170.182 110.053C170.182 109.25 170.334 108.546 170.639 107.939C170.947 107.33 171.377 106.856 171.929 106.517C172.481 106.175 173.13 106.004 173.875 106.004C174.356 106.004 174.809 106.082 175.236 106.238C175.666 106.39 176.046 106.627 176.374 106.949C176.706 107.27 176.967 107.68 177.156 108.178C177.346 108.673 177.441 109.262 177.441 109.946V110.51H171.045V109.27H175.678C175.675 108.918 175.599 108.605 175.45 108.331C175.301 108.053 175.092 107.834 174.825 107.675C174.561 107.516 174.252 107.436 173.9 107.436C173.524 107.436 173.194 107.528 172.91 107.711C172.625 107.89 172.403 108.127 172.244 108.422C172.088 108.713 172.009 109.033 172.005 109.382V110.464C172.005 110.918 172.088 111.307 172.254 111.632C172.42 111.954 172.652 112.201 172.95 112.374C173.248 112.543 173.597 112.628 173.997 112.628C174.264 112.628 174.506 112.591 174.723 112.516C174.94 112.438 175.128 112.325 175.287 112.176C175.446 112.027 175.566 111.842 175.648 111.622L177.365 111.815C177.256 112.269 177.05 112.665 176.745 113.004C176.443 113.339 176.057 113.6 175.587 113.786C175.116 113.969 174.577 114.061 173.971 114.061Z" fill="white"/>
<path d="M169.509 106.105L166.731 113.908H164.699L161.92 106.105H163.881L165.674 111.902H165.755L167.554 106.105H169.509Z" fill="white"/>
<path d="M157.739 114.061C156.957 114.061 156.281 113.898 155.712 113.573C155.146 113.244 154.711 112.781 154.406 112.181C154.102 111.578 153.949 110.869 153.949 110.053C153.949 109.25 154.102 108.546 154.406 107.939C154.715 107.33 155.145 106.856 155.697 106.517C156.249 106.175 156.897 106.004 157.642 106.004C158.123 106.004 158.577 106.082 159.004 106.238C159.434 106.39 159.813 106.627 160.142 106.949C160.474 107.27 160.734 107.68 160.924 108.178C161.114 108.673 161.208 109.262 161.208 109.946V110.51H154.813V109.27H159.446C159.442 108.918 159.366 108.605 159.217 108.331C159.068 108.053 158.86 107.834 158.592 107.675C158.328 107.516 158.02 107.436 157.668 107.436C157.292 107.436 156.962 107.528 156.677 107.711C156.393 107.89 156.171 108.127 156.012 108.422C155.856 108.713 155.776 109.033 155.773 109.382V110.464C155.773 110.918 155.856 111.307 156.022 111.632C156.188 111.954 156.42 112.201 156.718 112.374C157.016 112.543 157.365 112.628 157.764 112.628C158.032 112.628 158.274 112.591 158.491 112.516C158.707 112.438 158.895 112.325 159.055 112.176C159.214 112.027 159.334 111.842 159.415 111.622L161.132 111.815C161.024 112.269 160.817 112.665 160.512 113.004C160.211 113.339 159.825 113.6 159.354 113.786C158.884 113.969 158.345 114.061 157.739 114.061Z" fill="white"/>
<path d="M147.525 113.908H144V103.504H147.597C148.629 103.504 149.517 103.712 150.258 104.129C151.004 104.542 151.576 105.136 151.975 105.912C152.375 106.687 152.575 107.615 152.575 108.696C152.575 109.779 152.373 110.711 151.97 111.49C151.571 112.268 150.993 112.866 150.238 113.283C149.486 113.699 148.582 113.908 147.525 113.908ZM145.885 112.277H147.434C148.159 112.277 148.763 112.145 149.248 111.881C149.732 111.613 150.096 111.215 150.34 110.687C150.584 110.155 150.705 109.491 150.705 108.696C150.705 107.9 150.584 107.239 150.34 106.714C150.096 106.186 149.735 105.792 149.258 105.531C148.784 105.267 148.194 105.135 147.49 105.135H145.885V112.277Z" fill="white"/>
<path d="M381.793 71.6306V70.2757C381.793 65.872 382.668 62.1175 384.418 59.0124C386.168 55.8507 388.483 53.4513 391.363 51.814C394.298 50.1203 397.488 49.2734 400.932 49.2734C404.771 49.2734 407.679 49.9509 409.655 51.3059C411.631 52.6609 413.07 54.0723 413.974 55.5402H415.498V50.459H425.999V104.916C425.999 107.795 425.152 110.082 423.459 111.775C421.765 113.526 419.507 114.401 416.684 114.401H402.5V105.085H412.958C414.538 105.085 415.329 104.238 415.329 102.545V86.6201H413.804C413.24 87.5234 412.449 88.455 411.433 89.4148C410.417 90.3181 409.062 91.0803 407.368 91.7013C405.674 92.3223 403.529 92.6328 400.932 92.6328C397.488 92.6328 394.298 91.8142 391.363 90.1769C388.483 88.4832 386.168 86.0838 384.418 82.9786C382.668 79.817 381.793 76.0343 381.793 71.6306ZM403.981 83.3174C407.255 83.3174 409.994 82.2729 412.195 80.184C414.397 78.095 415.498 75.1592 415.498 71.3766V70.5297C415.498 66.6906 414.397 63.7548 412.195 61.7223C410.05 59.6334 407.312 58.5889 403.981 58.5889C400.706 58.5889 397.968 59.6334 395.766 61.7223C393.564 63.7548 392.463 66.6906 392.463 70.5297V71.3766C392.463 75.1592 393.564 78.095 395.766 80.184C397.968 82.2729 400.706 83.3174 403.981 83.3174Z" fill="white"/>
<path d="M331.643 92.4632V50.4587H342.144V55.9634H343.668C344.346 54.4955 345.616 53.1122 347.479 51.8137C349.342 50.4587 352.165 49.7812 355.948 49.7812C359.222 49.7812 362.073 50.5434 364.501 52.0678C366.985 53.5357 368.905 55.5964 370.26 58.2499C371.615 60.8469 372.292 63.8956 372.292 67.396V92.4632H361.622V68.2429C361.622 65.0813 360.831 62.71 359.25 61.1292C357.726 59.5484 355.524 58.758 352.645 58.758C349.37 58.758 346.83 59.8589 345.023 62.0608C343.216 64.2062 342.313 67.2266 342.313 71.1222V92.4632H331.643Z" fill="white"/>
<path d="M295.726 93.6491C292.734 93.6491 290.052 93.141 287.681 92.1247C285.31 91.052 283.419 89.5277 282.007 87.5517C280.652 85.5192 279.975 83.0633 279.975 80.184C279.975 77.3046 280.652 74.9052 282.007 72.9856C283.419 71.0096 285.338 69.5417 287.766 68.5819C290.25 67.5657 293.073 67.0576 296.234 67.0576H307.752V64.6864C307.752 62.7103 307.131 61.1013 305.889 59.8592C304.647 58.5607 302.671 57.9114 299.961 57.9114C297.307 57.9114 295.331 58.5325 294.033 59.7745C292.734 60.9602 291.887 62.5127 291.492 64.4323L281.668 61.1295C282.346 58.9841 283.419 57.0364 284.886 55.2862C286.411 53.4795 288.415 52.0399 290.899 50.9672C293.44 49.838 296.517 49.2734 300.13 49.2734C305.663 49.2734 310.038 50.6566 313.256 53.4231C316.474 56.1895 318.083 60.198 318.083 65.4485V81.1155C318.083 82.8092 318.874 83.6561 320.455 83.6561H323.842V92.4635H316.728C314.64 92.4635 312.918 91.9554 311.563 90.9391C310.208 89.9229 309.53 88.5679 309.53 86.8742V86.7895H307.921C307.695 87.467 307.187 88.3703 306.397 89.4995C305.606 90.5721 304.364 91.5319 302.671 92.3788C300.977 93.2257 298.662 93.6491 295.726 93.6491ZM297.589 85.0111C300.582 85.0111 303.009 84.1924 304.872 82.5552C306.792 80.8614 307.752 78.6314 307.752 75.865V75.0181H296.997C295.021 75.0181 293.468 75.4415 292.339 76.2884C291.21 77.1352 290.645 78.3209 290.645 79.8452C290.645 81.3696 291.238 82.6116 292.423 83.5714C293.609 84.5312 295.331 85.0111 297.589 85.0111Z" fill="white"/>
<path d="M255.352 92.462V58.0149H244.279V48.8758H255.352V40.7913C255.352 37.8035 256.23 35.4309 257.988 33.6734C259.804 31.8573 262.147 30.9492 265.018 30.9492H276.442V40.0883H268.884C267.244 40.0883 266.424 40.967 266.424 42.7245V48.8758H277.848V58.0149H266.424V92.462H255.352Z" fill="white"/>
<path d="M221.574 93.6491C217.396 93.6491 213.698 92.774 210.48 91.0238C207.318 89.2172 204.834 86.7048 203.028 83.4867C201.277 80.2122 200.402 76.3731 200.402 71.9694V70.9531C200.402 66.5495 201.277 62.7386 203.028 59.5205C204.778 56.2459 207.234 53.7336 210.395 51.9834C213.557 50.1768 217.227 49.2734 221.405 49.2734C225.526 49.2734 229.111 50.205 232.16 52.0681C235.208 53.8747 237.58 56.4153 239.273 59.6899C240.967 62.9079 241.814 66.6624 241.814 70.9531V74.5947H211.242C211.355 77.474 212.428 79.817 214.46 81.6236C216.493 83.4303 218.977 84.3336 221.913 84.3336C224.905 84.3336 227.107 83.6843 228.518 82.3858C229.93 81.0873 231.002 79.6476 231.736 78.0668L240.459 82.6399C239.669 84.1078 238.511 85.7168 236.987 87.467C235.519 89.1607 233.543 90.6286 231.059 91.8707C228.575 93.0563 225.413 93.6491 221.574 93.6491ZM211.327 66.6341H230.974C230.748 64.2065 229.76 62.2587 228.01 60.7908C226.316 59.3229 224.086 58.5889 221.32 58.5889C218.441 58.5889 216.154 59.3229 214.46 60.7908C212.767 62.2587 211.722 64.2065 211.327 66.6341Z" fill="white"/>
<path d="M144 92.4601V82.6365H151.791V43.0033H144V33.1797H168.39C176.35 33.1797 182.391 35.2122 186.513 39.2771C190.69 43.2856 192.779 49.2701 192.779 57.2306V68.4092C192.779 76.3697 190.69 82.3825 186.513 86.4474C182.391 90.4559 176.35 92.4601 168.39 92.4601H144ZM162.97 82.2978H168.559C173.076 82.2978 176.378 81.1122 178.467 78.7409C180.556 76.3697 181.601 73.0387 181.601 68.748V56.8919C181.601 52.5446 180.556 49.2136 178.467 46.8989C176.378 44.5277 173.076 43.342 168.559 43.342H162.97V82.2978Z" fill="white"/>
<defs>
<clipPath id="clip0_762_12090">
<rect width="110" height="123.048" fill="white" transform="translate(0 0.984375)"/>
</clipPath>
</defs>
</svg>
