<svg width="426" height="124" viewBox="0 0 426 124" fill="none" xmlns="http://www.w3.org/2000/svg">
<path d="M381.793 70.6306V69.2757C381.793 64.872 382.668 61.1175 384.418 58.0124C386.168 54.8507 388.483 52.4513 391.363 50.814C394.298 49.1203 397.488 48.2734 400.932 48.2734C404.771 48.2734 407.679 48.9509 409.655 50.3059C411.631 51.6609 413.07 53.0723 413.974 54.5402H415.498V49.459H425.999V103.916C425.999 106.795 425.152 109.082 423.459 110.775C421.765 112.526 419.507 113.401 416.684 113.401H402.5V104.085H412.958C414.538 104.085 415.329 103.238 415.329 101.545V85.6201H413.804C413.24 86.5234 412.449 87.455 411.433 88.4148C410.417 89.3181 409.062 90.0803 407.368 90.7013C405.674 91.3223 403.529 91.6328 400.932 91.6328C397.488 91.6328 394.298 90.8142 391.363 89.1769C388.483 87.4832 386.168 85.0838 384.418 81.9786C382.668 78.817 381.793 75.0343 381.793 70.6306ZM403.981 82.3174C407.255 82.3174 409.994 81.2729 412.195 79.184C414.397 77.095 415.498 74.1592 415.498 70.3766V69.5297C415.498 65.6906 414.397 62.7548 412.195 60.7223C410.05 58.6334 407.312 57.5889 403.981 57.5889C400.706 57.5889 397.968 58.6334 395.766 60.7223C393.564 62.7548 392.463 65.6906 392.463 69.5297V70.3766C392.463 74.1592 393.564 77.095 395.766 79.184C397.968 81.2729 400.706 82.3174 403.981 82.3174Z" fill="#0F0F0F"/>
<path d="M331.643 91.4632V49.4587H342.144V54.9634H343.668C344.346 53.4955 345.616 52.1122 347.479 50.8137C349.342 49.4587 352.165 48.7812 355.948 48.7812C359.222 48.7812 362.073 49.5434 364.501 51.0678C366.985 52.5357 368.905 54.5964 370.26 57.2499C371.615 59.8469 372.292 62.8956 372.292 66.396V91.4632H361.622V67.2429C361.622 64.0813 360.831 61.71 359.25 60.1292C357.726 58.5484 355.524 57.758 352.645 57.758C349.37 57.758 346.83 58.8589 345.023 61.0608C343.216 63.2062 342.313 66.2266 342.313 70.1222V91.4632H331.643Z" fill="#0F0F0F"/>
<path d="M295.726 92.6491C292.734 92.6491 290.052 92.141 287.681 91.1247C285.31 90.052 283.419 88.5277 282.007 86.5517C280.652 84.5192 279.975 82.0633 279.975 79.184C279.975 76.3046 280.652 73.9052 282.007 71.9856C283.419 70.0096 285.338 68.5417 287.766 67.5819C290.25 66.5657 293.073 66.0576 296.234 66.0576H307.752V63.6864C307.752 61.7103 307.131 60.1013 305.889 58.8592C304.647 57.5607 302.671 56.9114 299.961 56.9114C297.307 56.9114 295.331 57.5325 294.033 58.7745C292.734 59.9602 291.887 61.5127 291.492 63.4323L281.668 60.1295C282.346 57.9841 283.419 56.0364 284.886 54.2862C286.411 52.4795 288.415 51.0399 290.899 49.9672C293.44 48.838 296.517 48.2734 300.13 48.2734C305.663 48.2734 310.038 49.6566 313.256 52.4231C316.474 55.1895 318.083 59.198 318.083 64.4485V80.1155C318.083 81.8092 318.874 82.6561 320.455 82.6561H323.842V91.4635H316.728C314.64 91.4635 312.918 90.9554 311.563 89.9391C310.208 88.9229 309.53 87.5679 309.53 85.8742V85.7895H307.921C307.695 86.467 307.187 87.3703 306.397 88.4995C305.606 89.5721 304.364 90.5319 302.671 91.3788C300.977 92.2257 298.662 92.6491 295.726 92.6491ZM297.589 84.0111C300.582 84.0111 303.009 83.1924 304.872 81.5552C306.792 79.8614 307.752 77.6314 307.752 74.865V74.0181H296.997C295.021 74.0181 293.468 74.4415 292.339 75.2884C291.21 76.1352 290.645 77.3209 290.645 78.8452C290.645 80.3696 291.238 81.6116 292.424 82.5714C293.609 83.5312 295.331 84.0111 297.589 84.0111Z" fill="#0F0F0F"/>
<path d="M255.352 91.462V57.0149H244.279V47.8758H255.352V39.7913C255.352 36.8035 256.23 34.4309 257.988 32.6734C259.804 30.8573 262.147 29.9492 265.018 29.9492H276.442V39.0883H268.884C267.244 39.0883 266.424 39.967 266.424 41.7245V47.8758H277.848V57.0149H266.424V91.462H255.352Z" fill="#0F0F0F"/>
<path d="M221.574 92.6491C217.396 92.6491 213.698 91.774 210.48 90.0238C207.318 88.2172 204.834 85.7048 203.028 82.4867C201.277 79.2122 200.402 75.3731 200.402 70.9694V69.9531C200.402 65.5495 201.277 61.7386 203.028 58.5205C204.778 55.2459 207.234 52.7336 210.395 50.9834C213.557 49.1768 217.227 48.2734 221.405 48.2734C225.526 48.2734 229.111 49.205 232.16 51.0681C235.208 52.8747 237.58 55.4153 239.273 58.6899C240.967 61.9079 241.814 65.6624 241.814 69.9531V73.5947H211.242C211.355 76.474 212.428 78.817 214.46 80.6236C216.493 82.4303 218.977 83.3336 221.913 83.3336C224.905 83.3336 227.107 82.6843 228.518 81.3858C229.93 80.0873 231.002 78.6476 231.736 77.0668L240.459 81.6399C239.669 83.1078 238.511 84.7168 236.987 86.467C235.519 88.1607 233.543 89.6286 231.059 90.8707C228.575 92.0563 225.413 92.6491 221.574 92.6491ZM211.327 65.6341H230.974C230.748 63.2065 229.76 61.2587 228.01 59.7908C226.316 58.3229 224.086 57.5889 221.32 57.5889C218.441 57.5889 216.154 58.3229 214.46 59.7908C212.767 61.2587 211.722 63.2065 211.327 65.6341Z" fill="#0F0F0F"/>
<path d="M144 91.4601V81.6365H151.791V42.0033H144V32.1797H168.39C176.35 32.1797 182.391 34.2122 186.513 38.2771C190.69 42.2856 192.779 48.2701 192.779 56.2306V67.4092C192.779 75.3697 190.69 81.3825 186.513 85.4474C182.391 89.4559 176.35 91.4601 168.39 91.4601H144ZM162.97 81.2978H168.559C173.076 81.2978 176.378 80.1122 178.467 77.7409C180.556 75.3697 181.601 72.0387 181.601 67.748V55.8919C181.601 51.5446 180.556 48.2136 178.467 45.8989C176.378 43.5277 173.076 42.342 168.559 42.342H162.97V81.2978Z" fill="#0F0F0F"/>
<path d="M301.263 105.386C301.215 104.939 301.014 104.59 300.658 104.34C300.306 104.091 299.848 103.966 299.284 103.966C298.888 103.966 298.548 104.026 298.264 104.146C297.98 104.265 297.763 104.428 297.613 104.633C297.462 104.838 297.386 105.072 297.382 105.335C297.382 105.554 297.432 105.743 297.531 105.904C297.633 106.065 297.772 106.201 297.946 106.314C298.12 106.424 298.314 106.516 298.525 106.591C298.737 106.666 298.951 106.729 299.166 106.781L300.151 107.027C300.547 107.119 300.928 107.244 301.294 107.401C301.663 107.558 301.993 107.756 302.283 107.996C302.577 108.235 302.81 108.524 302.98 108.862C303.151 109.2 303.237 109.597 303.237 110.051C303.237 110.667 303.08 111.208 302.765 111.677C302.451 112.141 301.996 112.505 301.401 112.769C300.81 113.028 300.094 113.158 299.253 113.158C298.437 113.158 297.727 113.032 297.126 112.779C296.528 112.526 296.06 112.157 295.721 111.671C295.386 111.186 295.205 110.595 295.178 109.898H297.049C297.076 110.263 297.189 110.568 297.387 110.81C297.586 111.053 297.844 111.234 298.161 111.354C298.483 111.473 298.842 111.533 299.238 111.533C299.652 111.533 300.014 111.472 300.325 111.348C300.639 111.222 300.885 111.048 301.063 110.826C301.241 110.6 301.331 110.337 301.335 110.036C301.331 109.763 301.251 109.537 301.094 109.359C300.937 109.178 300.716 109.028 300.432 108.908C300.152 108.785 299.824 108.676 299.448 108.58L298.254 108.273C297.389 108.05 296.705 107.714 296.203 107.263C295.704 106.808 295.455 106.205 295.455 105.453C295.455 104.834 295.622 104.293 295.957 103.828C296.295 103.363 296.755 103.002 297.336 102.746C297.917 102.486 298.575 102.356 299.31 102.356C300.055 102.356 300.708 102.486 301.268 102.746C301.832 103.002 302.275 103.36 302.596 103.818C302.917 104.272 303.083 104.795 303.093 105.386H301.263Z" fill="#0F0F0F"/>
<path d="M308.285 113.153C307.516 113.153 306.85 112.984 306.286 112.646C305.722 112.307 305.284 111.834 304.973 111.225C304.666 110.617 304.512 109.906 304.512 109.093C304.512 108.279 304.666 107.567 304.973 106.955C305.284 106.343 305.722 105.868 306.286 105.53C306.85 105.191 307.516 105.022 308.285 105.022C309.054 105.022 309.721 105.191 310.285 105.53C310.848 105.868 311.284 106.343 311.592 106.955C311.903 107.567 312.058 108.279 312.058 109.093C312.058 109.906 311.903 110.617 311.592 111.225C311.284 111.834 310.848 112.307 310.285 112.646C309.721 112.984 309.054 113.153 308.285 113.153ZM308.295 111.666C308.712 111.666 309.061 111.552 309.341 111.323C309.622 111.09 309.83 110.779 309.967 110.39C310.107 110 310.177 109.566 310.177 109.088C310.177 108.606 310.107 108.17 309.967 107.78C309.83 107.387 309.622 107.075 309.341 106.842C309.061 106.61 308.712 106.494 308.295 106.494C307.868 106.494 307.513 106.61 307.229 106.842C306.949 107.075 306.739 107.387 306.599 107.78C306.462 108.17 306.393 108.606 306.393 109.088C306.393 109.566 306.462 110 306.599 110.39C306.739 110.779 306.949 111.09 307.229 111.323C307.513 111.552 307.868 111.666 308.295 111.666Z" fill="#0F0F0F"/>
<path d="M317.622 105.125V106.56H312.967V105.125H317.622ZM314.131 112.999V104.381C314.131 103.852 314.24 103.411 314.459 103.059C314.681 102.707 314.978 102.444 315.351 102.269C315.723 102.095 316.137 102.008 316.592 102.008C316.913 102.008 317.198 102.033 317.448 102.085C317.697 102.136 317.882 102.182 318.001 102.223L317.632 103.659C317.554 103.635 317.455 103.611 317.335 103.587C317.215 103.559 317.082 103.546 316.935 103.546C316.59 103.546 316.345 103.63 316.202 103.797C316.062 103.961 315.992 104.197 315.992 104.504V112.999H314.131Z" fill="#0F0F0F"/>
<path d="M323.007 105.125V106.56H318.481V105.125H323.007ZM319.598 103.238H321.454V110.631C321.454 110.88 321.492 111.072 321.567 111.205C321.646 111.335 321.748 111.424 321.875 111.472C322.001 111.519 322.141 111.543 322.295 111.543C322.411 111.543 322.517 111.535 322.613 111.518C322.712 111.501 322.787 111.485 322.838 111.472L323.151 112.922C323.052 112.957 322.91 112.994 322.726 113.035C322.544 113.076 322.322 113.1 322.059 113.107C321.594 113.121 321.176 113.051 320.803 112.897C320.431 112.739 320.135 112.497 319.916 112.169C319.701 111.841 319.595 111.431 319.598 110.938V103.238Z" fill="#0F0F0F"/>
<path d="M326.185 112.999L323.96 105.125H325.851L327.236 110.662H327.307L328.722 105.125H330.594L332.009 110.631H332.085L333.449 105.125H335.346L333.116 112.999H331.183L329.707 107.678H329.599L328.123 112.999H326.185Z" fill="#0F0F0F"/>
<path d="M338.908 113.158C338.409 113.158 337.959 113.069 337.559 112.892C337.163 112.71 336.848 112.444 336.616 112.092C336.387 111.74 336.273 111.306 336.273 110.79C336.273 110.345 336.355 109.978 336.519 109.687C336.683 109.397 336.907 109.165 337.19 108.99C337.474 108.816 337.793 108.684 338.149 108.595C338.508 108.503 338.879 108.437 339.261 108.396C339.723 108.348 340.097 108.305 340.384 108.267C340.671 108.226 340.88 108.165 341.01 108.083C341.143 107.997 341.209 107.866 341.209 107.688V107.657C341.209 107.271 341.095 106.972 340.866 106.76C340.637 106.548 340.307 106.442 339.877 106.442C339.422 106.442 339.061 106.541 338.795 106.74C338.532 106.938 338.354 107.172 338.262 107.442L336.529 107.196C336.666 106.717 336.891 106.318 337.206 105.996C337.52 105.672 337.905 105.429 338.359 105.268C338.814 105.104 339.316 105.022 339.866 105.022C340.246 105.022 340.623 105.067 340.999 105.156C341.375 105.244 341.719 105.391 342.03 105.596C342.341 105.798 342.59 106.073 342.778 106.422C342.97 106.77 343.065 107.206 343.065 107.729V112.999H341.281V111.918H341.22C341.107 112.136 340.948 112.341 340.743 112.533C340.541 112.721 340.287 112.873 339.979 112.989C339.675 113.102 339.318 113.158 338.908 113.158ZM339.39 111.794C339.762 111.794 340.085 111.721 340.358 111.574C340.632 111.424 340.842 111.225 340.989 110.979C341.139 110.733 341.215 110.465 341.215 110.174V109.247C341.157 109.294 341.057 109.339 340.917 109.38C340.781 109.421 340.627 109.457 340.456 109.488C340.285 109.518 340.116 109.546 339.948 109.57C339.781 109.593 339.636 109.614 339.513 109.631C339.236 109.669 338.988 109.73 338.769 109.816C338.55 109.901 338.378 110.021 338.251 110.174C338.125 110.325 338.062 110.52 338.062 110.759C338.062 111.101 338.186 111.359 338.436 111.533C338.685 111.707 339.003 111.794 339.39 111.794Z" fill="#0F0F0F"/>
<path d="M344.931 112.999V105.125H346.731V106.437H346.813C346.956 105.983 347.202 105.632 347.551 105.386C347.903 105.137 348.305 105.012 348.756 105.012C348.858 105.012 348.973 105.017 349.099 105.027C349.229 105.034 349.337 105.046 349.422 105.063V106.77C349.344 106.743 349.219 106.719 349.048 106.699C348.881 106.675 348.718 106.663 348.561 106.663C348.223 106.663 347.918 106.736 347.648 106.883C347.382 107.027 347.172 107.227 347.018 107.483C346.864 107.739 346.787 108.035 346.787 108.37V112.999H344.931Z" fill="#0F0F0F"/>
<path d="M353.817 113.153C353.028 113.153 352.346 112.989 351.772 112.661C351.201 112.329 350.762 111.861 350.454 111.256C350.146 110.648 349.993 109.932 349.993 109.108C349.993 108.298 350.146 107.587 350.454 106.975C350.765 106.36 351.199 105.882 351.756 105.54C352.313 105.195 352.968 105.022 353.72 105.022C354.205 105.022 354.663 105.101 355.094 105.258C355.528 105.412 355.91 105.651 356.242 105.976C356.577 106.3 356.84 106.714 357.031 107.216C357.223 107.715 357.319 108.31 357.319 109V109.57H350.864V108.319H355.54C355.536 107.963 355.459 107.647 355.309 107.37C355.159 107.09 354.948 106.87 354.678 106.709C354.412 106.548 354.101 106.468 353.745 106.468C353.366 106.468 353.033 106.56 352.746 106.745C352.459 106.926 352.235 107.165 352.074 107.463C351.917 107.756 351.836 108.079 351.833 108.431V109.523C351.833 109.981 351.917 110.374 352.084 110.703C352.252 111.027 352.486 111.277 352.787 111.451C353.087 111.622 353.439 111.707 353.843 111.707C354.113 111.707 354.357 111.67 354.576 111.595C354.795 111.516 354.984 111.401 355.145 111.251C355.305 111.101 355.427 110.914 355.509 110.692L357.242 110.887C357.132 111.345 356.924 111.745 356.616 112.087C356.312 112.425 355.922 112.688 355.447 112.876C354.972 113.061 354.429 113.153 353.817 113.153Z" fill="#0F0F0F"/>
<path d="M362.552 112.999V102.5H364.453V111.405H369.078V112.999H362.552Z" fill="#0F0F0F"/>
<path d="M372.912 113.158C372.413 113.158 371.964 113.069 371.564 112.892C371.168 112.71 370.853 112.444 370.621 112.092C370.392 111.74 370.277 111.306 370.277 110.79C370.277 110.345 370.359 109.978 370.523 109.687C370.687 109.397 370.911 109.165 371.195 108.99C371.479 108.816 371.798 108.684 372.154 108.595C372.513 108.503 372.883 108.437 373.266 108.396C373.728 108.348 374.102 108.305 374.389 108.267C374.676 108.226 374.884 108.165 375.014 108.083C375.148 107.997 375.214 107.866 375.214 107.688V107.657C375.214 107.271 375.1 106.972 374.871 106.76C374.642 106.548 374.312 106.442 373.881 106.442C373.427 106.442 373.066 106.541 372.8 106.74C372.536 106.938 372.359 107.172 372.266 107.442L370.534 107.196C370.67 106.717 370.896 106.318 371.21 105.996C371.525 105.672 371.909 105.429 372.364 105.268C372.818 105.104 373.321 105.022 373.871 105.022C374.25 105.022 374.628 105.067 375.004 105.156C375.38 105.244 375.723 105.391 376.034 105.596C376.345 105.798 376.595 106.073 376.783 106.422C376.974 106.77 377.07 107.206 377.07 107.729V112.999H375.286V111.918H375.224C375.112 112.136 374.953 112.341 374.748 112.533C374.546 112.721 374.291 112.873 373.984 112.989C373.68 113.102 373.323 113.158 372.912 113.158ZM373.394 111.794C373.767 111.794 374.09 111.721 374.363 111.574C374.637 111.424 374.847 111.225 374.994 110.979C375.144 110.733 375.219 110.465 375.219 110.174V109.247C375.161 109.294 375.062 109.339 374.922 109.38C374.785 109.421 374.631 109.457 374.461 109.488C374.29 109.518 374.121 109.546 373.953 109.57C373.786 109.593 373.64 109.614 373.517 109.631C373.24 109.669 372.993 109.73 372.774 109.816C372.555 109.901 372.383 110.021 372.256 110.174C372.13 110.325 372.066 110.52 372.066 110.759C372.066 111.101 372.191 111.359 372.441 111.533C372.69 111.707 373.008 111.794 373.394 111.794Z" fill="#0F0F0F"/>
<path d="M379.018 112.999V102.5H380.874V106.427H380.951C381.047 106.236 381.182 106.032 381.356 105.817C381.53 105.598 381.766 105.412 382.063 105.258C382.361 105.101 382.74 105.022 383.201 105.022C383.81 105.022 384.358 105.178 384.847 105.489C385.339 105.796 385.729 106.253 386.016 106.858C386.306 107.459 386.452 108.197 386.452 109.072C386.452 109.937 386.31 110.672 386.026 111.277C385.743 111.882 385.356 112.343 384.868 112.661C384.379 112.979 383.825 113.138 383.207 113.138C382.755 113.138 382.381 113.062 382.084 112.912C381.787 112.762 381.547 112.581 381.366 112.369C381.188 112.153 381.05 111.95 380.951 111.759H380.843V112.999H379.018ZM380.838 109.062C380.838 109.571 380.91 110.017 381.053 110.4C381.2 110.783 381.411 111.082 381.684 111.297C381.961 111.509 382.296 111.615 382.689 111.615C383.099 111.615 383.442 111.506 383.719 111.287C383.996 111.065 384.205 110.762 384.345 110.38C384.488 109.993 384.56 109.554 384.56 109.062C384.56 108.573 384.49 108.139 384.35 107.76C384.21 107.38 384.001 107.083 383.724 106.868C383.448 106.653 383.102 106.545 382.689 106.545C382.292 106.545 381.956 106.649 381.679 106.858C381.402 107.066 381.192 107.358 381.048 107.734C380.908 108.11 380.838 108.553 380.838 109.062Z" fill="#0F0F0F"/>
<path d="M394.253 107.206L392.561 107.391C392.514 107.22 392.43 107.059 392.31 106.909C392.194 106.758 392.037 106.637 391.839 106.545C391.64 106.453 391.398 106.406 391.111 106.406C390.724 106.406 390.4 106.49 390.136 106.658C389.877 106.825 389.749 107.042 389.752 107.309C389.749 107.538 389.832 107.724 390.003 107.868C390.177 108.011 390.465 108.129 390.864 108.221L392.208 108.508C392.953 108.669 393.506 108.924 393.869 109.272C394.234 109.621 394.419 110.077 394.422 110.641C394.419 111.137 394.274 111.574 393.987 111.953C393.703 112.329 393.308 112.623 392.802 112.835C392.296 113.047 391.715 113.153 391.059 113.153C390.095 113.153 389.32 112.951 388.732 112.548C388.144 112.141 387.794 111.576 387.681 110.851L389.491 110.677C389.573 111.032 389.747 111.301 390.013 111.482C390.28 111.663 390.627 111.753 391.054 111.753C391.495 111.753 391.849 111.663 392.115 111.482C392.385 111.301 392.52 111.077 392.52 110.81C392.52 110.585 392.433 110.398 392.259 110.251C392.088 110.104 391.821 109.992 391.459 109.913L390.116 109.631C389.361 109.474 388.802 109.209 388.44 108.836C388.077 108.46 387.898 107.985 387.901 107.411C387.898 106.926 388.029 106.506 388.296 106.15C388.566 105.791 388.94 105.514 389.419 105.32C389.901 105.121 390.456 105.022 391.085 105.022C392.008 105.022 392.734 105.219 393.264 105.612C393.797 106.005 394.127 106.536 394.253 107.206Z" fill="#0F0F0F"/>
<g clip-path="url(#clip0_762_13004)">
<path d="M42.0057 18.0534L14.6743 33.6477C11.1542 35.6592 8.98755 39.4093 9.00895 43.4644L9.16944 74.9312C9.18014 76.5682 11.3468 77.1459 12.1653 75.7229L44.1938 20.2521C45.0123 18.8345 43.4287 17.2456 42.0111 18.0534H42.0057Z" fill="#AA6EFF"/>
<path d="M95.3315 33.6543L68 18.06C66.577 17.2469 64.9935 18.8357 65.8173 20.2588L97.8458 75.7295C98.6643 77.1472 100.831 76.5748 100.842 74.9378L101.002 43.471C101.024 39.4159 98.8569 35.6658 95.3368 33.6543H95.3315Z" fill="#AA6EFF"/>
<path d="M57.3164 26.0307C56.621 24.8217 55.4654 24.6933 55 24.6933C54.5346 24.6933 53.3791 24.8217 52.6836 26.0307L25.2879 73.4824C24.4266 74.9749 25.2612 76.1839 25.5394 76.521C25.8175 76.858 26.8447 77.9119 28.471 77.3502L50.8273 69.6734C53.5128 68.7533 56.4765 68.7479 59.1674 69.6734L81.5237 77.3502C83.15 77.9119 84.1825 76.858 84.4553 76.521C84.7335 76.1839 85.5681 74.9749 84.7068 73.4824L57.3111 26.0307H57.3164Z" fill="#4C8BFF"/>
<path d="M103.58 26.0635L61.4196 1.72249C57.4448 -0.572517 52.5552 -0.572517 48.5804 1.72249L6.41961 26.0635C2.4448 28.3532 0 32.5955 0 37.1801V85.8622C0 90.4468 2.4448 94.6891 6.41961 96.9788L48.5804 121.32C52.5552 123.615 57.4448 123.615 61.4196 121.32L103.58 96.9788C107.555 94.6838 110 90.4468 110 85.8622V37.1801C110 32.5955 107.555 28.3532 103.58 26.0635ZM57.3164 26.0314L84.7121 73.483C85.5734 74.9756 84.7389 76.1846 84.4607 76.5216C84.1825 76.8587 83.1553 77.9126 81.529 77.3508L59.1728 69.6741C56.4819 68.7486 53.5235 68.7486 50.8326 69.6741L28.4763 77.3508C26.85 77.9126 25.8175 76.8587 25.5447 76.5216C25.2665 76.1846 24.432 74.9756 25.2933 73.483L52.6889 26.0314C53.3844 24.8224 54.5399 24.694 55.0054 24.694C55.4708 24.694 56.6263 24.8224 57.3218 26.0314H57.3164ZM9.16399 74.9328L9.0035 43.466C8.9821 39.4109 11.1487 35.6608 14.6688 33.6494L42.0003 18.055C43.4233 17.2419 45.0068 18.8308 44.183 20.2538L12.1545 75.7245C11.336 77.1422 9.16934 76.5698 9.15864 74.9328H9.16399ZM87.7721 93.9723L61.1735 108.545C57.3325 110.653 52.6782 110.653 48.8318 108.545L22.2332 93.9723C20.623 93.0896 20.7995 90.725 22.5168 90.0884L50.5437 79.7154C53.4219 78.6508 56.5835 78.6508 59.4563 79.7154L87.4832 90.0884C89.2058 90.725 89.377 93.0896 87.7668 93.9723H87.7721ZM100.836 74.9381C100.825 76.5751 98.6587 77.1475 97.8402 75.7299L65.8117 20.2591C64.9932 18.8415 66.5767 17.2526 67.9944 18.0604L95.3259 33.6547C98.8459 35.6662 101.013 39.4163 100.991 43.4714L100.831 74.9381H100.836Z" fill="#0F0F0F"/>
<path d="M87.4835 90.0867L59.4565 79.7136C56.5784 78.6491 53.4167 78.6491 50.544 79.7136L22.517 90.0867C20.7944 90.7233 20.6232 93.0878 22.2335 93.9705L48.8321 108.543C52.6731 110.651 57.3273 110.651 61.1738 108.543L87.7723 93.9705C89.3826 93.0878 89.2061 90.7233 87.4888 90.0867H87.4835Z" fill="#9CC4FF"/>
</g>
<defs>
<clipPath id="clip0_762_13004">
<rect width="110" height="123.048" fill="white"/>
</clipPath>
</defs>
</svg>
