<svg width="426" height="125" viewBox="0 0 426 125" fill="none" xmlns="http://www.w3.org/2000/svg">
<path d="M381.793 71.6306V70.2757C381.793 65.872 382.668 62.1175 384.418 59.0124C386.168 55.8507 388.483 53.4513 391.363 51.814C394.298 50.1203 397.488 49.2734 400.932 49.2734C404.771 49.2734 407.679 49.9509 409.655 51.3059C411.631 52.6609 413.07 54.0723 413.974 55.5402H415.498V50.459H425.999V104.916C425.999 107.795 425.152 110.082 423.459 111.775C421.765 113.526 419.507 114.401 416.684 114.401H402.5V105.085H412.958C414.538 105.085 415.329 104.238 415.329 102.545V86.6201H413.804C413.24 87.5234 412.449 88.455 411.433 89.4148C410.417 90.3181 409.062 91.0803 407.368 91.7013C405.674 92.3223 403.529 92.6328 400.932 92.6328C397.488 92.6328 394.298 91.8142 391.363 90.1769C388.483 88.4832 386.168 86.0838 384.418 82.9786C382.668 79.817 381.793 76.0343 381.793 71.6306ZM403.981 83.3174C407.255 83.3174 409.994 82.2729 412.195 80.184C414.397 78.095 415.498 75.1592 415.498 71.3766V70.5297C415.498 66.6906 414.397 63.7548 412.195 61.7223C410.05 59.6334 407.312 58.5889 403.981 58.5889C400.706 58.5889 397.968 59.6334 395.766 61.7223C393.564 63.7548 392.463 66.6906 392.463 70.5297V71.3766C392.463 75.1592 393.564 78.095 395.766 80.184C397.968 82.2729 400.706 83.3174 403.981 83.3174Z" fill="white"/>
<path d="M331.643 92.4632V50.4587H342.144V55.9634H343.668C344.346 54.4955 345.616 53.1122 347.479 51.8137C349.342 50.4587 352.165 49.7812 355.948 49.7812C359.222 49.7812 362.073 50.5434 364.501 52.0678C366.985 53.5357 368.905 55.5964 370.26 58.2499C371.615 60.8469 372.292 63.8956 372.292 67.396V92.4632H361.622V68.2429C361.622 65.0813 360.831 62.71 359.25 61.1292C357.726 59.5484 355.524 58.758 352.645 58.758C349.37 58.758 346.83 59.8589 345.023 62.0608C343.216 64.2062 342.313 67.2266 342.313 71.1222V92.4632H331.643Z" fill="white"/>
<path d="M295.726 93.6491C292.734 93.6491 290.052 93.141 287.681 92.1247C285.31 91.052 283.419 89.5277 282.007 87.5517C280.652 85.5192 279.975 83.0633 279.975 80.184C279.975 77.3046 280.652 74.9052 282.007 72.9856C283.419 71.0096 285.338 69.5417 287.766 68.5819C290.25 67.5657 293.073 67.0576 296.234 67.0576H307.752V64.6864C307.752 62.7103 307.131 61.1013 305.889 59.8592C304.647 58.5607 302.671 57.9114 299.961 57.9114C297.307 57.9114 295.331 58.5325 294.033 59.7745C292.734 60.9602 291.887 62.5127 291.492 64.4323L281.668 61.1295C282.346 58.9841 283.419 57.0364 284.886 55.2862C286.411 53.4795 288.415 52.0399 290.899 50.9672C293.44 49.838 296.517 49.2734 300.13 49.2734C305.663 49.2734 310.038 50.6566 313.256 53.4231C316.474 56.1895 318.083 60.198 318.083 65.4485V81.1155C318.083 82.8092 318.874 83.6561 320.455 83.6561H323.842V92.4635H316.728C314.64 92.4635 312.918 91.9554 311.563 90.9391C310.208 89.9229 309.53 88.5679 309.53 86.8742V86.7895H307.921C307.695 87.467 307.187 88.3703 306.397 89.4995C305.606 90.5721 304.364 91.5319 302.671 92.3788C300.977 93.2257 298.662 93.6491 295.726 93.6491ZM297.589 85.0111C300.582 85.0111 303.009 84.1924 304.872 82.5552C306.792 80.8614 307.752 78.6314 307.752 75.865V75.0181H296.997C295.021 75.0181 293.468 75.4415 292.339 76.2884C291.21 77.1352 290.645 78.3209 290.645 79.8452C290.645 81.3696 291.238 82.6116 292.423 83.5714C293.609 84.5312 295.331 85.0111 297.589 85.0111Z" fill="white"/>
<path d="M255.352 92.462V58.0149H244.279V48.8758H255.352V40.7913C255.352 37.8035 256.23 35.4309 257.988 33.6734C259.804 31.8573 262.147 30.9492 265.018 30.9492H276.442V40.0883H268.884C267.244 40.0883 266.424 40.967 266.424 42.7245V48.8758H277.848V58.0149H266.424V92.462H255.352Z" fill="white"/>
<path d="M221.574 93.6491C217.396 93.6491 213.698 92.774 210.48 91.0238C207.318 89.2172 204.834 86.7048 203.028 83.4867C201.277 80.2122 200.402 76.3731 200.402 71.9694V70.9531C200.402 66.5495 201.277 62.7386 203.028 59.5205C204.778 56.2459 207.234 53.7336 210.395 51.9834C213.557 50.1768 217.227 49.2734 221.405 49.2734C225.526 49.2734 229.111 50.205 232.16 52.0681C235.208 53.8747 237.58 56.4153 239.273 59.6899C240.967 62.9079 241.814 66.6624 241.814 70.9531V74.5947H211.242C211.355 77.474 212.428 79.817 214.46 81.6236C216.493 83.4303 218.977 84.3336 221.913 84.3336C224.905 84.3336 227.107 83.6843 228.518 82.3858C229.93 81.0873 231.002 79.6476 231.736 78.0668L240.459 82.6399C239.669 84.1078 238.511 85.7168 236.987 87.467C235.519 89.1607 233.543 90.6286 231.059 91.8707C228.575 93.0563 225.413 93.6491 221.574 93.6491ZM211.327 66.6341H230.974C230.748 64.2065 229.76 62.2587 228.01 60.7908C226.316 59.3229 224.086 58.5889 221.32 58.5889C218.441 58.5889 216.154 59.3229 214.46 60.7908C212.767 62.2587 211.722 64.2065 211.327 66.6341Z" fill="white"/>
<path d="M144 92.4601V82.6365H151.791V43.0033H144V33.1797H168.39C176.35 33.1797 182.391 35.2122 186.513 39.2771C190.69 43.2856 192.779 49.2701 192.779 57.2306V68.4092C192.779 76.3697 190.69 82.3825 186.513 86.4474C182.391 90.4559 176.35 92.4601 168.39 92.4601H144ZM162.97 82.2978H168.559C173.076 82.2978 176.378 81.1122 178.467 78.7409C180.556 76.3697 181.601 73.0387 181.601 68.748V56.8919C181.601 52.5446 180.556 49.2136 178.467 46.8989C176.378 44.5277 173.076 43.342 168.559 43.342H162.97V82.2978Z" fill="white"/>
<path d="M301.263 106.386C301.215 105.939 301.014 105.59 300.658 105.34C300.306 105.091 299.848 104.966 299.284 104.966C298.888 104.966 298.548 105.026 298.264 105.146C297.98 105.265 297.763 105.428 297.613 105.633C297.462 105.838 297.386 106.072 297.382 106.335C297.382 106.554 297.432 106.743 297.531 106.904C297.633 107.065 297.772 107.201 297.946 107.314C298.12 107.424 298.314 107.516 298.525 107.591C298.737 107.666 298.951 107.729 299.166 107.781L300.151 108.027C300.547 108.119 300.928 108.244 301.294 108.401C301.663 108.558 301.993 108.756 302.283 108.996C302.577 109.235 302.81 109.524 302.98 109.862C303.151 110.2 303.237 110.597 303.237 111.051C303.237 111.667 303.08 112.208 302.765 112.677C302.451 113.141 301.996 113.505 301.401 113.769C300.81 114.028 300.094 114.158 299.253 114.158C298.437 114.158 297.727 114.032 297.126 113.779C296.528 113.526 296.06 113.157 295.721 112.671C295.386 112.186 295.205 111.595 295.178 110.898H297.049C297.076 111.263 297.189 111.568 297.387 111.81C297.586 112.053 297.844 112.234 298.161 112.354C298.483 112.473 298.842 112.533 299.238 112.533C299.652 112.533 300.014 112.472 300.325 112.348C300.639 112.222 300.885 112.048 301.063 111.826C301.241 111.6 301.331 111.337 301.335 111.036C301.331 110.763 301.251 110.537 301.094 110.359C300.937 110.178 300.716 110.028 300.432 109.908C300.152 109.785 299.824 109.676 299.448 109.58L298.254 109.273C297.389 109.05 296.705 108.714 296.203 108.263C295.704 107.808 295.455 107.205 295.455 106.453C295.455 105.834 295.622 105.293 295.957 104.828C296.295 104.363 296.755 104.002 297.336 103.746C297.917 103.486 298.575 103.356 299.31 103.356C300.055 103.356 300.708 103.486 301.268 103.746C301.832 104.002 302.275 104.36 302.596 104.818C302.917 105.272 303.083 105.795 303.093 106.386H301.263Z" fill="white"/>
<path d="M308.285 114.153C307.516 114.153 306.85 113.984 306.286 113.646C305.722 113.307 305.284 112.834 304.973 112.225C304.666 111.617 304.512 110.906 304.512 110.093C304.512 109.279 304.666 108.567 304.973 107.955C305.284 107.343 305.722 106.868 306.286 106.53C306.85 106.191 307.516 106.022 308.285 106.022C309.054 106.022 309.721 106.191 310.285 106.53C310.848 106.868 311.284 107.343 311.592 107.955C311.903 108.567 312.058 109.279 312.058 110.093C312.058 110.906 311.903 111.617 311.592 112.225C311.284 112.834 310.848 113.307 310.285 113.646C309.721 113.984 309.054 114.153 308.285 114.153ZM308.295 112.666C308.712 112.666 309.061 112.552 309.341 112.323C309.622 112.09 309.83 111.779 309.967 111.39C310.107 111 310.177 110.566 310.177 110.088C310.177 109.606 310.107 109.17 309.967 108.78C309.83 108.387 309.622 108.075 309.341 107.842C309.061 107.61 308.712 107.494 308.295 107.494C307.868 107.494 307.513 107.61 307.229 107.842C306.949 108.075 306.739 108.387 306.599 108.78C306.462 109.17 306.393 109.606 306.393 110.088C306.393 110.566 306.462 111 306.599 111.39C306.739 111.779 306.949 112.09 307.229 112.323C307.513 112.552 307.868 112.666 308.295 112.666Z" fill="white"/>
<path d="M317.622 106.125V107.56H312.967V106.125H317.622ZM314.131 113.999V105.381C314.131 104.852 314.24 104.411 314.459 104.059C314.681 103.707 314.978 103.444 315.351 103.269C315.723 103.095 316.137 103.008 316.592 103.008C316.913 103.008 317.198 103.033 317.448 103.085C317.697 103.136 317.882 103.182 318.001 103.223L317.632 104.659C317.554 104.635 317.455 104.611 317.335 104.587C317.215 104.559 317.082 104.546 316.935 104.546C316.59 104.546 316.345 104.63 316.202 104.797C316.062 104.961 315.992 105.197 315.992 105.504V113.999H314.131Z" fill="white"/>
<path d="M323.007 106.125V107.56H318.481V106.125H323.007ZM319.598 104.238H321.454V111.631C321.454 111.88 321.492 112.072 321.567 112.205C321.646 112.335 321.748 112.424 321.875 112.472C322.001 112.519 322.141 112.543 322.295 112.543C322.411 112.543 322.517 112.535 322.613 112.518C322.712 112.501 322.787 112.485 322.838 112.472L323.151 113.922C323.052 113.957 322.91 113.994 322.726 114.035C322.544 114.076 322.322 114.1 322.059 114.107C321.594 114.121 321.176 114.051 320.803 113.897C320.431 113.739 320.135 113.497 319.916 113.169C319.701 112.841 319.595 112.431 319.598 111.938V104.238Z" fill="white"/>
<path d="M326.185 113.999L323.96 106.125H325.851L327.236 111.662H327.307L328.722 106.125H330.594L332.009 111.631H332.085L333.449 106.125H335.346L333.116 113.999H331.183L329.707 108.678H329.599L328.123 113.999H326.185Z" fill="white"/>
<path d="M338.908 114.158C338.409 114.158 337.959 114.069 337.559 113.892C337.163 113.71 336.848 113.444 336.616 113.092C336.387 112.74 336.273 112.306 336.273 111.79C336.273 111.345 336.355 110.978 336.519 110.687C336.683 110.397 336.907 110.165 337.19 109.99C337.474 109.816 337.793 109.684 338.149 109.595C338.508 109.503 338.879 109.437 339.261 109.396C339.723 109.348 340.097 109.305 340.384 109.267C340.671 109.226 340.88 109.165 341.01 109.083C341.143 108.997 341.209 108.866 341.209 108.688V108.657C341.209 108.271 341.095 107.972 340.866 107.76C340.637 107.548 340.307 107.442 339.877 107.442C339.422 107.442 339.061 107.541 338.795 107.74C338.532 107.938 338.354 108.172 338.262 108.442L336.529 108.196C336.666 107.717 336.891 107.318 337.206 106.996C337.52 106.672 337.905 106.429 338.359 106.268C338.814 106.104 339.316 106.022 339.866 106.022C340.246 106.022 340.623 106.067 340.999 106.156C341.375 106.244 341.719 106.391 342.03 106.596C342.341 106.798 342.59 107.073 342.778 107.422C342.97 107.77 343.065 108.206 343.065 108.729V113.999H341.281V112.918H341.22C341.107 113.136 340.948 113.341 340.743 113.533C340.541 113.721 340.287 113.873 339.979 113.989C339.675 114.102 339.318 114.158 338.908 114.158ZM339.39 112.794C339.762 112.794 340.085 112.721 340.358 112.574C340.632 112.424 340.842 112.225 340.989 111.979C341.139 111.733 341.215 111.465 341.215 111.174V110.247C341.157 110.294 341.057 110.339 340.917 110.38C340.781 110.421 340.627 110.457 340.456 110.488C340.285 110.518 340.116 110.546 339.948 110.57C339.781 110.593 339.636 110.614 339.513 110.631C339.236 110.669 338.988 110.73 338.769 110.816C338.55 110.901 338.378 111.021 338.251 111.174C338.125 111.325 338.062 111.52 338.062 111.759C338.062 112.101 338.186 112.359 338.436 112.533C338.685 112.707 339.003 112.794 339.39 112.794Z" fill="white"/>
<path d="M344.931 113.999V106.125H346.731V107.437H346.813C346.956 106.983 347.202 106.632 347.551 106.386C347.903 106.137 348.305 106.012 348.756 106.012C348.858 106.012 348.973 106.017 349.099 106.027C349.229 106.034 349.337 106.046 349.422 106.063V107.77C349.344 107.743 349.219 107.719 349.048 107.699C348.881 107.675 348.718 107.663 348.561 107.663C348.223 107.663 347.918 107.736 347.648 107.883C347.382 108.027 347.172 108.227 347.018 108.483C346.864 108.739 346.787 109.035 346.787 109.37V113.999H344.931Z" fill="white"/>
<path d="M353.817 114.153C353.028 114.153 352.346 113.989 351.772 113.661C351.201 113.329 350.762 112.861 350.454 112.256C350.146 111.648 349.993 110.932 349.993 110.108C349.993 109.298 350.146 108.587 350.454 107.975C350.765 107.36 351.199 106.882 351.756 106.54C352.313 106.195 352.968 106.022 353.72 106.022C354.205 106.022 354.663 106.101 355.094 106.258C355.528 106.412 355.91 106.651 356.242 106.976C356.577 107.3 356.84 107.714 357.031 108.216C357.223 108.715 357.319 109.31 357.319 110V110.57H350.864V109.319H355.54C355.536 108.963 355.459 108.647 355.309 108.37C355.159 108.09 354.948 107.87 354.678 107.709C354.412 107.548 354.101 107.468 353.745 107.468C353.366 107.468 353.033 107.56 352.746 107.745C352.459 107.926 352.235 108.165 352.074 108.463C351.917 108.756 351.836 109.079 351.833 109.431V110.523C351.833 110.981 351.917 111.374 352.084 111.703C352.252 112.027 352.486 112.277 352.787 112.451C353.087 112.622 353.439 112.707 353.843 112.707C354.113 112.707 354.357 112.67 354.576 112.595C354.795 112.516 354.984 112.401 355.145 112.251C355.305 112.101 355.427 111.914 355.509 111.692L357.242 111.887C357.132 112.345 356.924 112.745 356.616 113.087C356.312 113.425 355.922 113.688 355.447 113.876C354.972 114.061 354.429 114.153 353.817 114.153Z" fill="white"/>
<path d="M362.552 113.999V103.5H364.453V112.405H369.078V113.999H362.552Z" fill="white"/>
<path d="M372.912 114.158C372.413 114.158 371.964 114.069 371.564 113.892C371.168 113.71 370.853 113.444 370.621 113.092C370.392 112.74 370.277 112.306 370.277 111.79C370.277 111.345 370.359 110.978 370.523 110.687C370.687 110.397 370.911 110.165 371.195 109.99C371.479 109.816 371.798 109.684 372.154 109.595C372.513 109.503 372.883 109.437 373.266 109.396C373.728 109.348 374.102 109.305 374.389 109.267C374.676 109.226 374.884 109.165 375.014 109.083C375.148 108.997 375.214 108.866 375.214 108.688V108.657C375.214 108.271 375.1 107.972 374.871 107.76C374.642 107.548 374.312 107.442 373.881 107.442C373.427 107.442 373.066 107.541 372.8 107.74C372.536 107.938 372.359 108.172 372.266 108.442L370.534 108.196C370.67 107.717 370.896 107.318 371.21 106.996C371.525 106.672 371.909 106.429 372.364 106.268C372.818 106.104 373.321 106.022 373.871 106.022C374.25 106.022 374.628 106.067 375.004 106.156C375.38 106.244 375.723 106.391 376.034 106.596C376.345 106.798 376.595 107.073 376.783 107.422C376.974 107.77 377.07 108.206 377.07 108.729V113.999H375.286V112.918H375.224C375.112 113.136 374.953 113.341 374.748 113.533C374.546 113.721 374.291 113.873 373.984 113.989C373.68 114.102 373.323 114.158 372.912 114.158ZM373.394 112.794C373.767 112.794 374.09 112.721 374.363 112.574C374.637 112.424 374.847 112.225 374.994 111.979C375.144 111.733 375.219 111.465 375.219 111.174V110.247C375.161 110.294 375.062 110.339 374.922 110.38C374.785 110.421 374.631 110.457 374.461 110.488C374.29 110.518 374.121 110.546 373.953 110.57C373.786 110.593 373.64 110.614 373.517 110.631C373.24 110.669 372.993 110.73 372.774 110.816C372.555 110.901 372.383 111.021 372.256 111.174C372.13 111.325 372.066 111.52 372.066 111.759C372.066 112.101 372.191 112.359 372.441 112.533C372.69 112.707 373.008 112.794 373.394 112.794Z" fill="white"/>
<path d="M379.018 113.999V103.5H380.874V107.427H380.951C381.047 107.236 381.182 107.032 381.356 106.817C381.53 106.598 381.766 106.412 382.063 106.258C382.361 106.101 382.74 106.022 383.201 106.022C383.81 106.022 384.358 106.178 384.847 106.489C385.339 106.796 385.729 107.253 386.016 107.858C386.306 108.459 386.452 109.197 386.452 110.072C386.452 110.937 386.31 111.672 386.026 112.277C385.743 112.882 385.356 113.343 384.868 113.661C384.379 113.979 383.825 114.138 383.207 114.138C382.755 114.138 382.381 114.062 382.084 113.912C381.787 113.762 381.547 113.581 381.366 113.369C381.188 113.153 381.05 112.95 380.951 112.759H380.843V113.999H379.018ZM380.838 110.062C380.838 110.571 380.91 111.017 381.053 111.4C381.2 111.783 381.411 112.082 381.684 112.297C381.961 112.509 382.296 112.615 382.689 112.615C383.099 112.615 383.442 112.506 383.719 112.287C383.996 112.065 384.205 111.762 384.345 111.38C384.488 110.993 384.56 110.554 384.56 110.062C384.56 109.573 384.49 109.139 384.35 108.76C384.21 108.38 384.001 108.083 383.724 107.868C383.448 107.653 383.102 107.545 382.689 107.545C382.292 107.545 381.956 107.649 381.679 107.858C381.402 108.066 381.192 108.358 381.048 108.734C380.908 109.11 380.838 109.553 380.838 110.062Z" fill="white"/>
<path d="M394.253 108.206L392.561 108.391C392.514 108.22 392.43 108.059 392.31 107.909C392.194 107.758 392.037 107.637 391.839 107.545C391.64 107.453 391.398 107.406 391.111 107.406C390.724 107.406 390.4 107.49 390.136 107.658C389.877 107.825 389.749 108.042 389.752 108.309C389.749 108.538 389.832 108.724 390.003 108.868C390.177 109.011 390.465 109.129 390.864 109.221L392.208 109.508C392.953 109.669 393.506 109.924 393.869 110.272C394.234 110.621 394.419 111.077 394.422 111.641C394.419 112.137 394.274 112.574 393.987 112.953C393.703 113.329 393.308 113.623 392.802 113.835C392.296 114.047 391.715 114.153 391.059 114.153C390.095 114.153 389.32 113.951 388.732 113.548C388.144 113.141 387.794 112.576 387.681 111.851L389.491 111.677C389.573 112.032 389.747 112.301 390.013 112.482C390.28 112.663 390.627 112.753 391.054 112.753C391.495 112.753 391.849 112.663 392.115 112.482C392.385 112.301 392.52 112.077 392.52 111.81C392.52 111.585 392.433 111.398 392.259 111.251C392.088 111.104 391.821 110.992 391.459 110.913L390.116 110.631C389.361 110.474 388.802 110.209 388.44 109.836C388.077 109.46 387.898 108.985 387.901 108.411C387.898 107.926 388.029 107.506 388.296 107.15C388.566 106.791 388.94 106.514 389.419 106.32C389.901 106.121 390.456 106.022 391.085 106.022C392.008 106.022 392.734 106.219 393.264 106.612C393.797 107.005 394.127 107.536 394.253 108.206Z" fill="white"/>
<g clip-path="url(#clip0_762_13036)">
<path d="M103.58 27.0388L61.4196 2.69782C57.4448 0.40281 52.5552 0.40281 48.5804 2.69782L6.41961 27.0388C2.4448 29.3285 0 33.5708 0 38.1555V86.8375C0 91.4275 2.4448 95.6644 6.41961 97.9541L48.5804 122.295C52.5552 124.59 57.4448 124.59 61.4196 122.295L103.58 97.9541C107.555 95.6591 110 91.4222 110 86.8375V38.1555C110 33.5708 107.555 29.3285 103.58 27.0388ZM51.298 26.2043C52.0737 24.8669 53.4593 24.0644 55.0053 24.0644C56.5514 24.0644 57.937 24.8669 58.7127 26.2043L86.1084 73.6559C87.0124 75.218 86.852 77.1225 85.7071 78.5134C84.8726 79.5245 83.6689 80.0755 82.4224 80.0755C81.9517 80.0755 81.4809 80.0006 81.0155 79.8401L58.6592 72.1633C56.3053 71.3555 53.7161 71.3555 51.3622 72.1633L29.0059 79.8401C27.2994 80.4232 25.4591 79.9043 24.3143 78.5134C23.1694 77.1225 23.0089 75.2126 23.913 73.6559L51.3087 26.2043H51.298ZM10.801 78.0426C10.6084 78.0426 10.4158 78.0159 10.2232 77.9677C9.26029 77.7109 8.63437 76.9031 8.62902 75.9081L8.46853 44.4413C8.44713 40.199 10.7207 36.2617 14.4067 34.1593L41.7382 18.565C42.5994 18.0728 43.6159 18.2065 44.3167 18.9127C45.0175 19.6188 45.1512 20.6299 44.6537 21.4912L12.6252 76.962C12.2294 77.6467 11.5499 78.0373 10.801 78.0373V78.0426ZM88.0289 95.4184L61.4303 109.991C59.4188 111.093 57.2094 111.644 55.0053 111.644C52.8013 111.644 50.5919 111.093 48.5804 109.991L21.9818 95.4184C21.051 94.9101 20.5213 93.9365 20.6016 92.8773C20.6818 91.818 21.3452 90.9353 22.3402 90.5662L50.3672 80.1932C53.363 79.0858 56.6584 79.0858 59.6542 80.1932L87.6811 90.5662C88.6762 90.9353 89.3395 91.818 89.4198 92.8773C89.5 93.9365 88.9704 94.9101 88.0396 95.4184H88.0289ZM101.371 75.9135C101.371 76.9085 100.74 77.7163 99.7821 77.9731C99.5895 78.0266 99.3916 78.048 99.2043 78.048C98.4554 78.048 97.776 77.6574 97.3801 76.9727L65.3516 21.5019C64.8541 20.6406 64.9878 19.6295 65.6886 18.9234C66.3895 18.2172 67.4005 18.0835 68.2672 18.5757L95.5987 34.17C99.2846 36.2724 101.558 40.2097 101.537 44.452L101.376 75.9188L101.371 75.9135Z" fill="white"/>
<path d="M44.3171 18.9171C43.6163 18.2109 42.5998 18.0718 41.7385 18.5693L14.407 34.1636C10.7265 36.2661 8.4475 40.2034 8.4689 44.4457L8.62939 75.9125C8.62939 76.9075 9.26065 77.7153 10.2236 77.9721C10.4162 78.0256 10.6141 78.047 10.8014 78.047C11.5503 78.047 12.2297 77.6565 12.6256 76.9717L44.6541 21.501C45.1516 20.6397 45.0179 19.6286 44.3171 18.9224V18.9171Z" fill="#914FED"/>
<path d="M95.5921 34.1613L68.2606 18.567C67.3939 18.0749 66.3828 18.2086 65.682 18.9148C64.9812 19.6209 64.8475 20.632 65.345 21.4933L97.3735 76.9641C97.7694 77.6488 98.4488 78.0393 99.1977 78.0393C99.385 78.0393 99.5829 78.0126 99.7755 77.9645C100.738 77.7077 101.359 76.8999 101.364 75.9048L101.525 44.438C101.546 40.1958 99.2726 36.2584 95.5867 34.156L95.5921 34.1613Z" fill="#914FED"/>
<path d="M24.3046 78.5115C25.4494 79.9024 27.2897 80.4213 28.9963 79.8382L51.3526 72.1614C53.7064 71.3536 56.2957 71.3536 58.6495 72.1614L81.0058 79.8382C81.4712 79.9987 81.9474 80.0736 82.4128 80.0736C83.6646 80.0736 84.8629 79.5226 85.6975 78.5115C86.8423 77.1206 87.0028 75.2107 86.0987 73.654L58.703 26.2024C57.9273 24.865 56.5418 24.0625 54.9957 24.0625C53.4496 24.0625 52.0641 24.865 51.2884 26.2024L23.8927 73.654C22.9886 75.2161 23.1491 77.1206 24.2939 78.5115H24.3046Z" fill="#1D69F4"/>
<path d="M87.6696 90.559L59.6426 80.186C56.6468 79.0786 53.3514 79.0786 50.3556 80.186L22.3287 90.559C21.3336 90.9282 20.6649 91.8108 20.59 92.8701C20.5098 93.9293 21.0394 94.903 21.9702 95.4112L48.5688 109.984C50.5803 111.086 52.7897 111.637 54.9938 111.637C57.1978 111.637 59.4072 111.086 61.4187 109.984L88.0173 95.4112C88.9481 94.903 89.4778 93.9293 89.3975 92.8701C89.3173 91.8108 88.6539 90.9282 87.6589 90.559H87.6696Z" fill="#488DF3"/>
</g>
<defs>
<clipPath id="clip0_762_13036">
<rect width="110" height="123.048" fill="white" transform="translate(0 0.980469)"/>
</clipPath>
</defs>
</svg>
