<svg width="426" height="124" viewBox="0 0 426 124" fill="none" xmlns="http://www.w3.org/2000/svg">
<g clip-path="url(#clip0_492_11612)">
<path d="M42.0057 18.0534L14.6743 33.6477C11.1542 35.6592 8.98755 39.4093 9.00895 43.4644L9.16944 74.9312C9.18014 76.5682 11.3468 77.1459 12.1653 75.7229L44.1938 20.2521C45.0123 18.8345 43.4287 17.2456 42.0111 18.0534H42.0057Z" fill="#AA6EFF"/>
<path d="M95.3317 33.6543L68.0002 18.06C66.5772 17.2469 64.9937 18.8357 65.8176 20.2588L97.8461 75.7295C98.6646 77.1472 100.831 76.5748 100.842 74.9378L101.002 43.471C101.024 39.4159 98.8572 35.6658 95.3371 33.6543H95.3317Z" fill="#AA6EFF"/>
<path d="M57.3164 26.0307C56.621 24.8217 55.4654 24.6933 55 24.6933C54.5346 24.6933 53.3791 24.8217 52.6836 26.0307L25.2879 73.4824C24.4266 74.9749 25.2612 76.1839 25.5394 76.521C25.8175 76.858 26.8447 77.9119 28.471 77.3502L50.8273 69.6734C53.5128 68.7533 56.4765 68.7479 59.1674 69.6734L81.5237 77.3502C83.15 77.9119 84.1825 76.858 84.4553 76.521C84.7335 76.1839 85.5681 74.9749 84.7068 73.4824L57.3111 26.0307H57.3164Z" fill="#4C8BFF"/>
<path d="M103.58 26.0635L61.4196 1.72249C57.4448 -0.572517 52.5552 -0.572517 48.5804 1.72249L6.41961 26.0635C2.4448 28.3532 0 32.5955 0 37.1801V85.8622C0 90.4468 2.4448 94.6891 6.41961 96.9788L48.5804 121.32C52.5552 123.615 57.4448 123.615 61.4196 121.32L103.58 96.9788C107.555 94.6838 110 90.4468 110 85.8622V37.1801C110 32.5955 107.555 28.3532 103.58 26.0635ZM57.3164 26.0314L84.7121 73.483C85.5734 74.9756 84.7389 76.1846 84.4607 76.5216C84.1825 76.8587 83.1553 77.9126 81.529 77.3508L59.1728 69.6741C56.4819 68.7486 53.5235 68.7486 50.8326 69.6741L28.4763 77.3508C26.85 77.9126 25.8175 76.8587 25.5447 76.5216C25.2665 76.1846 24.432 74.9756 25.2933 73.483L52.6889 26.0314C53.3844 24.8224 54.5399 24.694 55.0054 24.694C55.4708 24.694 56.6263 24.8224 57.3218 26.0314H57.3164ZM9.16399 74.9328L9.0035 43.466C8.9821 39.4109 11.1487 35.6608 14.6688 33.6494L42.0003 18.055C43.4233 17.2419 45.0068 18.8308 44.183 20.2538L12.1545 75.7245C11.336 77.1422 9.16934 76.5698 9.15864 74.9328H9.16399ZM87.7721 93.9723L61.1735 108.545C57.3325 110.653 52.6782 110.653 48.8318 108.545L22.2332 93.9723C20.623 93.0896 20.7995 90.725 22.5168 90.0884L50.5437 79.7154C53.4219 78.6508 56.5835 78.6508 59.4563 79.7154L87.4832 90.0884C89.2058 90.725 89.377 93.0896 87.7668 93.9723H87.7721ZM100.836 74.9381C100.825 76.5751 98.6587 77.1475 97.8402 75.7299L65.8117 20.2591C64.9932 18.8415 66.5767 17.2526 67.9944 18.0604L95.3259 33.6547C98.8459 35.6662 101.013 39.4163 100.991 43.4714L100.831 74.9381H100.836Z" fill="#0F0F0F"/>
<path d="M87.4835 90.0867L59.4565 79.7136C56.5784 78.6491 53.4167 78.6491 50.544 79.7136L22.517 90.0867C20.7944 90.7233 20.6232 93.0878 22.2335 93.9705L48.8321 108.543C52.6731 110.651 57.3273 110.651 61.1738 108.543L87.7723 93.9705C89.3826 93.0878 89.2061 90.7233 87.4888 90.0867H87.4835Z" fill="#9CC4FF"/>
</g>
<path d="M381.794 70.6299V69.2749C381.794 64.8712 382.669 61.1168 384.419 58.0116C386.169 54.85 388.484 52.4505 391.363 50.8133C394.299 49.1195 397.489 48.2727 400.933 48.2727C404.772 48.2727 407.679 48.9502 409.656 50.3051C411.632 51.6601 413.071 53.0716 413.974 54.5395H415.499V49.4583H426V98.9151C426 101.794 425.153 104.081 423.459 105.775C421.766 107.525 419.507 108.4 416.684 108.4H388.569V99.0845H412.958C414.539 99.0845 415.329 98.2376 415.329 96.5439V85.6193H413.805C413.241 86.5227 412.45 87.4542 411.434 88.414C410.418 89.3173 409.063 90.0795 407.369 90.7005C405.675 91.3216 403.53 91.6321 400.933 91.6321C397.489 91.6321 394.299 90.8134 391.363 89.1762C388.484 87.4824 386.169 85.083 384.419 81.9778C382.669 78.8162 381.794 75.0335 381.794 70.6299ZM403.982 82.3166C407.256 82.3166 409.994 81.2721 412.196 79.1832C414.398 77.0943 415.499 74.1585 415.499 70.3758V69.5289C415.499 65.6898 414.398 62.754 412.196 60.7216C410.051 58.6326 407.312 57.5882 403.982 57.5882C400.707 57.5882 397.969 58.6326 395.767 60.7216C393.565 62.754 392.464 65.6898 392.464 69.5289V70.3758C392.464 74.1585 393.565 77.0943 395.767 79.1832C397.969 81.2721 400.707 82.3166 403.982 82.3166Z" fill="#0F0F0F"/>
<path d="M331.643 91.4633V49.4589H342.144V54.9635H343.669C344.346 53.4956 345.616 52.1124 347.479 50.8139C349.343 49.4589 352.165 48.7814 355.948 48.7814C359.223 48.7814 362.074 49.5436 364.501 51.0679C366.986 52.5358 368.905 54.5965 370.26 57.2501C371.615 59.8471 372.293 62.8958 372.293 66.3962V91.4633H361.622V67.243C361.622 64.0814 360.832 61.7102 359.251 60.1294C357.726 58.5486 355.525 57.7582 352.645 57.7582C349.371 57.7582 346.83 58.8591 345.023 61.0609C343.217 63.2063 342.314 66.2268 342.314 70.1224V91.4633H331.643Z" fill="#0F0F0F"/>
<path d="M295.726 92.6483C292.733 92.6483 290.052 92.1402 287.68 91.124C285.309 90.0513 283.418 88.5269 282.006 86.5509C280.651 84.5184 279.974 82.0625 279.974 79.1832C279.974 76.3038 280.651 73.9044 282.006 71.9848C283.418 70.0088 285.337 68.5409 287.765 67.5811C290.249 66.5649 293.072 66.0568 296.234 66.0568H307.751V63.6856C307.751 61.7096 307.13 60.1005 305.888 58.8585C304.646 57.5599 302.67 56.9107 299.96 56.9107C297.306 56.9107 295.33 57.5317 294.032 58.7738C292.733 59.9594 291.886 61.512 291.491 63.4315L281.668 60.1288C282.345 57.9834 283.418 56.0356 284.886 54.2854C286.41 52.4788 288.414 51.0391 290.898 49.9664C293.439 48.8372 296.516 48.2727 300.129 48.2727C305.662 48.2727 310.038 49.6559 313.256 52.4223C316.474 55.1887 318.083 59.1972 318.083 64.4478V80.1147C318.083 81.8085 318.873 82.6553 320.454 82.6553H323.841V91.4627H316.728C314.639 91.4627 312.917 90.9546 311.562 89.9383C310.207 88.9221 309.529 87.5671 309.529 85.8734V85.7887H307.92C307.695 86.4662 307.186 87.3695 306.396 88.4987C305.606 89.5714 304.364 90.5312 302.67 91.378C300.976 92.2249 298.661 92.6483 295.726 92.6483ZM297.589 84.0103C300.581 84.0103 303.009 83.1917 304.872 81.5544C306.791 79.8607 307.751 77.6306 307.751 74.8642V74.0173H296.996C295.02 74.0173 293.467 74.4407 292.338 75.2876C291.209 76.1345 290.644 77.3201 290.644 78.8444C290.644 80.3688 291.237 81.6109 292.423 82.5706C293.608 83.5304 295.33 84.0103 297.589 84.0103Z" fill="#0F0F0F"/>
<path d="M255.352 91.462V57.0149H244.28V47.8758H255.352V39.7913C255.352 36.8035 256.231 34.4309 257.988 32.6734C259.804 30.8573 262.148 29.9492 265.018 29.9492H276.442V39.0883H268.885C267.245 39.0883 266.424 39.967 266.424 41.7245V47.8758H277.848V57.0149H266.424V91.462H255.352Z" fill="#0F0F0F"/>
<path d="M221.574 92.6483C217.396 92.6483 213.698 91.7732 210.48 90.023C207.319 88.2164 204.835 85.704 203.028 82.4859C201.278 79.2114 200.403 75.3723 200.403 70.9686V69.9524C200.403 65.5487 201.278 61.7378 203.028 58.5197C204.778 55.2452 207.234 52.7328 210.396 50.9826C213.557 49.176 217.227 48.2727 221.405 48.2727C225.526 48.2727 229.111 49.2042 232.16 51.0673C235.209 52.874 237.58 55.4145 239.274 58.6891C240.967 61.9072 241.814 65.6616 241.814 69.9524V73.5939H211.242C211.355 76.4732 212.428 78.8162 214.461 80.6228C216.493 82.4295 218.977 83.3328 221.913 83.3328C224.905 83.3328 227.107 82.6836 228.518 81.385C229.93 80.0865 231.003 78.6468 231.737 77.066L240.459 81.6391C239.669 83.107 238.511 84.716 236.987 86.4662C235.519 88.1599 233.543 89.6278 231.059 90.8699C228.575 92.0555 225.413 92.6483 221.574 92.6483ZM211.327 65.6334H230.974C230.749 63.2057 229.761 61.2579 228.01 59.79C226.317 58.3221 224.087 57.5882 221.32 57.5882C218.441 57.5882 216.154 58.3221 214.461 59.79C212.767 61.2579 211.722 63.2057 211.327 65.6334Z" fill="#0F0F0F"/>
<path d="M144 91.4604V81.6368H151.791V42.0036H144V32.18H168.39C176.35 32.18 182.391 34.2124 186.513 38.2774C190.69 42.2859 192.779 48.2704 192.779 56.2309V67.4095C192.779 75.37 190.69 81.3827 186.513 85.4477C182.391 89.4562 176.35 91.4604 168.39 91.4604H144ZM162.97 81.298H168.559C173.076 81.298 176.378 80.1124 178.467 77.7412C180.556 75.37 181.601 72.039 181.601 67.7482V55.8921C181.601 51.5449 180.556 48.2139 178.467 45.8992C176.378 43.5279 173.076 42.3423 168.559 42.3423H162.97V81.298Z" fill="#0F0F0F"/>
<defs>
<clipPath id="clip0_492_11612">
<rect width="110" height="123.048" fill="white"/>
</clipPath>
</defs>
</svg>
