<svg width="426" height="124" viewBox="0 0 426 124" fill="none" xmlns="http://www.w3.org/2000/svg">
<g clip-path="url(#clip0_1042_11173)">
<path d="M103.682 25.9686L61.5209 1.62763C57.5461 -0.66738 52.6565 -0.66738 48.6817 1.62763L6.52093 25.9686C2.54612 28.2583 0.101318 32.5006 0.101318 37.0853V85.7673C0.101318 90.352 2.54612 94.5943 6.52093 96.8839L48.6817 121.225C52.6565 123.52 57.5461 123.52 61.5209 121.225L103.682 96.8839C107.657 94.5889 110.101 90.352 110.101 85.7673V37.0853C110.101 32.5006 107.657 28.2583 103.682 25.9686ZM57.4177 25.9366L84.8134 73.3882C85.6747 74.8807 84.8402 76.0897 84.562 76.4268C84.2838 76.7638 83.2567 77.8177 81.6304 77.256L59.2741 69.5792C56.5832 68.6537 53.6248 68.6537 50.9339 69.5792L28.5776 77.256C26.9513 77.8177 25.9188 76.7638 25.646 76.4268C25.3678 76.0897 24.5333 74.8807 25.3946 73.3882L52.7903 25.9366C53.4857 24.7275 54.6413 24.5991 55.1067 24.5991C55.5721 24.5991 56.7276 24.7275 57.4231 25.9366H57.4177ZM9.26531 74.8379L9.10482 43.3711C9.08342 39.3161 11.25 35.566 14.7701 33.5545L42.1016 17.9602C43.5246 17.147 45.1081 18.7359 44.2843 20.1589L12.2558 75.6297C11.4373 77.0473 9.27066 76.4749 9.25996 74.8379H9.26531ZM87.8734 93.8774L61.2748 108.45C57.4338 110.558 52.7796 110.558 48.9331 108.45L22.3346 93.8774C20.7243 92.9947 20.9009 90.6302 22.6181 89.9935L50.645 79.6205C53.5232 78.5559 56.6848 78.5559 59.5576 79.6205L87.5846 89.9935C89.3071 90.6302 89.4783 92.9947 87.8681 93.8774H87.8734ZM100.937 74.8433C100.927 76.4803 98.76 77.0527 97.9415 75.635L65.913 20.1643C65.0945 18.7466 66.678 17.1577 68.0957 17.9655L95.4272 33.5598C98.9473 35.5713 101.114 39.3214 101.092 43.3765L100.932 74.8433H100.937Z" fill="#0F0F0F"/>
<mask id="mask0_1042_11173" style="mask-type:alpha" maskUnits="userSpaceOnUse" x="9" y="17" width="93" height="94">
<path fill-rule="evenodd" clip-rule="evenodd" d="M42.1073 17.9587L14.7758 33.553C11.2557 35.5644 9.08911 39.3146 9.11051 43.3696L9.271 74.8364C9.2817 76.4734 11.4483 77.0512 12.2668 75.6281L44.2953 20.1574C45.1138 18.7397 43.5303 17.1509 42.1126 17.9587H42.1073ZM87.5851 89.9918L59.5582 79.6188C56.6801 78.5542 53.5184 78.5542 50.6456 79.6188L22.6187 89.9918C20.8961 90.6284 20.7249 92.993 22.3352 93.8757L48.9337 108.448C52.7748 110.556 57.429 110.556 61.2754 108.448L87.874 93.8757C89.4843 92.993 89.3077 90.6284 87.5905 89.9918H87.5851ZM68.1017 17.9653L95.4332 33.5596H95.4385C98.9586 35.5711 101.125 39.3212 101.104 43.3762L100.943 74.843C100.933 76.48 98.766 77.0524 97.9475 75.6348L65.919 20.164C65.0952 18.741 66.6787 17.1521 68.1017 17.9653Z" fill="#B078FF"/>
</mask>
<g mask="url(#mask0_1042_11173)">
<path d="M42.1073 17.9587L14.7758 33.553C11.2557 35.5644 9.08911 39.3146 9.11051 43.3696L9.271 74.8364C9.2817 76.4734 11.4483 77.0512 12.2668 75.6281L44.2953 20.1574C45.1138 18.7397 43.5303 17.1509 42.1126 17.9587H42.1073Z" fill="#B078FF"/>
<path d="M87.585 89.9918L59.5581 79.6188C56.68 78.5542 53.5183 78.5542 50.6455 79.6188L22.6186 89.9918C20.896 90.6284 20.7248 92.993 22.3351 93.8757L48.9336 108.448C52.7747 110.556 57.4289 110.556 61.2753 108.448L87.8739 93.8757C89.4842 92.993 89.3076 90.6284 87.5904 89.9918H87.585Z" fill="#83B5FF"/>
<path d="M95.4333 33.5596L68.1018 17.9653C66.6788 17.1522 65.0953 18.741 65.9191 20.164L97.9476 75.6348C98.7661 77.0525 100.933 76.4801 100.943 74.8431L101.104 43.3763C101.125 39.3212 98.9587 35.5711 95.4386 33.5596H95.4333Z" fill="#B078FF"/>
<circle cx="55.1015" cy="59.6195" r="51.8571" fill="url(#paint0_radial_1042_11173)" fill-opacity="0.4"/>
</g>
<mask id="mask1_1042_11173" style="mask-type:alpha" maskUnits="userSpaceOnUse" x="25" y="24" width="61" height="54">
<path d="M57.418 25.9361C56.7225 24.727 55.567 24.5986 55.1016 24.5986C54.6362 24.5986 53.4806 24.727 52.7852 25.9361L25.3895 73.3877C24.5282 74.8802 25.3627 76.0892 25.6409 76.4263C25.9191 76.7633 26.9462 77.8172 28.5725 77.2555L50.9288 69.5787C53.6144 68.6586 56.5781 68.6532 59.269 69.5787L81.6253 77.2555C83.2516 77.8172 84.284 76.7633 84.5569 76.4263C84.8351 76.0892 85.6696 74.8802 84.8083 73.3877L57.4126 25.9361H57.418Z" fill="#1D69F4"/>
</mask>
<g mask="url(#mask1_1042_11173)">
<g filter="url(#filter0_i_1042_11173)">
<circle cx="55.1014" cy="58.0481" r="36.1429" fill="#1D69F4"/>
</g>
</g>
</g>
<path d="M381.794 70.6298V69.2749C381.794 64.8712 382.669 61.1167 384.419 58.0116C386.169 54.85 388.484 52.4505 391.363 50.8132C394.299 49.1195 397.489 48.2726 400.933 48.2726C404.772 48.2726 407.679 48.9501 409.656 50.3051C411.632 51.6601 413.071 53.0715 413.974 54.5394H415.499V49.4583H426V98.9151C426 101.794 425.153 104.081 423.459 105.775C421.766 107.525 419.507 108.4 416.684 108.4H388.569V99.0845H412.958C414.539 99.0845 415.329 98.2376 415.329 96.5439V85.6193H413.805C413.241 86.5226 412.45 87.4542 411.434 88.414C410.418 89.3173 409.063 90.0795 407.369 90.7005C405.675 91.3215 403.53 91.6321 400.933 91.6321C397.489 91.6321 394.299 90.8134 391.363 89.1762C388.484 87.4824 386.169 85.083 384.419 81.9778C382.669 78.8162 381.794 75.0335 381.794 70.6298ZM403.982 82.3166C407.256 82.3166 409.994 81.2721 412.196 79.1832C414.398 77.0942 415.499 74.1584 415.499 70.3758V69.5289C415.499 65.6898 414.398 62.754 412.196 60.7215C410.051 58.6326 407.312 57.5881 403.982 57.5881C400.707 57.5881 397.969 58.6326 395.767 60.7215C393.565 62.754 392.464 65.6898 392.464 69.5289V70.3758C392.464 74.1584 393.565 77.0942 395.767 79.1832C397.969 81.2721 400.707 82.3166 403.982 82.3166Z" fill="#0F0F0F"/>
<path d="M331.643 91.4634V49.4589H342.144V54.9635H343.669C344.346 53.4956 345.616 52.1124 347.479 50.8139C349.343 49.4589 352.165 48.7814 355.948 48.7814C359.223 48.7814 362.074 49.5436 364.501 51.068C366.986 52.5359 368.905 54.5966 370.26 57.2501C371.615 59.8471 372.293 62.8958 372.293 66.3962V91.4634H361.622V67.2431C361.622 64.0814 360.832 61.7102 359.251 60.1294C357.726 58.5486 355.525 57.7582 352.645 57.7582C349.371 57.7582 346.83 58.8591 345.023 61.061C343.217 63.2063 342.314 66.2268 342.314 70.1224V91.4634H331.643Z" fill="#0F0F0F"/>
<path d="M295.726 92.6483C292.733 92.6483 290.052 92.1402 287.68 91.1239C285.309 90.0512 283.418 88.5269 282.006 86.5509C280.651 84.5184 279.974 82.0625 279.974 79.1832C279.974 76.3038 280.651 73.9044 282.006 71.9848C283.418 70.0088 285.337 68.5409 287.765 67.5811C290.249 66.5649 293.072 66.0568 296.234 66.0568H307.751V63.6856C307.751 61.7095 307.13 60.1005 305.888 58.8584C304.646 57.5599 302.67 56.9107 299.96 56.9107C297.306 56.9107 295.33 57.5317 294.032 58.7738C292.733 59.9594 291.886 61.5119 291.491 63.4315L281.668 60.1287C282.345 57.9833 283.418 56.0356 284.886 54.2854C286.41 52.4787 288.414 51.0391 290.898 49.9664C293.439 48.8372 296.516 48.2726 300.129 48.2726C305.662 48.2726 310.038 49.6559 313.256 52.4223C316.474 55.1887 318.083 59.1972 318.083 64.4477V80.1147C318.083 81.8084 318.873 82.6553 320.454 82.6553H323.841V91.4627H316.728C314.639 91.4627 312.917 90.9546 311.562 89.9383C310.207 88.9221 309.529 87.5671 309.529 85.8734V85.7887H307.92C307.695 86.4662 307.186 87.3695 306.396 88.4987C305.606 89.5714 304.364 90.5311 302.67 91.378C300.976 92.2249 298.661 92.6483 295.726 92.6483ZM297.589 84.0103C300.581 84.0103 303.009 83.1917 304.872 81.5544C306.791 79.8607 307.751 77.6306 307.751 74.8642V74.0173H296.996C295.02 74.0173 293.467 74.4407 292.338 75.2876C291.209 76.1345 290.644 77.3201 290.644 78.8444C290.644 80.3688 291.237 81.6108 292.423 82.5706C293.608 83.5304 295.33 84.0103 297.589 84.0103Z" fill="#0F0F0F"/>
<path d="M255.352 91.462V57.0149H244.28V47.8758H255.352V39.7913C255.352 36.8035 256.231 34.4309 257.988 32.6734C259.804 30.8573 262.148 29.9492 265.018 29.9492H276.442V39.0883H268.885C267.245 39.0883 266.424 39.967 266.424 41.7245V47.8758H277.848V57.0149H266.424V91.462H255.352Z" fill="#0F0F0F"/>
<path d="M221.574 92.6483C217.396 92.6483 213.698 91.7732 210.48 90.023C207.319 88.2164 204.835 85.704 203.028 82.4859C201.278 79.2114 200.403 75.3723 200.403 70.9686V69.9523C200.403 65.5487 201.278 61.7378 203.028 58.5197C204.778 55.2452 207.234 52.7328 210.396 50.9826C213.557 49.176 217.227 48.2726 221.405 48.2726C225.526 48.2726 229.111 49.2042 232.16 51.0673C235.209 52.8739 237.58 55.4145 239.274 58.6891C240.967 61.9072 241.814 65.6616 241.814 69.9523V73.5939H211.242C211.355 76.4732 212.428 78.8162 214.461 80.6228C216.493 82.4295 218.977 83.3328 221.913 83.3328C224.905 83.3328 227.107 82.6835 228.518 81.385C229.93 80.0865 231.003 78.6468 231.737 77.066L240.459 81.6391C239.669 83.107 238.511 84.716 236.987 86.4662C235.519 88.1599 233.543 89.6278 231.059 90.8699C228.575 92.0555 225.413 92.6483 221.574 92.6483ZM211.327 65.6334H230.974C230.749 63.2057 229.761 61.2579 228.01 59.79C226.317 58.3221 224.087 57.5881 221.32 57.5881C218.441 57.5881 216.154 58.3221 214.461 59.79C212.767 61.2579 211.722 63.2057 211.327 65.6334Z" fill="#0F0F0F"/>
<path d="M144 91.4604V81.6368H151.791V42.0036H144V32.18H168.39C176.35 32.18 182.391 34.2125 186.513 38.2774C190.69 42.2859 192.779 48.2704 192.779 56.2309V67.4095C192.779 75.37 190.69 81.3828 186.513 85.4477C182.391 89.4562 176.35 91.4604 168.39 91.4604H144ZM162.97 81.2981H168.559C173.076 81.2981 176.378 80.1125 178.467 77.7413C180.556 75.37 181.601 72.039 181.601 67.7483V55.8922C181.601 51.5449 180.556 48.2139 178.467 45.8992C176.378 43.528 173.076 42.3424 168.559 42.3424H162.97V81.2981Z" fill="#0F0F0F"/>
<defs>
<filter id="filter0_i_1042_11173" x="18.9585" y="21.9052" width="72.2856" height="72.2857" filterUnits="userSpaceOnUse" color-interpolation-filters="sRGB">
<feFlood flood-opacity="0" result="BackgroundImageFix"/>
<feBlend mode="normal" in="SourceGraphic" in2="BackgroundImageFix" result="shape"/>
<feColorMatrix in="SourceAlpha" type="matrix" values="0 0 0 0 0 0 0 0 0 0 0 0 0 0 0 0 0 0 127 0" result="hardAlpha"/>
<feMorphology radius="7.85714" operator="erode" in="SourceAlpha" result="effect1_innerShadow_1042_11173"/>
<feOffset/>
<feGaussianBlur stdDeviation="18.8571"/>
<feComposite in2="hardAlpha" operator="arithmetic" k2="-1" k3="1"/>
<feColorMatrix type="matrix" values="0 0 0 0 0.592285 0 0 0 0 0.911661 0 0 0 0 1 0 0 0 0.79 0"/>
<feBlend mode="normal" in2="shape" result="effect1_innerShadow_1042_11173"/>
</filter>
<radialGradient id="paint0_radial_1042_11173" cx="0" cy="0" r="1" gradientUnits="userSpaceOnUse" gradientTransform="translate(55.1015 59.6195) rotate(90) scale(51.8571)">
<stop offset="0.685" stop-color="white" stop-opacity="0"/>
<stop offset="1" stop-color="white"/>
</radialGradient>
<clipPath id="clip0_1042_11173">
<rect width="110" height="123.048" fill="white"/>
</clipPath>
</defs>
</svg>
