<svg width="426" height="125" viewBox="0 0 426 125" fill="none" xmlns="http://www.w3.org/2000/svg">
<g clip-path="url(#clip0_492_11639)">
<path d="M103.58 27.0388L61.4196 2.69782C57.4448 0.40281 52.5552 0.40281 48.5804 2.69782L6.41961 27.0388C2.4448 29.3285 0 33.5708 0 38.1555V86.8375C0 91.4275 2.4448 95.6644 6.41961 97.9541L48.5804 122.295C52.5552 124.59 57.4448 124.59 61.4196 122.295L103.58 97.9541C107.555 95.6591 110 91.4222 110 86.8375V38.1555C110 33.5708 107.555 29.3285 103.58 27.0388ZM51.298 26.2043C52.0737 24.8669 53.4593 24.0644 55.0053 24.0644C56.5514 24.0644 57.937 24.8669 58.7127 26.2043L86.1084 73.6559C87.0124 75.218 86.852 77.1225 85.7071 78.5134C84.8726 79.5245 83.6689 80.0755 82.4224 80.0755C81.9517 80.0755 81.4809 80.0006 81.0155 79.8401L58.6592 72.1633C56.3053 71.3555 53.7161 71.3555 51.3622 72.1633L29.0059 79.8401C27.2994 80.4232 25.4591 79.9043 24.3143 78.5134C23.1694 77.1225 23.0089 75.2126 23.913 73.6559L51.3087 26.2043H51.298ZM10.801 78.0426C10.6084 78.0426 10.4158 78.0159 10.2232 77.9677C9.26029 77.7109 8.63437 76.9031 8.62902 75.9081L8.46853 44.4413C8.44713 40.199 10.7207 36.2617 14.4067 34.1593L41.7382 18.565C42.5994 18.0728 43.6159 18.2065 44.3167 18.9127C45.0175 19.6188 45.1512 20.6299 44.6537 21.4912L12.6252 76.962C12.2294 77.6467 11.5499 78.0373 10.801 78.0373V78.0426ZM88.0289 95.4184L61.4303 109.991C59.4188 111.093 57.2094 111.644 55.0053 111.644C52.8013 111.644 50.5919 111.093 48.5804 109.991L21.9818 95.4184C21.051 94.9101 20.5213 93.9365 20.6016 92.8773C20.6818 91.818 21.3452 90.9353 22.3402 90.5662L50.3672 80.1932C53.363 79.0858 56.6584 79.0858 59.6542 80.1932L87.6811 90.5662C88.6762 90.9353 89.3395 91.818 89.4198 92.8773C89.5 93.9365 88.9704 94.9101 88.0396 95.4184H88.0289ZM101.371 75.9135C101.371 76.9085 100.74 77.7163 99.7821 77.9731C99.5895 78.0266 99.3916 78.048 99.2043 78.048C98.4554 78.048 97.776 77.6574 97.3801 76.9727L65.3516 21.5019C64.8541 20.6406 64.9878 19.6295 65.6886 18.9234C66.3895 18.2172 67.4005 18.0835 68.2672 18.5757L95.5987 34.17C99.2846 36.2724 101.558 40.2097 101.537 44.452L101.376 75.9188L101.371 75.9135Z" fill="white"/>
<path d="M44.3171 18.9171C43.6163 18.2109 42.5998 18.0718 41.7385 18.5693L14.407 34.1636C10.7265 36.2661 8.4475 40.2034 8.4689 44.4457L8.62939 75.9125C8.62939 76.9075 9.26065 77.7153 10.2236 77.9721C10.4162 78.0256 10.6141 78.047 10.8014 78.047C11.5503 78.047 12.2297 77.6565 12.6256 76.9717L44.6541 21.501C45.1516 20.6397 45.0179 19.6286 44.3171 18.9224V18.9171Z" fill="#914FED"/>
<path d="M95.5921 34.1613L68.2606 18.567C67.3939 18.0749 66.3828 18.2086 65.682 18.9148C64.9812 19.6209 64.8475 20.632 65.345 21.4933L97.3735 76.9641C97.7694 77.6488 98.4488 78.0393 99.1977 78.0393C99.385 78.0393 99.5829 78.0126 99.7755 77.9645C100.738 77.7077 101.359 76.8999 101.364 75.9048L101.525 44.438C101.546 40.1958 99.2726 36.2584 95.5867 34.156L95.5921 34.1613Z" fill="#914FED"/>
<path d="M24.3046 78.5115C25.4494 79.9024 27.2897 80.4213 28.9963 79.8382L51.3526 72.1614C53.7064 71.3536 56.2957 71.3536 58.6495 72.1614L81.0058 79.8382C81.4712 79.9987 81.9474 80.0736 82.4128 80.0736C83.6646 80.0736 84.8629 79.5226 85.6975 78.5115C86.8423 77.1206 87.0028 75.2107 86.0987 73.654L58.703 26.2024C57.9273 24.865 56.5418 24.0625 54.9957 24.0625C53.4496 24.0625 52.0641 24.865 51.2884 26.2024L23.8927 73.654C22.9886 75.2161 23.1491 77.1206 24.2939 78.5115H24.3046Z" fill="#1D69F4"/>
<path d="M87.6696 90.559L59.6426 80.186C56.6468 79.0786 53.3514 79.0786 50.3556 80.186L22.3287 90.559C21.3336 90.9282 20.6649 91.8108 20.59 92.8701C20.5098 93.9293 21.0394 94.903 21.9702 95.4112L48.5688 109.984C50.5803 111.086 52.7897 111.637 54.9938 111.637C57.1978 111.637 59.4072 111.086 61.4187 109.984L88.0173 95.4112C88.9481 94.903 89.4778 93.9293 89.3975 92.8701C89.3173 91.8108 88.6539 90.9282 87.6589 90.559H87.6696Z" fill="#488DF3"/>
</g>
<path d="M381.793 71.6306V70.2757C381.793 65.872 382.668 62.1175 384.418 59.0124C386.168 55.8507 388.483 53.4513 391.363 51.814C394.298 50.1203 397.488 49.2734 400.932 49.2734C404.771 49.2734 407.679 49.9509 409.655 51.3059C411.631 52.6609 413.07 54.0723 413.974 55.5402H415.498V50.459H425.999V99.9159C425.999 102.795 425.152 105.082 423.459 106.775C421.765 108.526 419.507 109.401 416.684 109.401H388.568V100.085H412.958C414.538 100.085 415.329 99.2384 415.329 97.5447V86.6201H413.804C413.24 87.5234 412.449 88.455 411.433 89.4148C410.417 90.3181 409.062 91.0803 407.368 91.7013C405.674 92.3223 403.529 92.6328 400.932 92.6328C397.488 92.6328 394.298 91.8142 391.363 90.1769C388.483 88.4832 386.168 86.0838 384.418 82.9786C382.668 79.817 381.793 76.0343 381.793 71.6306ZM403.981 83.3174C407.255 83.3174 409.994 82.2729 412.195 80.184C414.397 78.095 415.498 75.1592 415.498 71.3766V70.5297C415.498 66.6906 414.397 63.7548 412.195 61.7223C410.05 59.6334 407.312 58.5889 403.981 58.5889C400.706 58.5889 397.968 59.6334 395.766 61.7223C393.564 63.7548 392.463 66.6906 392.463 70.5297V71.3766C392.463 75.1592 393.564 78.095 395.766 80.184C397.968 82.2729 400.706 83.3174 403.981 83.3174Z" fill="white"/>
<path d="M331.643 92.4632V50.4587H342.144V55.9634H343.668C344.346 54.4955 345.616 53.1122 347.479 51.8137C349.342 50.4587 352.165 49.7812 355.948 49.7812C359.222 49.7812 362.073 50.5434 364.501 52.0678C366.985 53.5357 368.905 55.5964 370.26 58.2499C371.615 60.8469 372.292 63.8956 372.292 67.396V92.4632H361.622V68.2429C361.622 65.0813 360.831 62.71 359.25 61.1292C357.726 59.5484 355.524 58.758 352.645 58.758C349.37 58.758 346.83 59.8589 345.023 62.0608C343.216 64.2062 342.313 67.2266 342.313 71.1222V92.4632H331.643Z" fill="white"/>
<path d="M295.726 93.6491C292.734 93.6491 290.052 93.141 287.681 92.1247C285.31 91.052 283.419 89.5277 282.007 87.5517C280.652 85.5192 279.975 83.0633 279.975 80.184C279.975 77.3046 280.652 74.9052 282.007 72.9856C283.419 71.0096 285.338 69.5417 287.766 68.5819C290.25 67.5657 293.073 67.0576 296.234 67.0576H307.752V64.6864C307.752 62.7103 307.131 61.1013 305.889 59.8592C304.647 58.5607 302.671 57.9114 299.961 57.9114C297.307 57.9114 295.331 58.5325 294.033 59.7745C292.734 60.9602 291.887 62.5127 291.492 64.4323L281.668 61.1295C282.346 58.9841 283.419 57.0364 284.886 55.2862C286.411 53.4795 288.415 52.0399 290.899 50.9672C293.44 49.838 296.517 49.2734 300.13 49.2734C305.663 49.2734 310.038 50.6566 313.256 53.4231C316.474 56.1895 318.083 60.198 318.083 65.4485V81.1155C318.083 82.8092 318.874 83.6561 320.455 83.6561H323.842V92.4635H316.728C314.64 92.4635 312.918 91.9554 311.563 90.9391C310.208 89.9229 309.53 88.5679 309.53 86.8742V86.7895H307.921C307.695 87.467 307.187 88.3703 306.397 89.4995C305.606 90.5721 304.364 91.5319 302.671 92.3788C300.977 93.2257 298.662 93.6491 295.726 93.6491ZM297.589 85.0111C300.582 85.0111 303.009 84.1924 304.872 82.5552C306.792 80.8614 307.752 78.6314 307.752 75.865V75.0181H296.997C295.021 75.0181 293.468 75.4415 292.339 76.2884C291.21 77.1352 290.645 78.3209 290.645 79.8452C290.645 81.3696 291.238 82.6116 292.423 83.5714C293.609 84.5312 295.331 85.0111 297.589 85.0111Z" fill="white"/>
<path d="M255.352 92.462V58.0149H244.279V48.8758H255.352V40.7913C255.352 37.8035 256.23 35.4309 257.988 33.6734C259.804 31.8573 262.147 30.9492 265.018 30.9492H276.442V40.0883H268.884C267.244 40.0883 266.424 40.967 266.424 42.7245V48.8758H277.848V58.0149H266.424V92.462H255.352Z" fill="white"/>
<path d="M221.574 93.6491C217.396 93.6491 213.698 92.774 210.48 91.0238C207.318 89.2172 204.834 86.7048 203.028 83.4867C201.277 80.2122 200.402 76.3731 200.402 71.9694V70.9531C200.402 66.5495 201.277 62.7386 203.028 59.5205C204.778 56.2459 207.234 53.7336 210.395 51.9834C213.557 50.1768 217.227 49.2734 221.405 49.2734C225.526 49.2734 229.111 50.205 232.16 52.0681C235.208 53.8747 237.58 56.4153 239.273 59.6899C240.967 62.9079 241.814 66.6624 241.814 70.9531V74.5947H211.242C211.355 77.474 212.428 79.817 214.46 81.6236C216.493 83.4303 218.977 84.3336 221.913 84.3336C224.905 84.3336 227.107 83.6843 228.518 82.3858C229.93 81.0873 231.002 79.6476 231.736 78.0668L240.459 82.6399C239.669 84.1078 238.511 85.7168 236.987 87.467C235.519 89.1607 233.543 90.6286 231.059 91.8707C228.575 93.0563 225.413 93.6491 221.574 93.6491ZM211.327 66.6341H230.974C230.748 64.2065 229.76 62.2587 228.01 60.7908C226.316 59.3229 224.086 58.5889 221.32 58.5889C218.441 58.5889 216.154 59.3229 214.46 60.7908C212.767 62.2587 211.722 64.2065 211.327 66.6341Z" fill="white"/>
<path d="M144 92.4601V82.6365H151.791V43.0033H144V33.1797H168.39C176.35 33.1797 182.391 35.2122 186.513 39.2771C190.69 43.2856 192.779 49.2701 192.779 57.2306V68.4092C192.779 76.3697 190.69 82.3825 186.513 86.4474C182.391 90.4559 176.35 92.4601 168.39 92.4601H144ZM162.97 82.2978H168.559C173.076 82.2978 176.378 81.1122 178.467 78.7409C180.556 76.3697 181.601 73.0387 181.601 68.748V56.8919C181.601 52.5446 180.556 49.2136 178.467 46.8989C176.378 44.5277 173.076 43.342 168.559 43.342H162.97V82.2978Z" fill="white"/>
<defs>
<clipPath id="clip0_492_11639">
<rect width="110" height="123.048" fill="white" transform="translate(0 0.980469)"/>
</clipPath>
</defs>
</svg>
