<svg width="207" height="231" viewBox="0 0 207 231" fill="none" xmlns="http://www.w3.org/2000/svg">
<g clip-path="url(#clip0_1042_10959)">
<path d="M194.978 48.8075L116.022 3.22345C108.578 -1.07448 99.4216 -1.07448 91.9778 3.22345L13.0222 48.8075C5.57845 53.0954 1 61.0401 1 69.6259V160.794C1 169.38 5.57845 177.325 13.0222 181.613L91.9778 227.197C99.4216 231.495 108.578 231.495 116.022 227.197L194.978 181.613C202.422 177.315 207 169.38 207 160.794V69.6259C207 61.0401 202.422 53.0954 194.978 48.8075ZM108.338 48.7474L159.643 137.611C161.256 140.407 159.693 142.671 159.172 143.302C158.651 143.933 156.727 145.907 153.682 144.855L111.814 130.478C106.775 128.745 101.235 128.745 96.1956 130.478L54.3284 144.855C51.2828 145.907 49.3492 143.933 48.8382 143.302C48.3173 142.671 46.7544 140.407 48.3674 137.611L99.672 48.7474C100.974 46.4832 103.138 46.2428 104.01 46.2428C104.882 46.2428 107.046 46.4832 108.348 48.7474H108.338ZM18.1617 140.326L17.8611 81.3977C17.821 73.8036 21.8785 66.7807 28.4707 63.0137L79.6551 33.8099C82.32 32.2871 85.2855 35.2626 83.7426 37.9275L23.762 141.809C22.2292 144.464 18.1717 143.392 18.1516 140.326H18.1617ZM165.373 175.982L115.561 203.272C108.368 207.22 99.652 207.22 92.4487 203.272L42.6368 175.982C39.6212 174.329 39.9519 169.901 43.1678 168.709L95.6546 149.283C101.045 147.289 106.965 147.289 112.345 149.283L164.832 168.709C168.058 169.901 168.379 174.329 165.363 175.982H165.373ZM189.838 140.336C189.818 143.402 185.761 144.474 184.228 141.819L124.247 37.9375C122.715 35.2826 125.68 32.3071 128.335 33.8199L179.519 63.0238C186.111 66.7907 190.169 73.8137 190.129 81.4077L189.828 140.336H189.838Z" fill="#0F0F0F"/>
<mask id="mask0_1042_10959" style="mask-type:alpha" maskUnits="userSpaceOnUse" x="17" y="33" width="174" height="174">
<path fill-rule="evenodd" clip-rule="evenodd" d="M79.6656 33.807L28.4812 63.0108C21.889 66.7778 17.8316 73.8008 17.8716 81.3948L18.1722 140.323C18.1922 143.389 22.2497 144.471 23.7825 141.806L83.7632 37.9246C85.296 35.2697 82.3305 32.2942 79.6756 33.807H79.6656ZM164.833 168.705L112.346 149.28C106.956 147.286 101.035 147.286 95.6554 149.28L43.1686 168.705C39.9427 169.898 39.6221 174.326 42.6376 175.979L92.4495 203.269C99.6428 207.216 108.359 207.216 115.562 203.269L165.374 175.979C168.39 174.326 168.059 169.898 164.843 168.705H164.833ZM128.346 33.8194L179.53 63.0233H179.54C186.132 66.7902 190.19 73.8132 190.15 81.4072L189.849 140.336C189.829 143.402 185.772 144.474 184.239 141.819L124.258 37.937C122.715 35.2721 125.681 32.2966 128.346 33.8194Z" fill="#B078FF"/>
</mask>
<g mask="url(#mask0_1042_10959)">
<path d="M79.6656 33.807L28.4812 63.0108C21.889 66.7778 17.8316 73.8008 17.8716 81.3948L18.1722 140.323C18.1922 143.389 22.2497 144.471 23.7825 141.806L83.7632 37.9246C85.296 35.2697 82.3305 32.2942 79.6756 33.807H79.6656Z" fill="#B078FF"/>
<path d="M164.833 168.705L112.346 149.28C106.956 147.286 101.035 147.286 95.6555 149.28L43.1687 168.705C39.9427 169.898 39.6221 174.326 42.6377 175.979L92.4496 203.269C99.6429 207.216 108.359 207.216 115.562 203.269L165.374 175.979C168.39 174.326 168.059 169.898 164.843 168.705H164.833Z" fill="#83B5FF"/>
<path d="M179.53 63.0232L128.346 33.8194C125.681 32.2966 122.716 35.2721 124.258 37.937L184.239 141.819C185.772 144.473 189.829 143.402 189.849 140.336L190.15 81.4072C190.19 73.8132 186.133 66.7902 179.54 63.0232H179.53Z" fill="#B078FF"/>
<circle cx="104" cy="111.826" r="97.1143" fill="url(#paint0_radial_1042_10959)" fill-opacity="0.4"/>
</g>
<mask id="mask1_1042_10959" style="mask-type:alpha" maskUnits="userSpaceOnUse" x="47" y="46" width="114" height="100">
<path d="M108.338 48.7464C107.036 46.4823 104.872 46.2418 104 46.2418C103.129 46.2418 100.965 46.4823 99.6625 48.7464L48.3578 137.61C46.7449 140.406 48.3077 142.67 48.8287 143.301C49.3497 143.932 51.2732 145.906 54.3188 144.854L96.1861 130.477C101.215 128.754 106.766 128.744 111.805 130.477L153.672 144.854C156.718 145.906 158.651 143.932 159.162 143.301C159.683 142.67 161.246 140.406 159.633 137.61L108.328 48.7464H108.338Z" fill="#1D69F4"/>
</mask>
<g mask="url(#mask1_1042_10959)">
<g filter="url(#filter0_i_1042_10959)">
<circle cx="104" cy="108.883" r="67.6857" fill="#1D69F4"/>
</g>
</g>
</g>
<defs>
<filter id="filter0_i_1042_10959" x="36.3142" y="41.1978" width="135.371" height="135.371" filterUnits="userSpaceOnUse" color-interpolation-filters="sRGB">
<feFlood flood-opacity="0" result="BackgroundImageFix"/>
<feBlend mode="normal" in="SourceGraphic" in2="BackgroundImageFix" result="shape"/>
<feColorMatrix in="SourceAlpha" type="matrix" values="0 0 0 0 0 0 0 0 0 0 0 0 0 0 0 0 0 0 127 0" result="hardAlpha"/>
<feMorphology radius="14.7143" operator="erode" in="SourceAlpha" result="effect1_innerShadow_1042_10959"/>
<feOffset/>
<feGaussianBlur stdDeviation="35.3143"/>
<feComposite in2="hardAlpha" operator="arithmetic" k2="-1" k3="1"/>
<feColorMatrix type="matrix" values="0 0 0 0 0.592285 0 0 0 0 0.911661 0 0 0 0 1 0 0 0 0.79 0"/>
<feBlend mode="normal" in2="shape" result="effect1_innerShadow_1042_10959"/>
</filter>
<radialGradient id="paint0_radial_1042_10959" cx="0" cy="0" r="1" gradientUnits="userSpaceOnUse" gradientTransform="translate(104 111.826) rotate(90) scale(97.1143)">
<stop offset="0.685" stop-color="white" stop-opacity="0"/>
<stop offset="1" stop-color="white"/>
</radialGradient>
<clipPath id="clip0_1042_10959">
<rect width="206" height="230.435" fill="white" transform="translate(0.810059 0.175293)"/>
</clipPath>
</defs>
</svg>
