<svg width="206" height="231" viewBox="0 0 206 231" fill="none" xmlns="http://www.w3.org/2000/svg">
<g clip-path="url(#clip0_633_24415)">
<path d="M193.978 48.8544L115.022 3.27032C107.578 -1.02761 98.4216 -1.02761 90.9778 3.27032L12.0222 48.8544C4.57845 53.1423 0 61.087 0 69.6728V160.841C0 169.437 4.57845 177.371 12.0222 181.659L90.9778 227.243C98.4216 231.541 107.578 231.541 115.022 227.243L193.978 181.659C201.422 177.361 206 169.427 206 160.841V69.6728C206 61.087 201.422 53.1423 193.978 48.8544ZM96.0672 47.2915C97.5199 44.7869 100.115 43.2841 103.01 43.2841C105.905 43.2841 108.5 44.7869 109.953 47.2915L161.257 136.155C162.951 139.081 162.65 142.647 160.506 145.252C158.943 147.146 156.689 148.178 154.355 148.178C153.473 148.178 152.591 148.037 151.72 147.737L109.853 133.36C105.445 131.848 100.596 131.848 96.1874 133.36L54.3202 147.737C51.1243 148.829 47.678 147.857 45.534 145.252C43.39 142.647 43.0895 139.071 44.7826 136.155L96.0873 47.2915H96.0672ZM20.2273 144.371C19.8666 144.371 19.506 144.321 19.1453 144.23C17.342 143.749 16.1698 142.237 16.1598 140.373L15.8593 81.4445C15.8192 73.4999 20.077 66.1263 26.9798 62.189L78.1642 32.9851C79.7772 32.0634 81.6807 32.3139 82.9931 33.6363C84.3055 34.9588 84.556 36.8523 83.6243 38.4652L23.6436 142.347C22.9022 143.629 21.6299 144.361 20.2273 144.361V144.371ZM164.854 176.911L115.042 204.201C111.275 206.265 107.138 207.297 103.01 207.297C98.8824 207.297 94.7448 206.265 90.9778 204.201L41.1659 176.911C39.4227 175.959 38.4309 174.136 38.5812 172.152C38.7314 170.168 39.9737 168.515 41.8372 167.824L94.324 148.398C99.9343 146.324 106.106 146.324 111.716 148.398L164.203 167.824C166.066 168.515 167.309 170.168 167.459 172.152C167.609 174.136 166.617 175.959 164.874 176.911H164.854ZM189.84 140.383C189.84 142.247 188.658 143.759 186.865 144.24C186.504 144.341 186.133 144.381 185.783 144.381C184.38 144.381 183.108 143.649 182.366 142.367L122.386 38.4853C121.454 36.8723 121.705 34.9788 123.017 33.6564C124.329 32.3339 126.223 32.0835 127.846 33.0052L179.03 62.209C185.933 66.1463 190.191 73.5199 190.151 81.4646L189.85 140.393L189.84 140.383Z" fill="white"/>
</g>
<defs>
<clipPath id="clip0_633_24415">
<rect width="206" height="230.435" fill="white" transform="translate(0 0.0546875)"/>
</clipPath>
</defs>
</svg>
