<svg width="233" height="46" viewBox="0 0 233 46" fill="none" xmlns="http://www.w3.org/2000/svg">
<rect width="232.5" height="46" rx="12" fill="url(#paint0_linear_994_10746)"/>
<g clip-path="url(#clip0_994_10746)">
<path d="M35.1869 15.746L26.5631 10.7671C25.7501 10.2977 24.7499 10.2977 23.9369 10.7671L15.3131 15.746C14.5001 16.2143 14 17.082 14 18.0198V27.9775C14 28.9164 14.5001 29.783 15.3131 30.2514L23.9369 35.2302C24.7499 35.6996 25.7501 35.6996 26.5631 35.2302L35.1869 30.2514C35.9999 29.7819 36.5 28.9153 36.5 27.9775V18.0198C36.5 17.082 35.9999 16.2143 35.1869 15.746ZM24.4928 15.5753C24.6514 15.3017 24.9349 15.1376 25.2511 15.1376C25.5673 15.1376 25.8507 15.3017 26.0094 15.5753L31.6131 25.2813C31.798 25.6008 31.7652 25.9903 31.531 26.2748C31.3603 26.4817 31.1141 26.5944 30.8591 26.5944C30.7628 26.5944 30.6665 26.5791 30.5713 26.5462L25.9985 24.976C25.517 24.8107 24.9874 24.8107 24.5059 24.976L19.933 26.5462C19.584 26.6655 19.2075 26.5594 18.9734 26.2748C18.7392 25.9903 18.7064 25.5997 18.8913 25.2813L24.495 15.5753H24.4928ZM16.2093 26.1786C16.1699 26.1786 16.1305 26.1731 16.0911 26.1632C15.8941 26.1107 15.7661 25.9455 15.765 25.7419L15.7322 19.3056C15.7278 18.4378 16.1929 17.6324 16.9468 17.2024L22.5374 14.0127C22.7135 13.912 22.9214 13.9393 23.0648 14.0838C23.2081 14.2282 23.2355 14.435 23.1337 14.6112L16.5824 25.9575C16.5015 26.0976 16.3625 26.1775 16.2093 26.1775V26.1786ZM32.0059 29.7327L26.5653 32.7134C26.1539 32.9388 25.7019 33.0515 25.2511 33.0515C24.8003 33.0515 24.3483 32.9388 23.9369 32.7134L18.4963 29.7327C18.3059 29.6287 18.1975 29.4296 18.214 29.2129C18.2304 28.9963 18.3661 28.8157 18.5696 28.7402L24.3024 26.6184C24.9152 26.3919 25.5892 26.3919 26.202 26.6184L31.9348 28.7402C32.1383 28.8157 32.274 28.9963 32.2904 29.2129C32.3068 29.4296 32.1985 29.6287 32.0081 29.7327H32.0059ZM34.735 25.743C34.735 25.9466 34.6059 26.1118 34.41 26.1643C34.3706 26.1753 34.3301 26.1796 34.2918 26.1796C34.1386 26.1796 33.9996 26.0998 33.9187 25.9597L27.3674 14.6134C27.2656 14.4372 27.293 14.2304 27.4363 14.086C27.5797 13.9415 27.7865 13.9142 27.9637 14.0149L33.5543 17.2046C34.3082 17.6346 34.7733 18.44 34.7689 19.3077L34.7361 25.7441L34.735 25.743Z" fill="white"/>
<path d="M23.065 14.0848C22.9217 13.9403 22.7138 13.9119 22.5376 14.0137L16.9471 17.2034C16.1942 17.6334 15.7281 18.4388 15.7325 19.3065L15.7653 25.7429C15.7653 25.9465 15.8944 26.1117 16.0914 26.1642C16.1308 26.1752 16.1712 26.1795 16.2095 26.1795C16.3627 26.1795 16.5017 26.0997 16.5827 25.9596L23.134 14.6133C23.2357 14.4371 23.2084 14.2303 23.065 14.0859V14.0848Z" fill="#914FED"/>
<path d="M33.5526 17.2029L27.962 14.0132C27.7848 13.9125 27.578 13.9399 27.4346 14.0843C27.2913 14.2287 27.2639 14.4356 27.3657 14.6117L33.917 25.958C33.9979 26.0981 34.1369 26.178 34.2901 26.178C34.3284 26.178 34.3689 26.1725 34.4083 26.1627C34.6052 26.1101 34.7322 25.9449 34.7333 25.7414L34.7661 19.305C34.7705 18.4372 34.3054 17.6319 33.5515 17.2018L33.5526 17.2029Z" fill="#914FED"/>
<path d="M18.9709 26.275C19.2051 26.5595 19.5815 26.6656 19.9306 26.5464L24.5034 24.9761C24.9849 24.8109 25.5145 24.8109 25.996 24.9761L30.5689 26.5464C30.6641 26.5792 30.7615 26.5945 30.8567 26.5945C31.1127 26.5945 31.3578 26.4818 31.5285 26.275C31.7627 25.9905 31.7955 25.5998 31.6106 25.2814L26.0069 15.5754C25.8483 15.3018 25.5649 15.1377 25.2486 15.1377C24.9324 15.1377 24.649 15.3018 24.4903 15.5754L18.8867 25.2814C18.7017 25.6009 18.7346 25.9905 18.9687 26.275H18.9709Z" fill="#1D69F4"/>
<path d="M31.9334 28.7389L26.2006 26.6171C25.5878 26.3906 24.9138 26.3906 24.301 26.6171L18.5682 28.7389C18.3647 28.8144 18.2279 28.995 18.2126 29.2116C18.1962 29.4283 18.3045 29.6274 18.4949 29.7314L23.9355 32.7121C24.3469 32.9375 24.7989 33.0503 25.2497 33.0503C25.7005 33.0503 26.1525 32.9375 26.5639 32.7121L32.0045 29.7314C32.1949 29.6274 32.3032 29.4283 32.2868 29.2116C32.2704 28.995 32.1347 28.8144 31.9312 28.7389H31.9334Z" fill="#62A1FF"/>
</g>
<line x1="51" y1="9" x2="51" y2="37" stroke="white"/>
<path d="M69.6143 28.5H65.6712V16.8636H69.6939C70.8492 16.8636 71.8416 17.0966 72.6712 17.5625C73.5045 18.0246 74.1447 18.6894 74.5916 19.5568C75.0386 20.4242 75.2621 21.4621 75.2621 22.6705C75.2621 23.8826 75.0367 24.9242 74.5859 25.7955C74.139 26.6667 73.4931 27.3352 72.6484 27.8011C71.8075 28.267 70.7962 28.5 69.6143 28.5ZM67.7791 26.6761H69.5121C70.3227 26.6761 70.9988 26.5284 71.5405 26.233C72.0821 25.9337 72.4893 25.4886 72.7621 24.8977C73.0348 24.303 73.1712 23.5606 73.1712 22.6705C73.1712 21.7803 73.0348 21.0417 72.7621 20.4545C72.4893 19.8636 72.0859 19.4223 71.5518 19.1307C71.0215 18.8352 70.3625 18.6875 69.5746 18.6875H67.7791V26.6761ZM81.0376 28.6705C80.1626 28.6705 79.407 28.4886 78.7706 28.125C78.138 27.7576 77.6513 27.2386 77.3104 26.5682C76.9695 25.8939 76.799 25.1004 76.799 24.1875C76.799 23.2898 76.9695 22.5019 77.3104 21.8239C77.6551 21.142 78.1361 20.6117 78.7536 20.233C79.371 19.8504 80.0964 19.6591 80.9297 19.6591C81.4676 19.6591 81.9751 19.7462 82.4524 19.9205C82.9335 20.0909 83.3577 20.3561 83.7251 20.7159C84.0964 21.0758 84.388 21.5341 84.6001 22.0909C84.8123 22.6439 84.9183 23.303 84.9183 24.0682V24.6989H77.7649V23.3125H82.9467C82.9429 22.9186 82.8577 22.5682 82.6911 22.2614C82.5244 21.9508 82.2914 21.7064 81.9922 21.5284C81.6967 21.3504 81.352 21.2614 80.9581 21.2614C80.5376 21.2614 80.1683 21.3636 79.8501 21.5682C79.532 21.7689 79.2839 22.0341 79.1058 22.3636C78.9316 22.6894 78.8426 23.0473 78.8388 23.4375V24.6477C78.8388 25.1553 78.9316 25.5909 79.1172 25.9545C79.3028 26.3144 79.5623 26.5909 79.8956 26.7841C80.2289 26.9735 80.6191 27.0682 81.0661 27.0682C81.3653 27.0682 81.6361 27.0265 81.8786 26.9432C82.121 26.8561 82.3312 26.7292 82.5092 26.5625C82.6873 26.3958 82.8217 26.1894 82.9126 25.9432L84.8331 26.1591C84.7119 26.6667 84.4808 27.1098 84.1399 27.4886C83.8028 27.8636 83.371 28.1553 82.8445 28.3636C82.3179 28.5682 81.7157 28.6705 81.0376 28.6705ZM86.6584 31.7727V19.7727H88.6811V21.2159H88.8004C88.9065 21.0038 89.0561 20.7784 89.2493 20.5398C89.4425 20.2973 89.7038 20.0909 90.0334 19.9205C90.3629 19.7462 90.7834 19.6591 91.2947 19.6591C91.969 19.6591 92.5769 19.8314 93.1186 20.1761C93.6641 20.517 94.0959 21.0227 94.4141 21.6932C94.736 22.3598 94.897 23.178 94.897 24.1477C94.897 25.1061 94.7398 25.9205 94.4254 26.5909C94.111 27.2614 93.683 27.7727 93.1413 28.125C92.5997 28.4773 91.986 28.6534 91.3004 28.6534C90.8004 28.6534 90.3857 28.5701 90.0561 28.4034C89.7266 28.2367 89.4614 28.036 89.2607 27.8011C89.0637 27.5625 88.9103 27.3371 88.8004 27.125H88.7152V31.7727H86.6584ZM88.6754 24.1364C88.6754 24.7008 88.755 25.1951 88.9141 25.6193C89.0769 26.0436 89.3099 26.375 89.6129 26.6136C89.9197 26.8485 90.291 26.9659 90.7266 26.9659C91.1811 26.9659 91.5618 26.8447 91.8686 26.6023C92.1754 26.3561 92.4065 26.0208 92.5618 25.5966C92.7209 25.1686 92.8004 24.6818 92.8004 24.1364C92.8004 23.5947 92.7228 23.1136 92.5675 22.6932C92.4122 22.2727 92.1811 21.9432 91.8743 21.7045C91.5675 21.4659 91.1849 21.3466 90.7266 21.3466C90.2872 21.3466 89.9141 21.4621 89.6072 21.6932C89.3004 21.9242 89.0675 22.2481 88.9084 22.6648C88.7531 23.0814 88.6754 23.572 88.6754 24.1364ZM98.7152 16.8636V28.5H96.6584V16.8636H98.7152ZM104.637 28.6705C103.785 28.6705 103.046 28.483 102.421 28.108C101.796 27.733 101.311 27.2083 100.967 26.5341C100.626 25.8598 100.455 25.072 100.455 24.1705C100.455 23.2689 100.626 22.4792 100.967 21.8011C101.311 21.1231 101.796 20.5966 102.421 20.2216C103.046 19.8466 103.785 19.6591 104.637 19.6591C105.489 19.6591 106.228 19.8466 106.853 20.2216C107.478 20.5966 107.961 21.1231 108.302 21.8011C108.647 22.4792 108.819 23.2689 108.819 24.1705C108.819 25.072 108.647 25.8598 108.302 26.5341C107.961 27.2083 107.478 27.733 106.853 28.108C106.228 28.483 105.489 28.6705 104.637 28.6705ZM104.648 27.0227C105.111 27.0227 105.497 26.8958 105.808 26.642C106.118 26.3845 106.349 26.0398 106.501 25.608C106.656 25.1761 106.734 24.6951 106.734 24.1648C106.734 23.6307 106.656 23.1477 106.501 22.7159C106.349 22.2803 106.118 21.9337 105.808 21.6761C105.497 21.4186 105.111 21.2898 104.648 21.2898C104.175 21.2898 103.781 21.4186 103.467 21.6761C103.156 21.9337 102.923 22.2803 102.768 22.7159C102.616 23.1477 102.54 23.6307 102.54 24.1648C102.54 24.6951 102.616 25.1761 102.768 25.608C102.923 26.0398 103.156 26.3845 103.467 26.642C103.781 26.8958 104.175 27.0227 104.648 27.0227ZM111.546 31.7727C111.266 31.7727 111.006 31.75 110.768 31.7045C110.533 31.6629 110.345 31.6136 110.205 31.5568L110.683 29.9545C110.982 30.0417 111.249 30.0833 111.484 30.0795C111.719 30.0758 111.925 30.0019 112.103 29.858C112.285 29.7178 112.438 29.483 112.563 29.1534L112.739 28.6818L109.575 19.7727H111.756L113.768 26.3636H113.859L115.876 19.7727H118.063L114.569 29.5568C114.406 30.0189 114.19 30.4148 113.921 30.7443C113.652 31.0777 113.323 31.3314 112.933 31.5057C112.546 31.6837 112.084 31.7727 111.546 31.7727ZM125.995 28.5L122.711 16.8636H124.978L127.075 25.4148H127.183L129.421 16.8636H131.484L133.728 25.4205H133.83L135.927 16.8636H138.194L134.91 28.5H132.83L130.501 20.3352H130.41L128.075 28.5H125.995ZM139.565 28.5V19.7727H141.621V28.5H139.565ZM140.599 18.5341C140.273 18.5341 139.993 18.4261 139.758 18.2102C139.523 17.9905 139.406 17.7273 139.406 17.4205C139.406 17.1098 139.523 16.8466 139.758 16.6307C139.993 16.411 140.273 16.3011 140.599 16.3011C140.928 16.3011 141.209 16.411 141.44 16.6307C141.674 16.8466 141.792 17.1098 141.792 17.4205C141.792 17.7273 141.674 17.9905 141.44 18.2102C141.209 18.4261 140.928 18.5341 140.599 18.5341ZM148.094 19.7727V21.3636H143.077V19.7727H148.094ZM144.316 17.6818H146.373V25.875C146.373 26.1515 146.415 26.3636 146.498 26.5114C146.585 26.6553 146.699 26.7538 146.839 26.8068C146.979 26.8598 147.134 26.8864 147.305 26.8864C147.433 26.8864 147.551 26.8769 147.657 26.858C147.767 26.839 147.85 26.822 147.907 26.8068L148.254 28.4148C148.144 28.4527 147.987 28.4943 147.782 28.5398C147.581 28.5852 147.335 28.6117 147.043 28.6193C146.528 28.6345 146.064 28.5568 145.651 28.3864C145.238 28.2121 144.911 27.9432 144.668 27.5795C144.43 27.2159 144.312 26.7614 144.316 26.2159V17.6818ZM152.059 23.3864V28.5H150.002V16.8636H152.013V21.2557H152.116C152.32 20.7633 152.637 20.375 153.065 20.0909C153.496 19.803 154.046 19.6591 154.712 19.6591C155.318 19.6591 155.847 19.786 156.298 20.0398C156.748 20.2936 157.097 20.6648 157.343 21.1534C157.593 21.642 157.718 22.2386 157.718 22.9432V28.5H155.661V23.2614C155.661 22.6742 155.51 22.2178 155.207 21.892C154.907 21.5625 154.487 21.3977 153.945 21.3977C153.582 21.3977 153.256 21.4773 152.968 21.6364C152.684 21.7917 152.46 22.017 152.298 22.3125C152.138 22.608 152.059 22.9659 152.059 23.3864ZM167.817 28.5H163.874V16.8636H167.897C169.052 16.8636 170.045 17.0966 170.874 17.5625C171.708 18.0246 172.348 18.6894 172.795 19.5568C173.242 20.4242 173.465 21.4621 173.465 22.6705C173.465 23.8826 173.24 24.9242 172.789 25.7955C172.342 26.6667 171.696 27.3352 170.852 27.8011C170.011 28.267 168.999 28.5 167.817 28.5ZM165.982 26.6761H167.715C168.526 26.6761 169.202 26.5284 169.744 26.233C170.285 25.9337 170.692 25.4886 170.965 24.8977C171.238 24.303 171.374 23.5606 171.374 22.6705C171.374 21.7803 171.238 21.0417 170.965 20.4545C170.692 19.8636 170.289 19.4223 169.755 19.1307C169.225 18.8352 168.566 18.6875 167.778 18.6875H165.982V26.6761ZM179.241 28.6705C178.366 28.6705 177.61 28.4886 176.974 28.125C176.341 27.7576 175.854 27.2386 175.513 26.5682C175.173 25.8939 175.002 25.1004 175.002 24.1875C175.002 23.2898 175.173 22.5019 175.513 21.8239C175.858 21.142 176.339 20.6117 176.957 20.233C177.574 19.8504 178.299 19.6591 179.133 19.6591C179.671 19.6591 180.178 19.7462 180.656 19.9205C181.137 20.0909 181.561 20.3561 181.928 20.7159C182.299 21.0758 182.591 21.5341 182.803 22.0909C183.015 22.6439 183.121 23.303 183.121 24.0682V24.6989H175.968V23.3125H181.15C181.146 22.9186 181.061 22.5682 180.894 22.2614C180.728 21.9508 180.495 21.7064 180.195 21.5284C179.9 21.3504 179.555 21.2614 179.161 21.2614C178.741 21.2614 178.371 21.3636 178.053 21.5682C177.735 21.7689 177.487 22.0341 177.309 22.3636C177.135 22.6894 177.046 23.0473 177.042 23.4375V24.6477C177.042 25.1553 177.135 25.5909 177.32 25.9545C177.506 26.3144 177.765 26.5909 178.099 26.7841C178.432 26.9735 178.822 27.0682 179.269 27.0682C179.568 27.0682 179.839 27.0265 180.082 26.9432C180.324 26.8561 180.534 26.7292 180.712 26.5625C180.89 26.3958 181.025 26.1894 181.116 25.9432L183.036 26.1591C182.915 26.6667 182.684 27.1098 182.343 27.4886C182.006 27.8636 181.574 28.1553 181.048 28.3636C180.521 28.5682 179.919 28.6705 179.241 28.6705ZM189.282 19.7727V21.3636H184.123V19.7727H189.282ZM185.413 28.5V18.9489C185.413 18.3617 185.534 17.8731 185.776 17.483C186.022 17.0928 186.352 16.8011 186.765 16.608C187.178 16.4148 187.636 16.3182 188.14 16.3182C188.496 16.3182 188.812 16.3466 189.089 16.4034C189.365 16.4602 189.57 16.5114 189.702 16.5568L189.293 18.1477C189.206 18.1212 189.096 18.0947 188.964 18.0682C188.831 18.0379 188.683 18.0227 188.521 18.0227C188.138 18.0227 187.867 18.1155 187.708 18.3011C187.553 18.483 187.475 18.7443 187.475 19.0852V28.5H185.413ZM193.107 28.6761C192.554 28.6761 192.056 28.5777 191.613 28.3807C191.174 28.1799 190.825 27.8845 190.567 27.4943C190.314 27.1042 190.187 26.6231 190.187 26.0511C190.187 25.5587 190.278 25.1515 190.46 24.8295C190.641 24.5076 190.889 24.25 191.204 24.0568C191.518 23.8636 191.872 23.7178 192.266 23.6193C192.664 23.517 193.075 23.4432 193.499 23.3977C194.011 23.3447 194.425 23.2973 194.744 23.2557C195.062 23.2102 195.293 23.142 195.437 23.0511C195.585 22.9564 195.658 22.8106 195.658 22.6136V22.5795C195.658 22.1515 195.531 21.8201 195.278 21.5852C195.024 21.3504 194.658 21.233 194.181 21.233C193.677 21.233 193.278 21.3428 192.982 21.5625C192.691 21.7822 192.494 22.0417 192.391 22.3409L190.471 22.0682C190.622 21.5379 190.872 21.0947 191.221 20.7386C191.569 20.3788 191.996 20.1098 192.499 19.9318C193.003 19.75 193.56 19.6591 194.17 19.6591C194.59 19.6591 195.009 19.7083 195.425 19.8068C195.842 19.9053 196.223 20.0682 196.567 20.2955C196.912 20.5189 197.189 20.8239 197.397 21.2102C197.609 21.5966 197.715 22.0795 197.715 22.6591V28.5H195.738V27.3011H195.67C195.545 27.5436 195.369 27.7708 195.141 27.983C194.918 28.1913 194.636 28.3598 194.295 28.4886C193.958 28.6136 193.562 28.6761 193.107 28.6761ZM193.641 27.1648C194.054 27.1648 194.412 27.0833 194.715 26.9205C195.018 26.7538 195.251 26.5341 195.414 26.2614C195.581 25.9886 195.664 25.6913 195.664 25.3693V24.3409C195.6 24.3939 195.49 24.4432 195.335 24.4886C195.183 24.5341 195.013 24.5739 194.823 24.608C194.634 24.642 194.446 24.6723 194.261 24.6989C194.075 24.7254 193.914 24.7481 193.778 24.767C193.471 24.8087 193.196 24.8769 192.954 24.9716C192.711 25.0663 192.52 25.1989 192.38 25.3693C192.24 25.536 192.17 25.7519 192.17 26.017C192.17 26.3958 192.308 26.6818 192.585 26.875C192.861 27.0682 193.213 27.1648 193.641 27.1648ZM201.84 23.3864V28.5H199.783V19.7727H201.749V21.2557H201.852C202.052 20.767 202.372 20.3788 202.812 20.0909C203.255 19.803 203.802 19.6591 204.454 19.6591C205.056 19.6591 205.581 19.7879 206.028 20.0455C206.478 20.303 206.827 20.6761 207.073 21.1648C207.323 21.6534 207.446 22.2462 207.442 22.9432V28.5H205.386V23.2614C205.386 22.678 205.234 22.2216 204.931 21.892C204.632 21.5625 204.217 21.3977 203.687 21.3977C203.327 21.3977 203.007 21.4773 202.727 21.6364C202.45 21.7917 202.232 22.017 202.073 22.3125C201.918 22.608 201.84 22.9659 201.84 23.3864ZM213.329 31.9545C212.59 31.9545 211.956 31.8542 211.425 31.6534C210.895 31.4564 210.469 31.1913 210.147 30.858C209.825 30.5246 209.602 30.1553 209.477 29.75L211.329 29.3011C211.412 29.4716 211.533 29.6402 211.692 29.8068C211.852 29.9773 212.066 30.1174 212.335 30.2273C212.607 30.3409 212.95 30.3977 213.363 30.3977C213.946 30.3977 214.429 30.2557 214.812 29.9716C215.194 29.6913 215.386 29.2292 215.386 28.5852V26.9318H215.283C215.177 27.1439 215.022 27.3617 214.817 27.5852C214.617 27.8087 214.35 27.9962 214.016 28.1477C213.687 28.2992 213.272 28.375 212.772 28.375C212.102 28.375 211.494 28.2178 210.948 27.9034C210.406 27.5852 209.975 27.1117 209.653 26.483C209.335 25.8504 209.175 25.0587 209.175 24.108C209.175 23.1496 209.335 22.3409 209.653 21.6818C209.975 21.0189 210.408 20.517 210.954 20.1761C211.499 19.8314 212.107 19.6591 212.778 19.6591C213.289 19.6591 213.71 19.7462 214.039 19.9205C214.372 20.0909 214.638 20.2973 214.835 20.5398C215.031 20.7784 215.181 21.0038 215.283 21.2159H215.397V19.7727H217.425V28.642C217.425 29.3883 217.247 30.0057 216.891 30.4943C216.535 30.983 216.049 31.3485 215.431 31.5909C214.814 31.8333 214.113 31.9545 213.329 31.9545ZM213.346 26.7614C213.781 26.7614 214.153 26.6553 214.46 26.4432C214.766 26.2311 214.999 25.9261 215.158 25.5284C215.317 25.1307 215.397 24.6534 215.397 24.0966C215.397 23.5473 215.317 23.0663 215.158 22.6534C215.003 22.2405 214.772 21.9205 214.465 21.6932C214.162 21.4621 213.789 21.3466 213.346 21.3466C212.888 21.3466 212.505 21.4659 212.198 21.7045C211.891 21.9432 211.66 22.2708 211.505 22.6875C211.35 23.1004 211.272 23.5701 211.272 24.0966C211.272 24.6307 211.35 25.0985 211.505 25.5C211.664 25.8977 211.897 26.2083 212.204 26.4318C212.514 26.6515 212.895 26.7614 213.346 26.7614Z" fill="white"/>
<defs>
<linearGradient id="paint0_linear_994_10746" x1="0" y1="23" x2="232.5" y2="23" gradientUnits="userSpaceOnUse">
<stop stop-color="#093E9F"/>
<stop offset="0.577422" stop-color="#1769FF"/>
</linearGradient>
<clipPath id="clip0_994_10746">
<rect width="22.5" height="25.1689" fill="white" transform="translate(14 10.416)"/>
</clipPath>
</defs>
</svg>
